SplineFontDB: 3.0
FontName: Sophora
FullName: Sophora
FamilyName: Sophora
Weight: Medium
Copyright: 
UComments: "2011-9-30: Created." 
Version: 
ItalicAngle: 0
UnderlinePosition: -100
UnderlineWidth: 50
Ascent: 800
Descent: 200
LayerCount: 2
Layer: 0 0 "+gMyXYgAA"  1
Layer: 1 0 "+Uk2XYgAA"  0
NeedsXUIDChange: 1
XUID: [1021 494 2031268696 1449485]
OS2Version: 0
OS2_WeightWidthSlopeOnly: 0
OS2_UseTypoMetrics: 1
CreationTime: 1317379711
ModificationTime: 1317398382
OS2TypoAscent: 0
OS2TypoAOffset: 1
OS2TypoDescent: 0
OS2TypoDOffset: 1
OS2TypoLinegap: 0
OS2WinAscent: 0
OS2WinAOffset: 1
OS2WinDescent: 0
OS2WinDOffset: 1
HheadAscent: 0
HheadAOffset: 1
HheadDescent: 0
HheadDOffset: 1
OS2Vendor: 'PfEd'
Lookup: 1 0 0 "Greek final form"  {"Greek final form-1"  } ['fina' ('grek' <'dflt' > ) ]
Lookup: 3 0 0 "Greek glyph variants"  {"Greek glyph variants-1"  } ['aalt' ('grek' <'dflt' > ) 'salt' ('grek' <'dflt' > ) ]
Lookup: 1 0 0 "Romanian specific variants"  {"Romanian specific variants-1"  } ['aalt' ('latn' <'ROM ' > ) 'locl' ('latn' <'ROM ' > ) ]
MarkAttachClasses: 1
DEI: 91125
Encoding: jis208
UnicodeInterp: none
NameList: Adobe Glyph List
DisplaySize: -48
AntiAlias: 1
FitToEm: 1
WinInfo: 9248 16 4
BeginPrivate: 0
EndPrivate
BeginChars: 65846 2025

StartChar: ideographiccomma
Encoding: 8482 12289 1
Width: 500
VWidth: 0
Flags: MW
LayerCount: 2
Fore
SplineSet
82 175 m 0
 82 181 85 186 89 186 c 0
 97 186 184 78 184 68 c 0
 184 63 182 61 179 61 c 0
 172 61 160 70 147 86 c 0
 135 101 116 125 104 139 c 0
 91 153 82 170 82 175 c 0
EndSplineSet
EndChar

StartChar: ideographicperiod
Encoding: 8483 12290 2
Width: 500
VWidth: 0
Flags: MW
LayerCount: 2
Fore
SplineSet
55 175 m 0
 72 208 91 217 138 217 c 0
 140 217 142 217 144 217 c 0
 164 217 170 213 187 198 c 0
 206 180 217 160 217 141 c 0
 217 135 216 129 214 123 c 0
 200 90 158 64 126 64 c 0
 115 64 97 73 92 65 c 0
 91 63 88 62 86 62 c 0
 77 62 60 74 49 92 c 0
 44 100 42 111 42 123 c 0
 42 139 46 157 55 175 c 0
128 88 m 0
 164 88 191 117 191 141 c 0
 191 153 187 166 176 178 c 0
 161 195 157 196 132 196 c 0
 99 196 82 186 68 154 c 0
 63 144 61 135 61 128 c 0
 61 112 72 103 97 95 c 0
 111 90 120 88 128 88 c 0
EndSplineSet
EndChar

StartChar: commamonospace
Encoding: 8484 65292 3
Width: 500
VWidth: 0
Flags: MW
LayerCount: 2
Fore
SplineSet
138 146 m 0
 145 146 151 120 151 105 c 0
 151 80 144 46 134 25 c 0
 120 -2 77 -46 65 -46 c 0
 60 -46 55 -45 55 -43 c 0
 55 -41 66 -27 79 -11 c 0
 116 34 125 56 126 99 c 0
 127 123 127 146 138 146 c 0
EndSplineSet
EndChar

StartChar: periodmonospace
Encoding: 8485 65294 4
Width: 500
VWidth: 0
Flags: MW
LayerCount: 2
Fore
SplineSet
93 129 m 0
 93 135 101 138 106 138 c 0
 112 138 112 136 107 127 c 0
 102 116 93 119 93 129 c 0
103 103 m 0
 103 111 107 117 114 117 c 0
 121 117 128 108 128 97 c 0
 128 89 124 83 118 83 c 0
 109 83 103 94 103 103 c 0
EndSplineSet
EndChar

StartChar: dotkatakana
Encoding: 8486 12539 5
Width: 500
VWidth: 0
Flags: MW
LayerCount: 2
Fore
SplineSet
215 292 m 0
 215 301 219 311 223 311 c 0
 228 311 238 291 238 282 c 0
 238 277 234 271 229 271 c 0
 222 271 215 281 215 292 c 0
EndSplineSet
EndChar

StartChar: colonmonospace
Encoding: 8487 65306 6
Width: 500
VWidth: 0
Flags: MW
LayerCount: 2
Fore
SplineSet
248 318 m 0
 242 318 225 325 225 333 c 0
 225 335 226 339 229 343 c 2
 235 355 l 1
 247 343 l 2
 254 337 257 331 257 326 c 0
 257 321 254 318 248 318 c 0
229 97 m 0
 229 103 235 115 242 115 c 0
 247 115 259 93 259 81 c 0
 259 75 256 71 252 71 c 0
 241 71 229 88 229 97 c 0
EndSplineSet
EndChar

StartChar: semicolonmonospace
Encoding: 8488 65307 7
Width: 500
VWidth: 0
Flags: MW
LayerCount: 2
Fore
SplineSet
246 395 m 0
 246 402 251 406 255 406 c 0
 263 406 265 391 274 391 c 0
 280 391 290 378 290 369 c 0
 290 362 286 357 279 357 c 0
 262 357 246 384 246 395 c 0
266 107 m 0
 266 113 272 125 279 125 c 0
 286 125 292 114 292 97 c 0
 292 57 216 -66 184 -66 c 0
 180 -66 177 -65 177 -62 c 0
 177 -57 183 -48 195 -35 c 0
 205 -24 214 -8 216 -0 c 0
 220 17 237 53 254 80 c 0
 260 90 266 102 266 107 c 0
EndSplineSet
EndChar

StartChar: questionmonospace
Encoding: 8489 65311 8
Width: 500
VWidth: 0
Flags: MW
LayerCount: 2
Fore
SplineSet
132 420 m 0
 124 420 118 430 118 438 c 0
 118 470 179 520 235 528 c 0
 244 529 254 530 262 530 c 0
 267 530 272 530 275 529 c 0
 302 524 345 499 364 476 c 0
 379 457 382 449 382 430 c 0
 382 375 377 361 341 323 c 0
 290 269 267 225 260 172 c 0
 258 153 254 144 246 144 c 0
 240 144 237 152 237 165 c 0
 237 180 241 200 249 223 c 0
 265 268 283 297 320 336 c 0
 352 371 360 385 360 419 c 0
 360 454 337 481 294 500 c 0
 284 504 273 506 261 506 c 0
 211 506 149 475 149 443 c 0
 149 429 140 420 132 420 c 0
246 57 m 0
 246 45 242 39 234 39 c 0
 229 39 228 44 228 57 c 0
 228 70 229 74 234 74 c 0
 242 74 246 69 246 57 c 0
EndSplineSet
EndChar

StartChar: exclammonospace
Encoding: 8490 65281 9
Width: 500
VWidth: 0
Flags: MW
LayerCount: 2
Fore
SplineSet
233 476 m 0
 233 490 235 501 246 501 c 0
 254 501 256 493 259 435 c 0
 262 381 266 295 266 238 c 0
 266 214 264 212 258 212 c 0
 244 212 241 232 241 325 c 0
 240 366 239 416 236 438 c 0
 234 451 233 466 233 476 c 0
253 43 m 0
 248 43 243 65 243 81 c 0
 243 87 244 91 247 91 c 0
 257 91 267 72 267 61 c 0
 267 51 262 43 253 43 c 0
EndSplineSet
EndChar

StartChar: voicedmarkkana
Encoding: 8491 12443 10
Width: 500
VWidth: 0
Flags: MW
LayerCount: 2
Fore
SplineSet
171 487 m 0
 171 492 173 496 176 496 c 0
 183 496 189 486 200 457 c 0
 205 443 215 424 222 416 c 0
 232 403 239 386 239 377 c 0
 239 362 219 374 215 384 c 0
 213 389 205 401 198 410 c 0
 185 427 171 469 171 487 c 0
77 475 m 0
 77 481 89 485 93 485 c 0
 96 485 97 482 99 477 c 0
 102 469 140 412 145 407 c 0
 151 401 166 368 166 361 c 0
 166 356 165 354 162 354 c 0
 155 354 139 373 114 411 c 0
 88 451 77 467 77 475 c 0
EndSplineSet
EndChar

StartChar: semivoicedmarkkana
Encoding: 8492 12444 11
Width: 500
VWidth: 0
Flags: MW
LayerCount: 2
Fore
SplineSet
59 446 m 0
 59 489 93 527 144 527 c 0
 176 527 183 523 204 502 c 0
 226 480 226 479 228 439 c 0
 229 429 229 422 229 416 c 0
 229 398 225 393 215 380 c 0
 198 360 175 348 156 348 c 0
 141 348 125 357 116 363 c 0
 110 367 102 370 97 370 c 0
 85 370 76 381 65 413 c 0
 61 424 59 435 59 446 c 0
165 504 m 0
 156 509 152 511 147 511 c 0
 142 511 136 510 126 506 c 0
 102 497 78 475 78 449 c 0
 78 426 98 392 117 385 c 0
 125 382 137 378 143 374 c 0
 147 372 151 371 155 371 c 0
 160 371 165 372 171 375 c 0
 197 386 208 404 208 436 c 0
 208 467 193 490 165 504 c 0
EndSplineSet
EndChar

StartChar: acute
Encoding: 8493 180 12
Width: 500
VWidth: 0
Flags: MW
LayerCount: 2
Fore
SplineSet
193 404 m 0
 190 404 188 409 188 411 c 0
 188 419 202 434 241 471 c 0
 277 505 296 520 305 520 c 0
 308 520 312 517 312 513 c 0
 312 500 207 404 193 404 c 0
EndSplineSet
EndChar

StartChar: gravemonospace
Encoding: 8494 65344 13
Width: 500
VWidth: 0
Flags: MW
LayerCount: 2
Fore
SplineSet
328 415 m 0
 318 415 275 438 268 438 c 0
 258 438 187 475 174 487 c 0
 169 492 165 498 165 502 c 0
 165 507 168 511 171 511 c 0
 176 511 221 480 227 480 c 0
 231 480 239 476 246 470 c 0
 253 465 267 459 277 457 c 0
 298 453 335 430 335 422 c 0
 335 417 333 415 328 415 c 0
EndSplineSet
EndChar

StartChar: dieresis
Encoding: 8495 168 14
Width: 500
VWidth: 0
Flags: MW
LayerCount: 2
Fore
SplineSet
125 464 m 0
 125 471 128 482 131 482 c 0
 133 482 137 480 142 476 c 0
 153 468 159 458 159 450 c 0
 159 443 154 438 144 438 c 0
 133 438 125 451 125 464 c 0
363 444 m 0
 353 444 340 463 340 482 c 0
 340 483 340 484 341 484 c 0
 342 484 344 483 346 481 c 0
 352 476 354 476 356 481 c 0
 357 483 358 484 359 484 c 0
 367 484 375 464 375 458 c 0
 375 451 371 444 363 444 c 0
EndSplineSet
EndChar

StartChar: asciicircummonospace
Encoding: 8496 65342 15
Width: 500
VWidth: 0
Flags: MW
LayerCount: 2
Fore
SplineSet
380 398 m 0
 380 395 371 389 364 389 c 0
 348 389 276 438 269 446 c 0
 252 463 245 471 236 471 c 0
 228 471 220 466 203 455 c 0
 185 443 162 422 150 409 c 0
 138 396 130 390 125 390 c 0
 122 390 120 391 120 396 c 0
 120 399 121 402 122 406 c 0
 127 425 155 454 186 470 c 0
 200 477 214 487 218 492 c 0
 222 497 227 501 230 501 c 0
 241 501 266 486 279 470 c 0
 286 462 293 454 295 454 c 0
 299 454 360 412 365 412 c 0
 369 412 380 404 380 398 c 0
EndSplineSet
EndChar

StartChar: macronmonospace
Encoding: 8497 65507 16
Width: 500
VWidth: 0
Flags: MW
LayerCount: 2
Fore
SplineSet
112 484 m 0
 148 484 183 483 222 483 c 0
 311 483 402 486 412 490 c 0
 420 494 426 495 429 495 c 0
 433 495 441 487 441 480 c 0
 441 476 436 473 426 470 c 0
 400 462 367 459 309 459 c 0
 255 459 177 460 128 461 c 0
 92 461 61 463 60 465 c 0
 59 466 59 466 59 468 c 0
 59 483 74 484 112 484 c 0
EndSplineSet
EndChar

StartChar: underscoremonospace
Encoding: 8498 65343 17
Width: 500
VWidth: 0
Flags: MW
LayerCount: 2
Fore
SplineSet
137 80 m 0
 175 80 223 79 254 79 c 0
 342 79 383 81 412 85 c 0
 428 87 438 88 445 88 c 0
 457 88 459 86 459 78 c 0
 459 69 454 67 412 62 c 0
 375 57 265 55 174 55 c 0
 101 55 41 56 41 60 c 0
 41 63 44 69 48 73 c 0
 54 78 72 80 137 80 c 0
EndSplineSet
EndChar

StartChar: iterationkatakana
Encoding: 8499 12541 18
Width: 500
VWidth: 0
Flags: MW
LayerCount: 2
Fore
SplineSet
365 183 m 0
 365 177 357 171 347 171 c 0
 340 171 333 176 322 189 c 0
 303 211 238 268 200 296 c 0
 157 328 135 349 135 359 c 0
 135 365 140 369 143 369 c 0
 148 369 156 364 170 353 c 0
 182 344 203 327 218 315 c 0
 263 280 315 235 331 215 c 0
 339 204 350 195 356 193 c 0
 362 191 365 187 365 183 c 0
EndSplineSet
EndChar

StartChar: voicediterationkatakana
Encoding: 8500 12542 19
Width: 500
VWidth: 0
Flags: MW
LayerCount: 2
Fore
SplineSet
349 457 m 0
 349 463 354 473 357 473 c 0
 364 473 375 449 375 442 c 0
 375 437 382 425 391 417 c 0
 400 409 404 403 404 399 c 0
 404 396 402 394 397 394 c 0
 372 394 349 433 349 457 c 0
270 441 m 0
 270 445 271 447 272 447 c 0
 273 447 274 447 275 445 c 0
 277 441 282 438 286 439 c 0
 294 441 318 397 322 392 c 0
 330 383 325 369 314 371 c 0
 303 373 270 426 270 441 c 0
96 362 m 0
 96 368 102 373 104 373 c 0
 107 373 110 371 116 367 c 0
 124 362 149 341 173 320 c 0
 196 299 237 265 264 243 c 0
 315 202 354 163 354 154 c 0
 354 152 350 145 345 145 c 0
 339 145 327 153 312 168 c 0
 298 182 266 210 241 230 c 0
 215 251 172 287 144 312 c 0
 107 344 96 354 96 362 c 0
EndSplineSet
EndChar

StartChar: iterationhiragana
Encoding: 8501 12445 20
Width: 500
VWidth: 0
Flags: MW
LayerCount: 2
Fore
SplineSet
266 177 m 0
 303 177 323 177 323 189 c 0
 323 195 320 204 313 218 c 0
 305 233 292 259 285 274 c 0
 270 307 217 365 180 391 c 0
 163 402 151 415 151 427 c 0
 151 431 153 432 156 432 c 0
 161 432 170 428 187 417 c 0
 238 384 301 310 323 256 c 0
 328 244 336 226 342 215 c 0
 347 206 349 197 349 189 c 0
 349 177 344 168 334 166 c 0
 329 165 313 160 298 155 c 0
 285 151 270 148 256 148 c 0
 230 148 207 155 207 165 c 0
 207 177 225 177 256 177 c 0
 259 177 262 177 266 177 c 0
EndSplineSet
EndChar

StartChar: voicediterationhiragana
Encoding: 8502 12446 21
Width: 500
VWidth: 0
Flags: MW
LayerCount: 2
Fore
SplineSet
323 474 m 0
 323 478 327 488 332 488 c 0
 338 488 346 480 359 464 c 0
 368 453 379 443 383 443 c 0
 388 443 391 442 391 439 c 0
 391 433 380 426 372 426 c 0
 362 426 353 434 339 451 c 0
 327 466 323 470 323 474 c 0
233 467 m 0
 233 472 234 475 238 475 c 0
 242 475 248 473 257 469 c 0
 273 463 315 415 315 403 c 0
 315 399 309 396 307 396 c 0
 300 396 290 406 272 427 c 0
 258 444 243 459 240 459 c 0
 236 460 233 463 233 467 c 0
141 398 m 0
 121 408 109 415 109 428 c 0
 109 430 110 432 113 432 c 0
 115 432 119 431 123 430 c 0
 180 417 254 344 281 272 c 0
 290 248 295 235 295 224 c 0
 295 209 285 203 262 193 c 0
 225 177 191 169 172 169 c 0
 161 169 155 171 155 177 c 0
 155 185 161 187 168 187 c 0
 185 187 258 211 265 220 c 0
 267 222 267 225 267 229 c 0
 267 246 254 282 239 304 c 0
 213 342 170 384 141 398 c 0
EndSplineSet
EndChar

StartChar: dittomark
Encoding: 8503 12291 22
Width: 500
VWidth: 0
Flags: MW
LayerCount: 2
Fore
SplineSet
317 208 m 0
 362 275 352 443 361 443 c 0
 362 443 363 442 364 440 c 0
 365 436 370 433 374 433 c 0
 379 433 381 424 381 406 c 0
 381 390 379 368 376 338 c 0
 365 252 355 222 327 192 c 0
 316 180 307 175 304 175 c 0
 303 175 302 175 302 177 c 0
 302 182 307 193 317 208 c 0
214 433 m 0
 215 433 216 430 216 426 c 0
 216 399 199 295 189 261 c 0
 178 226 171 213 150 190 c 0
 136 174 125 167 121 167 c 0
 120 167 119 167 119 169 c 0
 119 172 122 179 129 190 c 0
 160 237 179 294 184 359 c 0
 187 391 190 401 200 411 c 0
 207 418 213 426 213 429 c 0
 213 431 213 433 214 433 c 0
EndSplineSet
EndChar

StartChar: uni4EDD
Encoding: 8504 20189 23
Width: 500
VWidth: 0
Flags: MW
LayerCount: 2
Fore
SplineSet
193 490 m 0
 195 505 199 517 202 517 c 0
 205 517 227 498 252 474 c 0
 277 450 324 404 358 372 c 0
 391 340 434 304 452 291 c 0
 473 277 484 265 484 259 c 0
 484 256 480 254 473 254 c 0
 461 254 425 279 394 306 c 0
 383 316 377 320 373 320 c 0
 367 320 358 305 352 309 c 0
 351 310 349 310 345 310 c 0
 336 310 320 309 304 307 c 0
 248 299 239 301 239 278 c 0
 239 211 250 178 256 122 c 0
 258 100 260 82 261 81 c 0
 262 80 299 79 344 78 c 0
 414 77 428 76 443 67 c 0
 456 60 468 47 448 47 c 0
 441 47 428 48 405 52 c 0
 393 54 367 55 342 55 c 0
 335 55 328 55 321 55 c 0
 266 53 264 54 261 41 c 0
 259 33 254 28 249 28 c 0
 245 28 241 31 239 38 c 0
 237 45 232 48 219 48 c 0
 204 48 179 45 137 36 c 0
 96 27 78 23 70 23 c 0
 63 23 63 26 63 31 c 0
 63 43 90 51 158 62 c 0
 191 67 222 73 226 75 c 0
 230 77 233 93 233 113 c 0
 233 132 230 154 226 170 c 0
 223 180 221 212 219 240 c 0
 216 280 215 291 202 291 c 0
 188 291 159 281 146 278 c 0
 137 276 127 267 119 255 c 0
 76 190 63 172 48 156 c 0
 38 145 27 138 21 138 c 0
 18 138 16 139 16 143 c 0
 16 146 23 155 30 163 c 0
 37 171 46 185 51 193 c 0
 60 210 93 258 104 269 c 0
 128 294 186 438 193 490 c 0
321 373 m 0
 263 433 223 470 215 470 c 0
 212 470 201 431 190 397 c 0
 178 361 164 325 159 318 c 2
 151 305 l 1
 171 308 l 2
 199 313 218 316 291 326 c 0
 324 331 352 337 352 339 c 0
 352 341 337 356 321 373 c 0
EndSplineSet
EndChar

StartChar: ideographiciterationmark
Encoding: 8505 12293 24
Width: 500
VWidth: 0
Flags: MW
LayerCount: 2
Fore
SplineSet
391 431 m 0
 400 431 403 424 403 413 c 0
 403 404 400 391 395 377 c 0
 385 349 332 246 315 224 c 0
 307 213 297 206 291 206 c 0
 288 206 287 208 287 211 c 0
 287 214 303 244 322 278 c 0
 353 332 377 387 377 402 c 0
 377 405 371 407 363 407 c 0
 350 407 328 403 309 397 c 0
 241 375 231 372 207 372 c 0
 182 372 181 372 176 351 c 0
 169 322 152 273 134 234 c 0
 126 216 119 198 119 195 c 0
 119 189 96 153 88 162 c 0
 87 163 85 165 85 168 c 0
 85 176 94 196 123 263 c 0
 137 296 160 373 167 407 c 0
 171 426 178 446 184 453 c 0
 188 458 192 460 194 460 c 0
 196 460 197 458 197 452 c 0
 197 444 191 414 191 402 c 0
 191 392 194 387 200 387 c 0
 202 387 205 388 208 389 c 0
 245 404 365 431 391 431 c 0
219 242 m 0
 219 246 221 249 224 249 c 0
 227 249 229 245 229 240 c 0
 229 231 234 235 240 235 c 0
 259 235 318 177 396 79 c 0
 408 63 415 52 415 45 c 0
 415 40 411 38 405 38 c 0
 401 38 389 51 377 67 c 0
 365 83 351 99 345 103 c 0
 339 108 328 119 321 129 c 0
 314 139 295 160 279 176 c 0
 234 218 219 235 219 242 c 0
EndSplineSet
EndChar

StartChar: ideographicclose
Encoding: 8506 12294 25
Width: 500
VWidth: 0
Flags: MW
LayerCount: 2
Fore
SplineSet
404 473 m 0
 413 478 419 481 423 481 c 0
 426 481 428 479 428 476 c 0
 428 470 421 458 406 440 c 0
 350 372 327 345 314 331 c 2
 300 317 l 1
 322 295 l 2
 341 275 381 209 381 196 c 0
 381 193 375 191 369 192 c 0
 361 193 354 201 343 222 c 0
 326 256 296 291 285 291 c 0
 276 291 159 143 118 78 c 0
 108 62 96 49 92 49 c 0
 84 49 72 80 72 96 c 0
 72 107 77 126 81 159 c 0
 89 232 99 273 120 315 c 0
 144 363 159 383 182 383 c 0
 196 383 214 374 239 359 c 0
 263 345 284 334 287 334 c 0
 291 334 336 392 367 433 c 0
 381 452 398 469 404 473 c 0
259 312 m 0
 259 322 191 365 181 365 c 0
 172 365 144 324 128 288 c 0
 112 250 98 180 98 137 c 0
 98 135 98 133 98 131 c 2
 99 95 l 1
 135 141 l 2
 169 187 215 249 246 287 c 0
 253 296 259 307 259 312 c 0
EndSplineSet
EndChar

StartChar: ideographiczero
Encoding: 8507 12295 26
Width: 500
VWidth: 0
Flags: MW
LayerCount: 2
Fore
SplineSet
191 447 m 0
 211 447 229 456 245 456 c 0
 253 456 266 452 285 451 c 0
 362 445 400 428 446 381 c 0
 480 347 488 322 488 254 c 0
 488 199 484 188 451 148 c 0
 423 115 398 99 351 84 c 0
 306 70 289 66 244 62 c 0
 222 60 216 56 205 56 c 0
 143 56 70 89 44 122 c 0
 21 150 12 182 12 237 c 0
 12 255 16 266 29 295 c 0
 40 318 48 339 48 342 c 0
 48 352 107 414 123 422 c 0
 132 427 145 435 151 440 c 0
 157 446 163 448 173 448 c 0
 179 448 185 447 191 447 c 0
380 406 m 0
 364 418 282 432 252 432 c 0
 221 432 138 410 130 400 c 0
 126 395 120 391 116 391 c 0
 105 390 85 359 59 304 c 0
 38 261 37 253 37 217 c 0
 37 173 44 154 70 127 c 0
 97 99 159 79 207 79 c 0
 235 79 254 85 285 90 c 0
 333 99 375 112 394 125 c 0
 418 141 451 180 462 204 c 0
 467 217 470 240 470 263 c 0
 470 281 468 298 465 313 c 0
 459 340 414 395 399 396 c 0
 396 396 388 401 380 406 c 0
EndSplineSet
EndChar

StartChar: prolongedkana
Encoding: 8508 12540 27
Width: 500
VWidth: 0
Flags: MW
LayerCount: 2
Fore
SplineSet
366 289 m 0
 401 289 416 288 416 277 c 0
 416 268 399 266 351 266 c 0
 322 266 276 264 250 262 c 0
 195 258 163 257 115 251 c 0
 104 250 98 249 93 249 c 0
 85 249 84 251 84 258 c 0
 84 273 91 274 222 282 c 0
 289 286 336 289 366 289 c 0
EndSplineSet
EndChar

StartChar: horizontalbar
Encoding: 8509 8213 28
Width: 500
VWidth: 0
Flags: MW
LayerCount: 2
Fore
SplineSet
464 303 m 0
 481 303 500 303 500 288 c 0
 500 283 491 281 472 280 c 0
 443 279 441 280 384 273 c 0
 352 269 56 266 24 261 c 0
 16 260 11 260 7 260 c 0
 2 260 0 261 0 263 c 0
 0 284 34 288 126 289 c 0
 289 291 423 296 442 301 c 0
 448 303 456 303 464 303 c 0
EndSplineSet
EndChar

StartChar: hyphentwo
Encoding: 8510 8208 29
Width: 500
VWidth: 0
Flags: MW
LayerCount: 2
Fore
SplineSet
238 260 m 0
 214 260 151 260 151 267 c 0
 151 268 153 270 158 274 c 0
 166 281 217 284 265 284 c 0
 309 284 349 281 349 275 c 0
 349 258 273 260 238 260 c 0
EndSplineSet
EndChar

StartChar: slashmonospace
Encoding: 8511 65295 30
Width: 500
VWidth: 0
Flags: MW
LayerCount: 2
Fore
SplineSet
428 486 m 0
 432 493 438 496 441 496 c 0
 443 496 444 495 444 492 c 0
 444 486 432 475 427 475 c 0
 424 475 425 480 428 486 c 0
400 462 m 0
 410 466 416 469 419 469 c 0
 420 469 421 469 421 468 c 0
 421 464 409 451 383 422 c 0
 359 395 323 345 323 339 c 0
 322 337 308 320 291 299 c 0
 251 253 145 107 117 107 c 0
 113 107 112 108 112 111 c 0
 112 119 123 134 141 150 c 0
 156 163 180 191 193 210 c 0
 206 229 224 255 233 265 c 0
 259 293 326 381 335 399 c 0
 346 420 381 454 400 462 c 0
56 48 m 0
 56 59 95 112 103 112 c 0
 108 112 110 108 110 103 c 0
 110 97 107 88 101 81 c 0
 94 73 84 61 79 53 c 0
 73 43 68 39 64 39 c 0
 61 39 56 42 56 48 c 0
EndSplineSet
EndChar

StartChar: backslashmonospace
Encoding: 8512 65340 31
Width: 500
VWidth: 0
Flags: MW
LayerCount: 2
Fore
SplineSet
468 71 m 0
 468 67 464 65 461 65 c 0
 452 65 436 78 408 110 c 0
 390 131 364 157 349 170 c 0
 335 183 287 230 243 275 c 0
 141 380 97 424 59 458 c 0
 41 475 32 486 32 492 c 0
 32 498 37 501 40 501 c 0
 46 501 54 494 66 482 c 0
 91 457 159 405 180 376 c 0
 190 362 245 305 302 249 c 0
 427 126 468 83 468 71 c 0
EndSplineSet
EndChar

StartChar: wavedash
Encoding: 8513 12316 32
Width: 500
VWidth: 0
Flags: MW
LayerCount: 2
Fore
SplineSet
50 249 m 0
 46 249 40 258 40 266 c 0
 40 284 82 307 99 311 c 0
 107 313 114 314 122 314 c 0
 155 314 190 298 231 267 c 0
 265 241 292 229 316 229 c 0
 353 229 402 256 431 282 c 0
 445 294 452 301 456 301 c 0
 459 301 460 297 460 292 c 0
 459 273 394 228 343 211 c 2
 309 201 l 1
 281 211 l 2
 265 217 235 235 213 251 c 0
 192 267 166 283 155 286 c 0
 143 289 132 291 121 291 c 0
 96 291 75 281 63 262 c 0
 58 253 54 249 50 249 c 0
EndSplineSet
EndChar

StartChar: dblverticalbar
Encoding: 8514 8214 33
Width: 500
VWidth: 0
Flags: MW
LayerCount: 2
Fore
SplineSet
438 500 m 0
 448 515 457 528 459 528 c 0
 461 528 461 526 459 524 c 0
 455 521 462 515 462 510 c 0
 462 502 455 485 440 455 c 0
 426 426 414 401 414 399 c 0
 414 391 358 280 341 254 c 0
 318 220 310 199 287 170 c 0
 279 160 269 145 265 136 c 0
 230 67 212 33 208 33 c 0
 203 33 201 37 201 43 c 0
 201 61 218 100 246 142 c 0
 254 154 261 165 261 168 c 0
 261 171 273 189 287 209 c 0
 315 248 382 375 406 436 c 0
 414 457 429 485 438 500 c 0
42 51 m 0
 39 51 38 52 38 55 c 0
 38 58 40 64 45 71 c 0
 50 80 56 94 58 101 c 0
 60 108 81 144 104 181 c 0
 127 217 145 249 145 252 c 0
 145 254 156 273 169 292 c 0
 191 325 212 366 240 430 c 0
 246 445 261 470 273 487 c 0
 285 503 297 517 301 517 c 0
 308 517 311 515 311 510 c 0
 311 504 306 493 296 478 c 0
 285 462 277 447 277 445 c 0
 277 443 274 437 270 433 c 0
 266 428 255 408 245 386 c 0
 236 364 204 307 176 260 c 0
 148 213 124 174 124 173 c 0
 124 172 113 152 98 128 c 0
 84 104 72 82 72 78 c 0
 72 69 51 51 42 51 c 0
EndSplineSet
EndChar

StartChar: barmonospace
Encoding: 8515 65372 34
Width: 500
VWidth: 0
Flags: MW
LayerCount: 2
Fore
SplineSet
245 509 m 0
 249 514 251 516 253 516 c 0
 256 516 255 508 255 498 c 0
 255 464 265 245 271 154 c 0
 274 107 276 80 276 63 c 0
 276 43 274 38 269 33 c 0
 266 30 263 29 261 29 c 0
 257 29 254 36 253 52 c 0
 247 126 244 196 242 263 c 0
 238 409 236 451 230 466 c 0
 226 476 224 484 224 490 c 0
 224 497 226 501 231 501 c 0
 235 501 241 505 245 509 c 0
EndSplineSet
EndChar

StartChar: ellipsis
Encoding: 8516 8230 35
Width: 500
VWidth: 0
Flags: MW
LayerCount: 2
Fore
SplineSet
229 320 m 0
 229 324 240 338 244 338 c 0
 250 338 273 299 273 291 c 0
 273 287 266 286 263 286 c 0
 255 286 246 291 239 301 c 0
 232 311 229 316 229 320 c 0
374 316 m 0
 374 322 383 330 389 330 c 0
 396 330 423 309 423 298 c 0
 423 294 420 291 414 291 c 0
 402 291 374 305 374 316 c 0
77 300 m 0
 77 307 87 317 89 317 c 0
 92 317 117 276 117 272 c 0
 117 271 115 270 111 270 c 0
 92 270 77 285 77 300 c 0
EndSplineSet
EndChar

StartChar: twodotenleader
Encoding: 8517 8229 36
Width: 500
VWidth: 0
Flags: MW
LayerCount: 2
Fore
SplineSet
354 306 m 0
 362 306 381 282 381 273 c 0
 381 268 377 265 371 265 c 0
 360 265 349 283 350 298 c 0
 350 303 352 306 354 306 c 0
119 286 m 0
 119 291 127 298 130 298 c 0
 143 298 158 277 158 269 c 0
 158 263 154 259 149 259 c 0
 142 259 119 276 119 286 c 0
EndSplineSet
EndChar

StartChar: quoteleft
Encoding: 8518 8216 37
Width: 500
VWidth: 0
Flags: MW
LayerCount: 2
Fore
SplineSet
394 364 m 0
 366 364 346 391 346 419 c 0
 346 445 359 474 383 493 c 0
 394 502 402 506 406 506 c 0
 408 506 409 505 409 503 c 0
 409 498 402 487 389 473 c 0
 375 458 371 449 371 435 c 0
 371 415 374 418 390 418 c 0
 407 418 418 408 418 391 c 0
 418 374 408 364 394 364 c 0
EndSplineSet
EndChar

StartChar: quoteright
Encoding: 8519 8217 38
Width: 500
VWidth: 0
Flags: MW
LayerCount: 2
Fore
SplineSet
37 345 m 0
 32 345 25 348 25 353 c 0
 25 361 39 370 53 370 c 0
 65 370 105 406 105 416 c 0
 105 424 94 418 90 418 c 0
 81 418 71 427 66 440 c 0
 61 455 62 458 71 465 c 0
 77 470 86 473 96 473 c 0
 120 473 134 459 134 437 c 0
 134 423 128 407 115 391 c 0
 90 359 79 349 67 349 c 0
 59 349 50 349 43 346 c 0
 41 345 39 345 37 345 c 0
EndSplineSet
EndChar

StartChar: quotedblleft
Encoding: 8520 8220 39
Width: 500
VWidth: 0
Flags: MW
LayerCount: 2
Fore
SplineSet
339 435 m 0
 339 421 325 402 308 402 c 0
 304 402 300 403 294 407 c 0
 284 413 280 417 280 428 c 0
 280 460 295 499 309 509 c 0
 317 515 324 518 329 518 c 0
 333 518 336 515 336 512 c 0
 336 508 332 501 324 493 c 0
 314 483 308 474 308 467 c 0
 308 462 311 459 318 459 c 0
 332 459 339 448 339 435 c 0
385 450 m 0
 385 484 403 517 436 517 c 0
 441 517 445 516 445 512 c 0
 445 509 438 502 429 495 c 0
 419 488 413 476 413 469 c 0
 413 465 414 462 419 462 c 0
 428 462 450 459 450 448 c 0
 450 445 448 439 443 430 c 0
 434 412 423 404 413 404 c 0
 392 404 385 428 385 450 c 0
EndSplineSet
EndChar

StartChar: quotedblright
Encoding: 8521 8221 40
Width: 500
VWidth: 0
Flags: MW
LayerCount: 2
Fore
SplineSet
145 462 m 0
 145 475 160 495 173 495 c 0
 179 495 185 493 196 486 c 0
 208 478 212 475 212 463 c 0
 212 422 197 375 176 365 c 0
 171 362 168 361 166 361 c 0
 164 361 162 361 162 364 c 0
 162 369 166 378 173 392 c 0
 182 410 186 420 186 426 c 0
 186 431 183 433 176 433 c 0
 157 433 145 447 145 462 c 0
74 486 m 0
 76 489 79 490 82 490 c 0
 95 490 113 469 113 449 c 0
 113 408 79 349 60 349 c 0
 45 349 54 365 63 375 c 0
 74 387 81 406 81 418 c 0
 81 424 79 428 75 428 c 0
 63 428 50 449 50 466 c 0
 50 477 53 480 60 480 c 0
 66 480 72 483 74 486 c 0
EndSplineSet
EndChar

StartChar: parenleftmonospace
Encoding: 8522 65288 41
Width: 500
VWidth: 0
Flags: MW
LayerCount: 2
Fore
SplineSet
497 38 m 0
 497 34 493 29 487 29 c 0
 470 29 413 61 395 82 c 0
 385 93 372 116 366 132 c 0
 360 149 351 170 345 180 c 0
 335 199 330 238 330 276 c 0
 330 313 335 348 345 362 c 0
 347 365 351 376 355 387 c 0
 362 412 391 447 404 466 c 0
 409 474 422 486 431 491 c 0
 442 498 449 501 454 501 c 0
 464 501 468 489 458 483 c 0
 422 461 372 382 364 333 c 0
 363 329 360 322 358 317 c 0
 356 313 356 297 356 278 c 0
 356 227 360 201 375 167 c 0
 404 99 426 75 479 56 c 0
 490 52 497 44 497 38 c 0
EndSplineSet
EndChar

StartChar: parenrightmonospace
Encoding: 8523 65289 42
Width: 500
VWidth: 0
Flags: MW
LayerCount: 2
Fore
SplineSet
68 501 m 0
 70 505 75 507 80 507 c 0
 107 507 166 453 189 403 c 0
 205 367 208 355 218 276 c 0
 221 257 222 244 222 233 c 0
 222 206 207 153 196 141 c 0
 190 135 179 120 171 108 c 0
 148 74 90 40 66 40 c 0
 59 40 55 43 55 49 c 0
 55 52 60 57 67 60 c 0
 73 63 95 75 116 88 c 0
 147 107 156 115 172 144 c 0
 190 176 199 208 199 242 c 0
 199 251 198 260 197 270 c 0
 190 321 183 355 173 381 c 0
 162 407 124 457 104 471 c 0
 97 476 89 484 86 488 c 0
 83 493 77 496 73 496 c 0
 69 496 66 498 68 501 c 0
EndSplineSet
EndChar

StartChar: tortoiseshellbracketleft
Encoding: 8524 12308 43
Width: 500
VWidth: 0
Flags: MW
LayerCount: 2
Fore
SplineSet
495 38 m 0
 495 33 491 27 486 27 c 0
 481 27 474 31 459 41 c 0
 402 78 365 105 349 119 c 0
 340 127 329 133 325 133 c 0
 317 133 318 133 316 162 c 0
 315 181 312 198 305 233 c 0
 299 263 295 317 295 359 c 0
 295 392 297 417 302 417 c 0
 306 417 385 464 405 479 c 0
 419 488 444 505 463 505 c 0
 470 505 474 502 475 496 c 0
 476 490 472 485 461 481 c 0
 453 478 432 467 417 458 c 0
 377 432 371 429 349 417 c 0
 327 405 320 399 320 366 c 0
 320 352 321 333 323 307 c 0
 327 265 331 221 334 209 c 0
 337 197 339 181 339 173 c 0
 339 152 388 111 461 69 c 0
 485 55 495 46 495 38 c 0
EndSplineSet
EndChar

StartChar: tortoiseshellbracketright
Encoding: 8525 12309 44
Width: 500
VWidth: 0
Flags: MW
LayerCount: 2
Fore
SplineSet
51 468 m 0
 51 474 56 486 62 486 c 0
 69 486 114 464 129 453 c 0
 136 448 155 442 169 438 c 0
 183 435 196 430 198 428 c 0
 200 426 205 374 208 312 c 0
 212 238 214 193 214 166 c 0
 214 124 208 122 194 113 c 0
 185 107 175 101 173 101 c 0
 170 101 154 89 136 74 c 0
 92 36 69 20 59 20 c 0
 55 20 53 23 52 28 c 0
 51 32 58 41 67 47 c 0
 76 54 91 64 97 70 c 0
 107 79 110 81 114 75 c 0
 120 67 117 72 117 77 c 0
 117 88 145 115 170 129 c 0
 183 136 186 141 189 161 c 0
 190 169 191 179 191 186 c 0
 191 191 192 195 191 197 c 0
 188 209 182 297 179 372 c 2
 178 409 l 1
 149 420 l 2
 128 428 51 463 51 468 c 0
EndSplineSet
EndChar

StartChar: bracketleftmonospace
Encoding: 8526 65339 45
Width: 500
VWidth: 0
Flags: MW
LayerCount: 2
Fore
SplineSet
421 506 m 0
 424 507 427 508 430 508 c 0
 444 508 461 499 461 490 c 0
 461 482 453 481 399 481 c 0
 342 481 330 481 330 460 c 0
 330 455 331 449 332 441 c 0
 334 427 336 386 337 351 c 0
 338 316 340 239 342 180 c 2
 346 71 l 1
 415 72 l 2
 425 72 434 72 441 72 c 0
 480 72 484 70 484 62 c 0
 484 54 478 53 434 50 c 0
 407 48 370 47 353 47 c 2
 321 46 l 1
 321 107 l 2
 320 218 313 388 308 420 c 0
 306 431 305 439 305 444 c 0
 305 451 307 454 311 457 c 0
 322 465 306 471 306 481 c 0
 306 484 307 487 308 490 c 0
 312 501 316 501 362 502 c 0
 389 502 415 504 421 506 c 0
EndSplineSet
EndChar

StartChar: bracketrightmonospace
Encoding: 8527 65341 46
Width: 500
VWidth: 0
Flags: MW
LayerCount: 2
Fore
SplineSet
177 488 m 0
 153 488 113 481 95 481 c 0
 78 481 68 483 61 490 c 0
 55 496 52 501 54 503 c 0
 56 505 76 507 99 507 c 0
 123 507 145 508 149 511 c 0
 151 513 162 514 173 514 c 0
 195 514 226 511 230 507 c 0
 234 504 238 346 240 145 c 0
 240 108 238 73 234 62 c 2
 228 43 l 1
 188 43 l 2
 140 43 115 46 71 46 c 0
 47 47 40 47 40 58 c 0
 40 63 46 65 62 65 c 0
 177 66 208 68 213 75 c 0
 215 78 216 112 216 160 c 0
 216 232 214 337 211 420 c 2
 208 483 l 1
 192 487 l 2
 188 488 183 488 177 488 c 0
EndSplineSet
EndChar

StartChar: braceleftmonospace
Encoding: 8528 65371 47
Width: 500
VWidth: 0
Flags: MW
LayerCount: 2
Fore
SplineSet
370 355 m 0
 370 371 368 409 368 424 c 0
 368 447 372 455 382 475 c 0
 390 491 402 507 409 510 c 0
 415 513 431 515 447 515 c 0
 474 515 484 514 484 504 c 0
 484 495 481 493 461 492 c 0
 404 490 393 475 393 391 c 0
 393 389 393 387 393 385 c 0
 393 323 385 291 366 277 c 0
 359 272 359 269 364 261 c 0
 382 235 386 215 387 158 c 2
 388 99 l 1
 409 78 l 2
 424 63 430 60 442 60 c 0
 449 60 464 62 472 62 c 0
 485 62 495 60 495 51 c 0
 495 43 477 38 456 38 c 0
 437 38 415 41 402 50 c 0
 371 71 363 85 363 133 c 0
 363 144 364 159 364 170 c 0
 364 226 355 241 325 250 c 0
 309 254 300 261 300 266 c 0
 300 270 304 273 313 274 c 0
 345 278 350 281 361 306 c 0
 368 322 370 331 370 355 c 0
EndSplineSet
EndChar

StartChar: bracerightmonospace
Encoding: 8529 65373 48
Width: 500
VWidth: 0
Flags: MW
LayerCount: 2
Fore
SplineSet
169 216 m 0
 169 183 173 132 173 102 c 2
 174 63 l 1
 150 43 l 2
 133 29 128 24 114 24 c 0
 108 24 101 25 91 26 c 0
 62 29 55 31 56 38 c 0
 58 44 66 47 93 48 c 0
 122 49 130 51 142 63 c 0
 151 72 154 77 154 88 c 0
 154 92 154 97 153 104 c 0
 148 145 146 191 146 220 c 0
 146 232 146 241 147 246 c 0
 150 262 152 265 164 265 c 0
 171 265 175 265 175 270 c 0
 175 276 170 288 159 315 c 0
 148 340 146 358 144 406 c 0
 141 477 136 486 93 490 c 0
 78 491 66 493 66 494 c 0
 66 495 70 501 75 507 c 0
 81 514 88 516 97 516 c 0
 107 516 118 513 132 505 c 0
 161 488 166 474 166 413 c 0
 166 362 170 341 188 308 c 0
 195 294 201 292 217 290 c 0
 233 289 237 286 237 278 c 0
 237 269 232 267 211 264 c 0
 178 260 169 253 169 216 c 0
EndSplineSet
EndChar

StartChar: anglebracketleft
Encoding: 8530 12296 49
Width: 500
VWidth: 0
Flags: MW
LayerCount: 2
Fore
SplineSet
441 493 m 0
 448 498 453 501 456 501 c 0
 459 501 463 497 463 491 c 0
 463 485 457 474 446 460 c 0
 415 423 343 321 332 302 c 0
 327 293 324 279 326 273 c 0
 329 262 355 228 422 146 c 0
 467 90 494 52 494 44 c 0
 494 40 490 38 487 38 c 0
 480 38 470 45 461 57 c 0
 454 68 434 92 418 111 c 0
 366 173 321 233 308 257 c 0
 301 269 298 275 298 281 c 0
 298 286 300 290 304 298 c 0
 320 328 335 350 363 388 c 0
 378 409 399 439 410 455 c 0
 421 471 435 489 441 493 c 0
EndSplineSet
EndChar

StartChar: anglebracketright
Encoding: 8531 12297 50
Width: 500
VWidth: 0
Flags: MW
LayerCount: 2
Fore
SplineSet
49 486 m 0
 49 493 56 512 58 512 c 0
 59 512 68 498 76 482 c 0
 84 465 96 446 102 441 c 0
 108 435 113 429 113 425 c 0
 113 421 125 406 140 391 c 0
 171 359 185 331 212 301 c 1
 229 282 l 1
 215 263 l 2
 207 252 190 227 177 206 c 0
 101 78 71 34 55 34 c 0
 48 34 45 40 45 45 c 0
 45 50 48 55 53 60 c 0
 58 64 67 74 73 83 c 0
 141 184 171 232 171 244 c 0
 171 247 178 256 185 263 c 2
 198 275 l 1
 183 295 l 1
 158 326 155 338 124 369 c 0
 91 402 88 413 64 453 c 0
 53 470 49 478 49 486 c 0
EndSplineSet
EndChar

StartChar: dblanglebracketleft
Encoding: 8532 12298 51
Width: 500
VWidth: 0
Flags: MW
LayerCount: 2
Fore
SplineSet
481 18 m 0
 481 15 478 10 473 10 c 0
 455 10 363 126 347 169 c 0
 336 198 327 218 313 243 c 0
 306 255 303 267 303 276 c 0
 303 282 305 286 308 288 c 0
 327 300 402 482 411 479 c 1
 419 475 426 495 431 495 c 0
 432 495 433 494 433 492 c 0
 433 488 431 482 427 474 c 0
 390 391 357 323 346 309 c 0
 338 298 334 284 334 271 c 0
 334 262 337 253 342 249 c 0
 346 246 354 227 361 206 c 0
 367 185 377 160 383 149 c 0
 398 122 454 49 469 36 c 0
 477 29 481 23 481 18 c 0
213 353 m 0
 213 359 239 417 239 421 c 0
 239 423 243 434 248 447 c 0
 256 467 262 472 280 472 c 1
 283 470 221 313 213 301 c 0
 204 288 200 280 200 270 c 0
 200 259 205 248 217 232 c 0
 229 217 245 185 253 162 c 0
 261 139 273 113 280 103 c 0
 287 93 292 83 292 80 c 0
 292 74 317 34 324 30 c 0
 328 28 329 24 329 19 c 0
 329 13 327 7 322 7 c 0
 309 7 283 42 256 98 c 0
 241 128 229 156 229 159 c 0
 229 170 213 197 189 229 c 2
 166 259 l 1
 189 302 l 2
 202 326 213 349 213 353 c 0
EndSplineSet
EndChar

StartChar: dblanglebracketright
Encoding: 8533 12299 52
Width: 500
VWidth: 0
Flags: MW
LayerCount: 2
Fore
SplineSet
162 508 m 0
 162 510 163 513 165 513 c 0
 177 513 238 443 308 347 c 2
 350 289 l 1
 339 277 l 2
 333 271 322 253 315 238 c 0
 297 200 259 148 241 109 c 0
 219 63 191 22 181 22 c 0
 170 22 164 31 171 36 c 0
 178 41 197 68 225 122 c 0
 253 175 279 221 302 255 c 0
 311 269 318 283 318 287 c 0
 318 291 305 310 289 330 c 0
 248 381 255 386 210 433 c 0
 182 462 162 494 162 508 c 0
55 493 m 0
 55 499 59 506 65 506 c 0
 69 506 72 502 76 491 c 0
 80 482 90 467 98 458 c 0
 106 449 120 430 127 417 c 0
 144 385 160 363 192 327 c 2
 218 297 l 1
 209 280 l 2
 204 270 187 245 172 226 c 0
 157 206 135 170 123 145 c 0
 111 120 99 95 95 91 c 0
 92 87 84 72 79 58 c 0
 72 38 66 29 60 29 c 0
 57 29 53 32 53 37 c 0
 53 47 65 73 114 172 c 0
 138 221 170 270 177 270 c 0
 180 270 188 281 188 289 c 0
 188 296 183 302 171 315 c 0
 152 337 135 358 107 403 c 0
 100 415 85 437 74 451 c 0
 62 467 55 483 55 493 c 0
EndSplineSet
EndChar

StartChar: cornerbracketleft
Encoding: 8534 12300 53
Width: 500
VWidth: 0
Flags: MW
LayerCount: 2
Fore
SplineSet
281 419 m 0
 281 431 285 475 295 475 c 0
 299 475 303 472 303 469 c 0
 303 462 338 474 345 476 c 0
 354 478 373 479 391 479 c 0
 417 479 444 479 444 470 c 0
 444 469 444 467 443 466 c 0
 439 462 361 454 328 454 c 0
 327 454 326 454 325 454 c 0
 307 454 304 446 304 425 c 0
 304 407 306 374 310 342 c 0
 317 286 320 179 320 107 c 0
 320 60 318 54 312 54 c 0
 299 54 298 63 297 159 c 0
 296 207 297 252 297 259 c 0
 296 270 281 404 281 419 c 0
EndSplineSet
EndChar

StartChar: cornerbracketright
Encoding: 8535 12301 54
Width: 500
VWidth: 0
Flags: MW
LayerCount: 2
Fore
SplineSet
215 369 m 0
 215 378 219 391 223 391 c 0
 235 390 239 378 241 343 c 0
 244 298 266 98 266 79 c 0
 266 38 262 36 236 32 c 0
 227 31 214 30 202 30 c 0
 187 30 84 34 84 42 c 0
 84 44 85 45 87 48 c 0
 89 52 97 55 124 55 c 0
 142 55 183 52 223 52 c 0
 240 52 242 55 242 67 c 0
 242 100 227 264 218 328 c 0
 216 343 215 359 215 369 c 0
56 44 m 0
 56 49 62 54 66 54 c 0
 71 54 75 49 75 44 c 0
 75 39 71 34 66 34 c 0
 61 34 56 39 56 44 c 0
EndSplineSet
EndChar

StartChar: whitecornerbracketleft
Encoding: 8536 12302 55
Width: 500
VWidth: 0
Flags: MW
LayerCount: 2
Fore
SplineSet
440 486 m 0
 452 486 459 428 459 394 c 0
 459 370 450 370 407 370 c 0
 403 370 399 370 394 370 c 2
 350 370 l 1
 352 298 l 2
 355 212 360 165 367 165 c 0
 370 165 370 161 368 155 c 0
 366 150 365 123 363 98 c 0
 361 50 354 35 331 35 c 0
 315 35 297 39 275 41 c 0
 258 43 244 46 242 49 c 0
 240 51 239 117 237 194 c 0
 236 272 231 353 228 375 c 0
 226 390 225 404 225 416 c 0
 225 425 226 434 227 441 c 2
 232 467 l 1
 297 471 l 2
 333 473 378 476 396 478 c 0
 414 479 431 480 433 482 c 0
 436 485 438 486 440 486 c 0
390 455 m 0
 357 455 328 449 292 449 c 0
 260 449 256 448 253 437 c 0
 251 429 250 418 250 410 c 0
 250 403 251 397 253 395 c 0
 257 391 261 69 262 66 c 0
 262 66 304 63 316 63 c 0
 331 63 332 65 333 75 c 0
 334 93 335 124 335 150 c 0
 335 176 334 199 333 204 c 0
 327 222 316 320 316 345 c 0
 316 348 317 350 317 351 c 0
 320 354 319 367 319 377 c 0
 319 392 327 400 339 400 c 0
 342 400 345 400 348 399 c 0
 357 397 374 396 390 396 c 0
 411 396 432 397 435 400 c 0
 437 402 438 406 438 411 c 0
 438 416 437 421 436 428 c 0
 432 451 431 451 408 454 c 0
 403 455 397 455 390 455 c 0
EndSplineSet
EndChar

StartChar: whitecornerbracketright
Encoding: 8537 12303 56
Width: 500
VWidth: 0
Flags: MW
LayerCount: 2
Fore
SplineSet
163 455 m 0
 163 468 176 472 192 472 c 0
 200 472 211 470 217 470 c 0
 220 469 224 466 224 462 c 0
 224 457 227 456 233 456 c 0
 245 456 250 433 250 380 c 0
 250 370 250 365 250 353 c 0
 250 300 253 168 253 107 c 0
 253 64 251 63 243 59 c 0
 226 50 133 41 77 41 c 0
 55 41 38 43 35 46 c 0
 33 48 33 75 32 106 c 0
 32 159 32 161 42 162 c 0
 58 163 70 164 83 164 c 0
 97 164 111 164 131 162 c 2
 172 158 l 1
 168 197 l 2
 163 251 159 254 159 313 c 0
 159 365 162 430 167 433 c 0
 175 439 163 448 163 455 c 0
226 139 m 0
 226 164 231 176 231 206 c 0
 231 244 228 288 227 346 c 0
 226 390 226 430 225 437 c 0
 224 446 221 449 208 449 c 0
 199 449 190 445 189 442 c 0
 185 429 180 344 180 303 c 0
 180 291 180 283 181 281 c 0
 186 271 190 219 190 181 c 0
 190 159 189 142 186 140 c 0
 183 138 172 138 159 138 c 0
 139 138 110 139 89 140 c 2
 58 141 l 1
 60 107 l 2
 61 88 64 71 67 69 c 0
 69 67 79 67 92 67 c 0
 135 67 219 74 226 80 c 0
 229 82 230 86 230 92 c 0
 230 104 226 125 226 139 c 0
EndSplineSet
EndChar

StartChar: blacklenticularbracketleft
Encoding: 8538 12304 57
Width: 500
VWidth: 0
Flags: MW
LayerCount: 2
Fore
SplineSet
284 113 m 0
 284 185 280 311 280 385 c 0
 280 413 280 435 281 446 c 2
 284 493 l 1
 334 492 l 2
 339 492 344 492 349 492 c 0
 372 492 393 494 400 496 c 0
 406 498 417 499 429 499 c 0
 448 499 479 497 479 490 c 0
 479 486 471 476 459 465 c 0
 429 438 408 385 394 308 c 0
 393 301 392 292 392 282 c 0
 392 249 398 206 408 183 c 0
 439 109 455 80 476 63 c 0
 487 54 495 44 495 40 c 0
 495 35 454 34 411 34 c 0
 356 34 293 36 287 40 c 0
 282 43 281 52 283 70 c 0
 284 75 284 91 284 113 c 0
EndSplineSet
EndChar

StartChar: blacklenticularbracketright
Encoding: 8539 12305 58
Width: 500
VWidth: 0
Flags: MW
LayerCount: 2
Fore
SplineSet
139 376 m 0
 139 379 92 454 92 457 c 0
 92 464 69 481 74 492 c 0
 76 497 81 500 101 500 c 0
 126 500 220 496 230 496 c 0
 251 496 257 488 257 439 c 0
 257 412 252 341 252 341 c 0
 252 333 255 303 260 269 c 0
 266 226 269 158 269 105 c 0
 269 64 267 33 263 29 c 0
 261 27 255 26 246 26 c 0
 237 26 225 27 211 29 c 0
 185 32 137 33 106 33 c 0
 93 33 84 33 76 33 c 0
 55 33 50 34 50 39 c 0
 50 49 56 58 63 62 c 0
 82 71 111 108 139 159 c 2
 167 209 l 1
 164 268 l 2
 162 312 159 332 151 349 c 0
 145 361 139 373 139 376 c 0
EndSplineSet
EndChar

StartChar: plusmonospace
Encoding: 8540 65291 59
Width: 500
VWidth: 0
Flags: MW
LayerCount: 2
Fore
SplineSet
240 286 m 0
 240 289 233 394 233 414 c 0
 233 429 235 432 239 432 c 0
 255 432 255 417 262 313 c 2
 266 258 l 1
 288 262 l 2
 314 266 376 268 402 272 c 0
 404 272 407 272 409 272 c 0
 422 272 434 266 434 260 c 0
 434 251 403 249 366 245 c 0
 271 234 266 234 263 221 c 0
 261 213 261 113 257 106 c 0
 254 102 263 87 263 80 c 0
 263 72 258 65 250 65 c 0
 239 65 237 67 237 96 c 0
 237 108 237 125 238 150 c 2
 240 232 l 1
 222 235 l 2
 212 237 198 238 189 238 c 0
 186 238 182 238 179 238 c 0
 137 238 73 244 69 248 c 0
 67 250 66 253 66 256 c 0
 66 263 70 271 75 268 c 0
 76 267 181 261 208 261 c 0
 236 261 240 264 240 275 c 0
 240 278 240 282 240 286 c 0
EndSplineSet
EndChar

StartChar: minus
Encoding: 8541 8722 60
Width: 500
VWidth: 0
Flags: MW
LayerCount: 2
Fore
SplineSet
226 272 m 0
 253 272 273 269 323 269 c 0
 331 269 338 269 346 269 c 0
 390 269 426 268 426 265 c 0
 426 251 408 248 294 246 c 0
 229 245 153 243 125 241 c 0
 111 240 100 239 91 239 c 0
 80 239 74 240 74 241 c 0
 75 253 85 258 121 262 c 0
 160 266 188 272 226 272 c 0
EndSplineSet
EndChar

StartChar: plusminus
Encoding: 8542 177 61
Width: 500
VWidth: 0
Flags: MW
LayerCount: 2
Fore
SplineSet
207 440 m 0
 207 452 208 459 216 459 c 0
 232 459 232 421 232 399 c 0
 232 379 233 368 243 368 c 0
 250 368 262 369 274 371 c 0
 292 374 316 376 337 376 c 0
 363 376 384 376 384 364 c 0
 384 357 371 353 346 353 c 0
 328 353 298 350 277 347 c 2
 240 341 l 1
 241 278 l 2
 242 243 245 211 248 206 c 0
 252 198 246 187 237 187 c 0
 227 187 222 210 219 266 c 0
 217 301 213 333 210 337 c 0
 207 341 195 343 169 343 c 0
 159 343 145 342 134 342 c 0
 100 342 79 342 79 355 c 0
 79 372 189 364 207 369 c 0
 209 369 210 376 210 385 c 0
 210 400 207 426 207 440 c 0
108 95 m 0
 95 95 79 92 79 104 c 0
 79 108 82 113 86 115 c 0
 90 118 117 119 148 120 c 0
 213 120 320 140 378 140 c 0
 405 140 421 136 421 128 c 0
 421 127 420 124 419 123 c 0
 417 120 378 115 331 112 c 0
 216 103 228 95 108 95 c 0
EndSplineSet
EndChar

StartChar: multiply
Encoding: 8543 215 62
Width: 500
VWidth: 0
Flags: MW
LayerCount: 2
Fore
SplineSet
95 386 m 0
 100 386 139 343 145 343 c 0
 148 343 166 327 185 306 c 2
 220 268 l 1
 243 297 l 2
 273 334 276 329 303 366 c 0
 314 380 325 391 328 391 c 0
 333 391 335 388 335 383 c 0
 335 372 323 351 304 333 c 0
 283 314 243 261 243 253 c 0
 243 245 260 233 362 175 c 0
 390 159 412 139 412 130 c 0
 412 124 409 120 405 120 c 0
 400 120 393 124 384 132 c 0
 358 154 341 156 309 177 c 0
 253 213 232 225 222 225 c 0
 220 225 218 224 217 223 c 0
 211 219 107 94 99 92 c 0
 98 92 97 92 96 92 c 0
 92 92 91 94 91 97 c 0
 91 104 98 116 112 132 c 0
 147 174 201 244 201 248 c 0
 201 251 194 259 185 268 c 0
 176 276 164 290 158 299 c 0
 152 308 140 320 131 324 c 0
 107 336 88 356 88 370 c 0
 88 377 93 386 95 386 c 0
EndSplineSet
EndChar

StartChar: divide
Encoding: 8544 247 63
Width: 500
VWidth: 0
Flags: MW
LayerCount: 2
Fore
SplineSet
243 410 m 0
 243 404 236 399 231 399 c 0
 223 399 213 407 206 422 c 0
 196 441 204 446 212 454 c 0
 213 454 220 445 229 433 c 0
 238 421 243 415 243 410 c 0
416 270 m 0
 387 270 338 278 315 278 c 0
 280 278 171 267 143 260 c 0
 131 257 105 253 86 251 c 0
 75 250 67 249 62 249 c 0
 52 249 50 252 50 257 c 0
 50 263 53 264 58 262 c 0
 62 260 69 263 73 267 c 0
 86 278 133 280 153 286 c 0
 190 294 222 299 277 299 c 0
 318 299 397 296 419 295 c 0
 442 294 450 291 450 282 c 0
 450 274 438 270 416 270 c 0
224 160 m 0
 224 166 226 169 229 169 c 0
 233 169 240 166 251 158 c 0
 264 150 271 138 271 130 c 0
 271 126 269 122 263 122 c 0
 250 122 224 148 224 160 c 0
EndSplineSet
EndChar

StartChar: equalmonospace
Encoding: 8545 65309 64
Width: 500
VWidth: 0
Flags: MW
LayerCount: 2
Fore
SplineSet
188 361 m 0
 212 366 360 377 391 377 c 0
 414 377 420 375 420 369 c 0
 420 367 420 364 419 362 c 0
 416 355 389 352 260 346 c 0
 196 343 193 333 127 333 c 0
 82 333 78 333 78 343 c 0
 78 355 77 355 128 356 c 0
 149 357 175 359 188 361 c 0
193 238 m 0
 229 238 320 256 353 256 c 0
 375 256 410 254 419 251 c 0
 422 250 426 245 426 240 c 0
 426 232 421 230 375 230 c 0
 327 230 210 219 149 207 c 0
 128 203 103 201 88 201 c 0
 79 201 74 202 74 211 c 0
 74 217 77 222 82 222 c 0
 120 223 152 238 193 238 c 0
EndSplineSet
EndChar

StartChar: notequal
Encoding: 8546 8800 65
Width: 500
VWidth: 0
Flags: MW
LayerCount: 2
Fore
SplineSet
166 341 m 0
 181 341 199 340 213 340 c 0
 231 340 244 341 247 343 c 0
 251 346 256 358 259 372 c 0
 261 385 267 409 271 425 c 0
 278 447 282 454 290 454 c 0
 296 454 300 453 300 446 c 0
 300 437 279 370 279 360 c 0
 279 347 289 345 318 345 c 0
 326 345 336 346 347 346 c 0
 407 346 424 344 424 335 c 0
 424 325 417 323 401 323 c 0
 396 323 389 323 383 323 c 0
 365 323 338 322 316 320 c 0
 267 316 264 314 256 272 c 0
 254 264 252 252 250 245 c 2
 247 232 l 1
 344 235 l 2
 365 235 382 235 396 235 c 0
 433 235 445 233 449 229 c 0
 451 226 452 224 452 222 c 0
 452 213 427 210 352 209 c 0
 302 208 256 208 250 207 c 0
 241 206 235 197 219 151 c 0
 208 121 198 89 196 80 c 0
 193 65 183 55 176 55 c 0
 172 55 168 58 168 64 c 0
 168 78 178 113 198 164 c 0
 204 179 207 192 207 198 c 0
 207 204 197 202 181 202 c 0
 154 202 103 200 76 200 c 0
 53 200 44 198 56 213 c 0
 62 221 72 224 125 226 c 0
 229 231 217 225 231 267 c 0
 237 285 240 303 240 309 c 0
 240 315 219 315 190 315 c 0
 158 315 116 313 83 309 c 0
 73 308 65 308 59 308 c 0
 52 308 48 309 48 310 c 0
 48 321 57 328 69 329 c 0
 76 329 93 332 107 336 c 0
 120 339 141 341 166 341 c 0
EndSplineSet
EndChar

StartChar: lessmonospace
Encoding: 8547 65308 66
Width: 500
VWidth: 0
Flags: MW
LayerCount: 2
Fore
SplineSet
430 42 m 0
 430 37 426 33 422 33 c 0
 417 33 409 38 397 49 c 0
 388 58 375 65 371 65 c 0
 367 65 348 77 330 93 c 0
 306 114 286 126 260 135 c 0
 223 148 207 156 148 191 c 0
 129 202 104 217 92 223 c 0
 76 232 70 235 70 239 c 0
 70 242 72 244 77 249 c 0
 87 260 151 307 157 307 c 0
 159 307 169 315 180 324 c 0
 207 347 232 367 239 370 c 0
 264 382 333 425 348 439 c 0
 358 448 374 462 382 468 c 0
 393 476 401 480 407 480 c 0
 413 480 416 476 416 468 c 0
 416 460 409 452 394 443 c 0
 382 436 365 424 354 415 c 0
 334 398 312 384 272 362 c 0
 258 355 235 339 222 328 c 0
 209 317 178 295 154 280 c 0
 130 265 111 250 111 246 c 0
 111 242 122 233 136 225 c 0
 175 203 219 175 267 157 c 1
 319 139 348 106 390 79 c 0
 418 62 430 50 430 42 c 0
EndSplineSet
EndChar

StartChar: greatermonospace
Encoding: 8548 65310 67
Width: 500
VWidth: 0
Flags: MW
LayerCount: 2
Fore
SplineSet
70 39 m 0
 66 39 57 48 57 52 c 0
 57 55 60 58 64 63 c 0
 69 69 89 81 108 89 c 0
 151 108 270 173 284 186 c 0
 299 200 368 243 384 256 c 0
 398 268 399 270 392 277 c 0
 378 291 264 365 257 365 c 0
 253 365 237 373 220 382 c 0
 175 407 160 415 131 431 c 0
 96 449 81 462 73 478 c 0
 70 483 68 487 68 489 c 0
 68 490 68 490 69 490 c 0
 73 490 91 479 139 452 c 0
 166 436 217 409 250 392 c 0
 302 365 349 335 408 292 c 0
 415 287 425 282 431 280 c 0
 439 278 443 274 443 270 c 0
 443 266 438 262 430 259 c 0
 422 256 409 247 401 240 c 0
 393 232 379 221 369 215 c 0
 359 209 335 193 317 180 c 0
 275 151 210 113 142 79 c 0
 113 64 85 50 80 45 c 0
 76 41 72 39 70 39 c 0
EndSplineSet
EndChar

StartChar: lessoverequal
Encoding: 8549 8806 68
Width: 500
VWidth: 0
Flags: MW
LayerCount: 2
Fore
SplineSet
218 412 m 0
 222 412 290 443 295 444 c 0
 298 444 318 451 338 459 c 0
 360 468 377 473 388 473 c 0
 395 473 402 471 402 466 c 0
 402 458 353 433 338 433 c 0
 327 433 248 403 189 375 c 0
 165 363 144 354 141 354 c 0
 138 354 135 351 135 347 c 0
 135 343 151 335 176 328 c 0
 219 316 268 292 306 280 c 0
 318 276 342 268 360 261 c 0
 378 254 396 249 400 249 c 0
 409 249 418 239 418 232 c 0
 418 227 414 225 409 225 c 0
 403 225 394 227 382 232 c 0
 332 249 323 253 264 275 c 0
 235 286 205 297 198 299 c 0
 143 313 82 336 82 342 c 0
 82 348 206 412 218 412 c 0
236 188 m 0
 321 188 401 188 401 180 c 0
 401 170 371 166 284 166 c 0
 269 166 253 166 235 166 c 0
 136 167 117 168 117 175 c 0
 117 179 123 184 130 186 c 0
 136 188 180 188 236 188 c 0
143 110 m 0
 164 113 231 115 293 115 c 0
 401 114 406 114 406 105 c 0
 406 96 401 95 309 93 c 0
 255 92 188 90 160 88 c 0
 145 87 134 87 126 87 c 0
 114 87 109 87 109 90 c 0
 109 93 108 98 108 100 c 0
 108 102 124 107 143 110 c 0
EndSplineSet
EndChar

StartChar: greateroverequal
Encoding: 8550 8807 69
Width: 500
VWidth: 0
Flags: MW
LayerCount: 2
Fore
SplineSet
378 360 m 0
 380 360 382 360 383 360 c 0
 388 360 391 361 391 363 c 0
 391 366 385 369 374 371 c 0
 314 382 251 406 204 426 c 0
 194 430 177 432 168 433 c 0
 145 433 70 468 70 478 c 0
 70 483 75 485 79 485 c 0
 85 485 97 481 115 472 c 0
 131 465 154 459 167 457 c 0
 190 454 206 449 238 436 c 0
 308 407 328 401 391 390 c 1
 423 383 435 377 435 367 c 0
 435 362 430 359 420 359 c 0
 412 359 400 355 393 350 c 0
 381 341 268 291 259 291 c 0
 255 291 212 274 151 250 c 0
 132 242 113 234 109 230 c 0
 105 227 100 226 95 226 c 0
 80 226 65 239 84 247 c 1
 107 259 147 276 177 286 c 0
 220 300 302 332 335 348 c 0
 350 355 369 360 378 360 c 0
364 185 m 0
 390 185 414 185 414 175 c 0
 414 167 398 163 368 162 c 0
 306 160 123 144 101 138 c 0
 92 136 86 135 80 135 c 0
 70 135 65 138 65 144 c 0
 65 163 114 168 225 173 c 0
 267 175 307 178 314 181 c 0
 323 184 344 185 364 185 c 0
377 111 m 0
 386 112 394 113 401 113 c 0
 419 113 430 108 430 101 c 0
 430 82 199 81 134 77 c 0
 115 76 101 76 91 76 c 0
 74 76 68 78 68 82 c 0
 68 84 69 86 71 89 c 0
 75 95 157 102 270 105 c 0
 311 106 358 108 377 111 c 0
EndSplineSet
EndChar

StartChar: infinity
Encoding: 8551 8734 70
Width: 500
VWidth: 0
Flags: MW
LayerCount: 2
Fore
SplineSet
111 170 m 0
 59 170 29 193 29 243 c 0
 29 257 32 273 37 287 c 0
 50 322 66 337 101 349 c 0
 114 353 122 355 130 355 c 0
 146 355 165 347 180 343 c 0
 205 337 216 314 231 297 c 2
 242 283 l 1
 260 299 l 2
 289 326 331 354 352 357 c 0
 367 360 374 363 383 363 c 0
 394 363 415 360 428 356 c 0
 446 351 465 308 468 269 c 2
 471 233 l 1
 440 203 l 2
 415 179 406 173 392 173 c 0
 362 173 291 199 265 220 c 0
 252 230 239 238 237 238 c 0
 235 238 228 233 221 226 c 0
 200 207 170 185 151 177 c 0
 139 172 125 170 111 170 c 0
443 265 m 0
 443 305 424 343 387 343 c 0
 379 343 369 340 355 336 c 0
 321 325 259 277 259 261 c 0
 259 246 299 220 341 207 c 0
 364 201 374 198 383 198 c 0
 391 198 396 201 407 205 c 0
 434 216 443 232 443 265 c 0
154 329 m 0
 140 334 127 338 126 338 c 0
 122 338 96 323 84 315 c 0
 67 303 54 265 54 237 c 0
 54 227 56 218 59 212 c 0
 64 202 95 192 118 192 c 0
 122 192 125 192 128 193 c 0
 148 197 221 249 221 263 c 0
 221 280 182 319 154 329 c 0
EndSplineSet
EndChar

StartChar: therefore
Encoding: 8552 8756 71
Width: 500
VWidth: 0
Flags: MW
LayerCount: 2
Fore
SplineSet
216 442 m 0
 216 448 222 454 225 454 c 0
 235 454 255 425 255 415 c 0
 255 410 252 407 246 407 c 0
 235 407 216 430 216 442 c 0
75 159 m 0
 83 159 98 154 105 154 c 0
 110 154 114 152 114 148 c 0
 114 145 117 137 122 132 c 0
 131 121 128 112 114 112 c 0
 106 112 88 130 74 153 c 0
 73 155 73 156 73 157 c 0
 73 158 73 159 75 159 c 0
391 145 m 0
 391 153 400 159 405 159 c 0
 414 159 427 141 427 129 c 0
 427 122 423 117 414 117 c 0
 403 117 391 134 391 145 c 0
EndSplineSet
EndChar

StartChar: male
Encoding: 8553 9794 72
Width: 500
VWidth: 0
Flags: MW
LayerCount: 2
Fore
SplineSet
221 496 m 0
 224 496 228 489 228 483 c 0
 228 475 219 465 178 422 c 0
 157 400 135 374 129 363 c 0
 123 352 117 347 112 347 c 0
 107 347 104 352 104 362 c 0
 104 370 118 389 145 418 c 0
 168 442 193 470 201 479 c 0
 211 490 217 496 221 496 c 0
227 459 m 0
 227 472 236 474 236 486 c 0
 236 492 241 494 249 494 c 0
 261 494 278 489 291 478 c 0
 313 460 349 437 368 418 c 0
 375 412 385 404 390 400 c 0
 394 397 396 392 396 387 c 0
 396 381 393 375 387 375 c 0
 384 375 369 385 354 398 c 0
 295 444 270 462 260 462 c 0
 256 462 255 460 255 455 c 0
 255 445 257 420 258 388 c 2
 260 336 l 1
 301 315 l 2
 374 277 401 239 401 177 c 0
 401 135 390 113 353 76 c 0
 318 42 298 33 257 33 c 0
 224 33 157 54 139 69 c 0
 119 86 99 131 99 157 c 0
 99 189 125 266 142 284 c 0
 156 299 197 324 209 325 c 0
 234 327 236 327 236 356 c 0
 236 358 236 360 236 363 c 0
 236 382 233 413 230 432 c 0
 228 444 227 453 227 459 c 0
285 293 m 0
 269 300 254 306 252 306 c 0
 250 305 237 304 222 302 c 0
 168 295 136 251 123 166 c 0
 122 161 121 156 121 152 c 0
 121 141 126 134 138 115 c 0
 165 75 203 60 270 60 c 0
 285 60 294 62 303 67 c 0
 326 79 357 111 368 136 c 0
 375 151 378 173 378 192 c 0
 378 204 377 214 374 220 c 0
 363 241 315 280 285 293 c 0
EndSplineSet
EndChar

StartChar: female
Encoding: 8554 9792 73
Width: 500
VWidth: 0
Flags: MW
LayerCount: 2
Fore
SplineSet
201 189 m 0
 221 189 232 193 232 207 c 0
 232 218 221 227 201 230 c 0
 157 237 130 249 115 268 c 0
 103 283 101 293 98 332 c 0
 97 345 97 355 97 363 c 0
 97 380 99 387 107 400 c 0
 128 434 161 475 168 475 c 0
 172 475 177 479 181 483 c 0
 185 487 193 491 199 491 c 0
 217 491 218 501 236 503 c 0
 242 504 248 504 256 504 c 0
 284 504 313 500 333 487 c 0
 341 481 350 475 353 475 c 0
 365 475 385 443 396 408 c 0
 402 389 405 379 405 372 c 0
 405 366 402 361 398 353 c 0
 393 344 385 330 381 322 c 0
 361 286 338 265 299 246 c 0
 267 231 261 228 261 218 c 0
 261 200 263 199 297 196 c 0
 308 195 328 194 350 194 c 0
 377 194 418 196 441 196 c 0
 462 196 465 194 465 189 c 0
 465 184 463 180 460 178 c 0
 457 176 412 174 361 172 c 0
 274 170 267 170 259 159 c 0
 254 153 251 145 253 142 c 0
 257 136 271 57 272 36 c 0
 273 23 270 18 260 18 c 0
 253 18 250 23 246 37 c 0
 243 48 240 61 240 65 c 0
 239 69 237 92 233 117 c 2
 226 162 l 1
 197 161 l 2
 175 160 92 155 59 155 c 0
 42 155 35 155 35 164 c 0
 35 172 47 178 62 178 c 0
 68 178 73 177 80 177 c 0
 103 177 178 190 192 190 c 0
 195 190 198 189 201 189 c 0
242 477 m 0
 222 477 216 465 199 465 c 0
 187 465 173 453 150 425 c 0
 128 398 117 366 117 337 c 0
 117 312 126 290 143 275 c 0
 156 264 213 248 238 248 c 0
 284 248 335 286 362 335 c 0
 371 351 375 365 375 379 c 0
 375 392 371 405 363 423 c 0
 349 455 331 466 286 472 c 0
 266 475 252 477 242 477 c 0
EndSplineSet
EndChar

StartChar: degree
Encoding: 8555 176 74
Width: 500
VWidth: 0
Flags: MW
LayerCount: 2
Fore
SplineSet
55 422 m 0
 55 467 61 480 98 498 c 0
 116 507 128 511 138 511 c 0
 149 511 158 506 172 497 c 0
 206 474 224 446 224 413 c 0
 224 371 191 345 140 345 c 0
 128 345 119 349 101 357 c 0
 64 374 55 386 55 422 c 0
201 418 m 0
 201 447 191 459 169 472 c 0
 154 480 146 485 138 485 c 0
 130 485 122 480 108 473 c 0
 85 461 79 454 79 428 c 0
 79 406 86 383 98 375 c 0
 107 368 130 363 144 363 c 0
 150 363 155 364 156 366 c 0
 158 369 166 372 174 375 c 0
 190 379 201 396 201 418 c 0
EndSplineSet
EndChar

StartChar: minute
Encoding: 8556 8242 75
Width: 500
VWidth: 0
Flags: MW
LayerCount: 2
Fore
SplineSet
78 338 m 0
 78 347 118 427 118 433 c 0
 118 438 121 450 124 459 c 0
 128 472 133 475 143 475 c 0
 151 475 154 473 154 470 c 0
 154 464 149 451 145 437 c 0
 138 410 112 356 97 338 c 0
 92 331 89 329 86 329 c 0
 82 329 78 333 78 338 c 0
EndSplineSet
EndChar

StartChar: second
Encoding: 8557 8243 76
Width: 500
VWidth: 0
Flags: MW
LayerCount: 2
Fore
SplineSet
235 500 m 0
 238 504 242 506 245 506 c 0
 248 506 252 503 254 498 c 0
 257 489 214 355 207 350 c 0
 203 348 195 351 195 358 c 0
 195 382 224 485 235 500 c 0
126 479 m 0
 133 486 138 491 141 491 c 0
 142 491 142 490 142 489 c 0
 142 488 142 485 140 482 c 0
 137 477 129 453 121 428 c 0
 100 363 93 349 84 349 c 0
 79 349 77 350 77 355 c 0
 77 362 81 375 89 405 c 0
 102 450 106 456 126 479 c 0
EndSplineSet
EndChar

StartChar: centigrade
Encoding: 8558 8451 77
Width: 500
VWidth: 0
Flags: MW
LayerCount: 2
Fore
SplineSet
121 347 m 0
 68 347 34 378 34 430 c 0
 34 442 37 449 49 467 c 0
 65 490 75 500 102 500 c 0
 123 500 140 490 159 466 c 0
 176 445 182 431 182 415 c 0
 182 374 157 347 121 347 c 0
163 414 m 0
 163 434 122 479 103 479 c 0
 99 479 96 478 91 477 c 0
 82 474 59 442 59 431 c 0
 59 413 76 385 91 380 c 0
 99 377 107 370 109 365 c 0
 112 356 113 355 129 364 c 0
 148 375 163 397 163 414 c 0
460 168 m 0
 463 168 466 165 466 163 c 0
 466 160 463 154 454 143 c 0
 410 88 328 50 264 50 c 0
 249 50 234 52 222 57 c 0
 193 69 184 76 162 109 c 0
 147 132 140 155 140 190 c 0
 140 208 144 223 156 259 c 0
 170 300 182 321 200 344 c 0
 214 361 225 375 227 375 c 0
 229 376 245 390 263 407 c 0
 281 424 304 442 313 446 c 0
 325 451 334 453 340 453 c 0
 354 453 346 438 364 448 c 0
 371 452 375 453 381 453 c 0
 410 453 447 410 447 387 c 0
 447 381 444 377 440 377 c 0
 434 377 427 384 424 394 c 0
 419 415 388 434 359 434 c 0
 323 433 303 423 264 385 c 0
 207 329 193 308 175 254 c 0
 164 222 161 208 161 192 c 0
 161 135 188 92 230 77 c 0
 238 74 252 73 266 73 c 0
 285 73 305 75 314 79 c 0
 320 82 341 92 361 101 c 0
 382 110 408 128 425 144 c 0
 442 160 454 168 460 168 c 0
EndSplineSet
EndChar

StartChar: yenmonospace
Encoding: 8559 65509 78
Width: 500
VWidth: 0
Flags: MW
LayerCount: 2
Fore
SplineSet
85 481 m 0
 85 483 87 488 91 488 c 0
 102 488 187 401 201 375 c 0
 214 350 244 323 255 323 c 0
 257 323 259 324 259 327 c 0
 259 331 289 367 347 431 c 0
 361 446 379 467 387 478 c 0
 396 489 403 494 408 494 c 0
 411 494 415 492 415 487 c 0
 415 479 393 450 329 380 c 0
 278 325 253 289 253 273 c 0
 253 258 285 260 308 260 c 0
 331 260 358 261 373 264 c 0
 390 267 397 267 401 261 c 0
 403 258 405 256 405 254 c 0
 405 246 384 243 328 240 c 2
 259 237 l 1
 259 209 l 2
 259 206 259 204 259 201 c 0
 259 171 260 167 304 167 c 0
 315 167 332 167 344 167 c 0
 380 167 413 171 404 151 c 0
 402 145 398 144 384 144 c 0
 372 144 342 146 327 146 c 0
 297 146 277 141 267 132 c 0
 264 130 262 112 261 93 c 0
 259 50 255 29 248 29 c 0
 243 29 241 39 241 57 c 0
 241 68 242 82 242 94 c 0
 242 108 241 121 240 126 c 2
 237 140 l 1
 169 136 l 2
 153 135 138 135 126 135 c 0
 106 135 97 133 97 142 c 0
 97 151 114 156 154 158 c 0
 181 159 212 160 221 162 c 0
 237 165 238 165 238 192 c 0
 238 235 239 235 157 235 c 0
 100 236 85 237 85 243 c 0
 85 248 86 249 92 244 c 0
 98 239 102 240 111 249 c 0
 119 257 124 259 146 259 c 0
 155 259 171 258 182 258 c 0
 225 258 227 256 234 281 c 0
 234 283 235 284 235 286 c 0
 235 296 228 307 207 336 c 0
 190 359 155 398 130 424 c 0
 98 456 85 472 85 481 c 0
EndSplineSet
EndChar

StartChar: dollarmonospace
Encoding: 8560 65284 79
Width: 500
VWidth: 0
Flags: MW
LayerCount: 2
Fore
SplineSet
224 151 m 0
 224 170 210 241 210 251 c 0
 210 262 208 264 165 266 c 0
 113 269 82 279 73 297 c 0
 71 301 70 305 70 310 c 0
 70 327 82 351 99 368 c 0
 116 385 129 392 188 418 c 2
 216 430 l 1
 216 466 l 2
 216 490 216 498 220 498 c 0
 224 498 231 493 234 493 c 0
 240 493 240 491 241 461 c 2
 242 441 l 1
 278 441 l 2
 327 440 388 421 396 403 c 0
 401 393 401 389 395 384 c 0
 390 379 388 380 386 385 c 0
 381 399 308 422 271 422 c 0
 241 422 237 416 233 352 c 2
 230 295 l 1
 306 297 l 2
 323 298 336 298 348 298 c 0
 394 298 405 292 426 268 c 0
 436 257 442 246 442 233 c 0
 442 219 435 203 422 183 c 0
 405 157 397 151 360 133 c 0
 325 115 311 111 282 110 c 2
 247 109 l 1
 248 65 l 2
 248 56 249 49 249 43 c 0
 249 24 247 20 242 20 c 0
 235 20 233 26 223 90 c 2
 220 107 l 1
 172 107 l 2
 120 108 107 112 74 139 c 0
 63 148 58 155 58 160 c 0
 58 163 62 168 68 168 c 0
 74 168 85 162 98 151 c 0
 121 132 125 131 165 129 c 0
 175 129 183 128 190 128 c 0
 215 128 224 132 224 151 c 0
175 288 m 0
 207 288 210 304 210 360 c 0
 210 390 208 401 204 401 c 0
 192 400 126 368 113 355 c 0
 100 343 93 327 93 316 c 0
 93 311 94 308 97 305 c 0
 105 297 150 288 175 288 c 0
406 258 m 0
 394 270 379 278 371 278 c 0
 369 278 367 278 366 277 c 0
 365 275 335 274 301 273 c 2
 239 272 l 1
 240 236 l 2
 240 215 242 184 245 165 c 2
 250 130 l 1
 284 132 l 2
 339 135 391 164 410 202 c 0
 416 214 420 223 420 231 c 0
 420 240 416 248 406 258 c 0
EndSplineSet
EndChar

StartChar: cent
Encoding: 8561 162 80
Width: 500
VWidth: 0
Flags: MW
LayerCount: 2
Fore
SplineSet
225 435 m 0
 225 470 225 483 238 483 c 0
 245 483 247 469 247 429 c 0
 247 401 249 375 251 372 c 0
 253 369 263 364 274 360 c 0
 292 354 336 312 336 301 c 0
 336 298 335 298 332 298 c 0
 324 298 308 306 292 320 c 0
 279 331 271 338 266 338 c 0
 259 338 258 326 258 298 c 0
 258 284 258 267 259 245 c 0
 262 150 266 128 282 128 c 0
 290 128 325 146 359 168 c 0
 369 175 377 178 382 178 c 0
 387 178 389 175 389 171 c 0
 389 165 384 157 371 147 c 0
 355 134 303 107 278 99 c 0
 270 97 268 90 268 59 c 0
 268 27 268 17 254 17 c 0
 247 17 246 27 245 60 c 2
 244 99 l 1
 223 103 l 2
 186 111 135 135 124 150 c 0
 115 162 111 183 111 205 c 0
 111 224 114 243 121 258 c 0
 145 309 167 336 198 351 c 2
 226 365 l 1
 225 421 l 2
 225 426 225 431 225 435 c 0
239 189 m 0
 238 201 232 342 229 342 c 0
 227 342 218 338 207 333 c 0
 165 315 131 249 131 202 c 0
 131 188 134 177 140 168 c 0
 151 153 208 128 232 128 c 0
 242 128 245 129 245 133 c 0
 245 134 245 136 244 138 c 0
 242 143 240 166 239 189 c 0
EndSplineSet
EndChar

StartChar: sterling
Encoding: 8562 163 81
Width: 500
VWidth: 0
Flags: MW
LayerCount: 2
Fore
SplineSet
204 122 m 0
 214 122 217 141 217 156 c 0
 217 182 204 230 200 249 c 2
 196 267 l 1
 144 271 l 2
 116 273 92 275 90 277 c 0
 89 279 90 284 94 289 c 0
 98 294 105 296 121 296 c 0
 126 296 131 295 138 295 c 2
 175 293 l 1
 173 315 l 1
 172 340 151 380 151 405 c 0
 151 423 158 437 172 453 c 0
 183 465 195 475 198 475 c 0
 201 475 206 479 210 483 c 0
 214 487 227 494 241 498 c 0
 257 503 263 506 268 506 c 0
 273 506 275 503 278 498 c 0
 283 489 284 489 289 498 c 0
 292 504 297 506 304 506 c 0
 312 506 321 503 334 495 c 0
 368 476 378 465 378 444 c 2
 378 425 l 1
 362 442 l 2
 348 457 319 485 293 485 c 0
 253 485 200 460 183 439 c 0
 177 431 173 423 173 411 c 0
 173 386 190 341 196 320 c 1
 203 299 l 1
 251 295 l 2
 265 294 278 292 288 292 c 0
 301 292 310 294 316 296 c 0
 329 301 335 299 341 293 c 0
 345 289 346 287 346 284 c 0
 346 275 326 272 279 272 c 2
 223 272 l 1
 223 257 l 2
 224 244 240 177 240 159 c 0
 240 145 226 116 226 104 c 0
 226 92 234 85 252 72 c 0
 276 54 289 50 322 50 c 0
 370 50 416 73 434 107 c 0
 439 117 445 122 451 122 c 0
 455 122 461 118 461 112 c 0
 461 102 445 78 428 63 c 0
 402 40 358 25 315 25 c 0
 286 25 274 29 239 52 c 0
 227 60 221 66 215 66 c 0
 207 66 199 57 174 34 c 0
 162 23 157 20 146 20 c 0
 143 20 138 21 134 21 c 0
 81 28 77 30 58 57 c 0
 46 74 39 92 39 107 c 0
 39 142 72 169 121 169 c 0
 143 169 160 160 179 140 c 0
 191 127 199 122 204 122 c 0
152 135 m 0
 144 141 129 143 114 143 c 0
 89 143 76 137 68 117 c 0
 65 110 63 106 63 102 c 0
 63 96 67 89 73 77 c 0
 84 58 89 52 109 47 c 0
 122 44 133 39 134 35 c 0
 135 34 136 32 137 32 c 0
 140 32 145 35 151 40 c 0
 178 63 194 80 194 87 c 0
 193 95 170 122 152 135 c 0
63 285 m 0
 63 291 70 296 77 296 c 0
 81 296 83 296 83 295 c 0
 83 292 70 282 66 282 c 0
 64 282 63 283 63 285 c 0
EndSplineSet
EndChar

StartChar: percentmonospace
Encoding: 8563 65285 82
Width: 500
VWidth: 0
Flags: MW
LayerCount: 2
Fore
SplineSet
235 208 m 0
 231 208 228 212 228 216 c 0
 228 221 232 228 240 242 c 0
 260 272 279 311 300 338 c 0
 315 356 340 403 369 462 c 0
 377 479 388 497 392 502 c 0
 396 506 400 509 403 509 c 0
 405 509 l 0
 413 504 411 498 397 492 c 0
 379 484 391 480 391 466 c 0
 391 445 335 349 326 338 c 0
 311 319 273 256 273 250 c 0
 273 245 242 208 235 208 c 0
42 483 m 0
 61 501 66 506 78 506 c 0
 82 506 89 505 96 504 c 0
 159 496 189 461 189 398 c 0
 189 369 175 346 138 319 c 0
 118 304 104 297 90 297 c 0
 78 297 66 301 51 311 c 0
 32 324 25 331 19 352 c 0
 11 378 6 398 6 415 c 0
 6 442 17 460 42 483 c 0
31 404 m 0
 31 365 64 317 91 317 c 0
 106 317 152 351 158 368 c 0
 161 376 162 389 162 401 c 0
 162 453 137 473 91 479 c 0
 87 479 84 479 81 479 c 0
 55 479 31 429 31 404 c 0
227 204 m 0
 232 204 235 200 235 197 c 0
 235 192 228 182 212 160 c 0
 199 142 189 127 189 125 c 0
 189 123 165 87 121 22 c 0
 110 6 100 -4 94 -4 c 0
 88 -4 83 -2 83 1 c 0
 83 3 99 27 118 54 c 0
 159 112 158 122 196 173 c 0
 211 194 221 204 227 204 c 0
344 186 m 0
 363 198 371 201 387 201 c 0
 415 201 431 196 449 183 c 0
 470 167 494 131 494 115 c 0
 494 93 466 50 441 33 c 0
 418 18 411 16 369 13 c 2
 322 10 l 1
 301 29 l 2
 282 47 277 60 277 94 c 0
 277 132 295 155 344 186 c 0
429 165 m 0
 411 173 394 180 391 180 c 0
 381 180 334 150 319 135 c 0
 307 122 300 103 300 86 c 0
 300 73 304 61 311 52 c 0
 323 38 325 37 367 37 c 0
 414 37 427 43 453 71 c 0
 464 84 468 93 468 110 c 0
 468 143 464 149 429 165 c 0
EndSplineSet
EndChar

StartChar: numbersignmonospace
Encoding: 8564 65283 83
Width: 500
VWidth: 0
Flags: MW
LayerCount: 2
Fore
SplineSet
142 346 m 0
 127 346 102 341 89 341 c 0
 81 341 78 345 78 353 c 0
 78 364 101 370 140 370 c 2
 174 370 l 1
 178 395 l 2
 180 408 181 428 181 440 c 0
 181 453 185 465 190 471 c 0
 203 486 184 486 190 499 c 0
 192 504 196 506 200 506 c 0
 204 506 222 495 213 489 c 0
 210 487 208 475 208 463 c 0
 208 442 200 404 200 383 c 0
 200 380 201 378 201 377 c 0
 204 370 261 365 299 365 c 0
 316 365 328 366 330 369 c 0
 332 371 336 394 339 420 c 0
 342 446 347 476 350 485 c 0
 355 500 357 501 366 495 c 0
 374 490 376 485 373 475 c 0
 366 445 360 407 360 388 c 0
 360 381 360 377 362 376 c 0
 365 374 385 372 405 372 c 0
 441 372 444 372 444 356 c 0
 444 349 438 349 403 349 c 0
 362 349 361 348 360 337 c 0
 358 302 355 268 352 233 c 0
 351 221 350 212 350 206 c 0
 350 196 351 192 355 190 c 0
 359 187 381 186 404 186 c 0
 441 186 444 184 444 175 c 0
 444 163 444 163 389 162 c 2
 347 162 l 1
 344 133 l 2
 339 91 323 23 317 19 c 0
 315 18 313 17 311 17 c 0
 307 17 305 22 305 32 c 0
 305 41 306 54 310 71 c 0
 315 95 319 126 320 140 c 2
 321 166 l 1
 279 165 l 2
 230 164 193 159 181 153 c 0
 173 149 158 97 151 43 c 0
 148 22 144 13 136 13 c 0
 131 13 129 19 129 32 c 0
 129 47 133 71 140 102 c 0
 145 124 148 143 148 150 c 0
 148 155 133 155 116 155 c 0
 96 155 72 153 65 151 c 0
 58 149 56 149 56 151 c 0
 56 153 60 158 68 167 c 0
 80 179 84 181 116 182 c 2
 152 183 l 1
 158 238 l 2
 161 269 166 305 168 318 c 2
 171 342 l 1
 154 345 l 2
 151 345 147 346 142 346 c 0
289 340 m 2
 263 342 235 345 226 347 c 0
 222 348 219 348 216 348 c 0
 198 348 192 334 187 286 c 0
 183 245 180 219 180 204 c 0
 180 188 183 184 188 184 c 0
 201 184 315 192 322 198 c 0
 326 202 330 229 332 270 c 2
 335 337 l 1
 289 340 l 2
EndSplineSet
EndChar

StartChar: ampersandmonospace
Encoding: 8565 65286 84
Width: 500
VWidth: 0
Flags: MW
LayerCount: 2
Fore
SplineSet
417 25 m 0
 417 23 402 16 397 16 c 0
 390 16 382 21 363 38 c 0
 335 62 322 72 312 72 c 0
 305 72 299 68 289 59 c 0
 250 23 235 16 191 16 c 0
 152 16 139 18 121 30 c 0
 95 48 83 71 83 102 c 0
 83 119 87 138 94 159 c 0
 105 192 129 248 142 266 c 0
 147 273 146 279 139 292 c 0
 127 316 121 346 114 376 c 0
 112 385 110 395 110 403 c 0
 110 407 110 410 111 412 c 0
 119 439 169 483 206 483 c 0
 239 483 282 462 292 440 c 0
 295 433 297 426 297 418 c 0
 297 389 277 354 246 331 c 0
 201 297 177 277 177 271 c 0
 177 246 295 112 298 112 c 0
 304 112 352 193 365 225 c 0
 374 248 382 259 388 259 c 0
 398 259 402 240 395 230 c 0
 391 224 385 211 382 200 c 0
 379 189 365 163 350 140 c 2
 322 100 l 1
 337 89 l 2
 351 78 395 38 411 30 c 0
 415 28 417 26 417 25 c 0
273 412 m 0
 273 438 236 457 212 457 c 0
 191 457 135 430 135 400 c 0
 135 379 150 322 159 308 c 2
 167 297 l 1
 184 308 l 2
 242 347 273 384 273 412 c 0
188 206 m 0
 172 227 158 243 156 243 c 0
 145 243 104 130 104 99 c 0
 104 81 114 65 136 52 c 0
 146 46 170 43 191 43 c 0
 207 43 222 45 230 49 c 0
 247 58 282 85 282 90 c 0
 282 92 268 110 250 131 c 0
 232 152 204 185 188 206 c 0
EndSplineSet
EndChar

StartChar: asteriskmonospace
Encoding: 8566 65290 85
Width: 500
VWidth: 0
Flags: MW
LayerCount: 2
Fore
SplineSet
228 460 m 0
 228 471 228 490 233 490 c 0
 235 490 238 488 243 483 c 0
 249 477 251 457 252 393 c 0
 253 348 256 310 259 307 c 0
 260 306 261 306 262 306 c 0
 268 306 278 311 293 322 c 0
 309 333 331 345 342 349 c 0
 353 353 361 358 361 360 c 0
 361 367 390 379 402 379 c 0
 408 379 412 375 412 372 c 0
 412 366 399 358 365 341 c 0
 338 327 306 308 293 297 c 2
 269 277 l 1
 285 267 l 2
 323 244 371 210 371 206 c 0
 371 204 386 194 405 183 c 0
 428 170 439 160 439 153 c 0
 439 150 437 148 432 146 c 0
 423 142 389 170 383 170 c 0
 380 170 368 178 356 187 c 0
 310 224 274 248 265 248 c 0
 260 248 259 199 257 140 c 0
 255 83 252 34 250 31 c 0
 249 30 246 29 244 29 c 0
 233 29 234 50 234 100 c 0
 234 133 235 179 235 199 c 0
 235 242 233 249 229 249 c 0
 226 249 213 238 199 225 c 0
 153 182 101 136 89 131 c 0
 82 128 76 124 76 121 c 0
 76 119 73 117 69 117 c 0
 64 117 61 120 61 124 c 0
 61 131 68 142 81 152 c 0
 113 175 187 240 208 262 c 2
 226 281 l 1
 208 297 l 2
 198 305 181 316 171 320 c 0
 163 324 91 357 91 368 c 0
 91 372 96 377 101 377 c 0
 109 377 123 371 156 354 c 0
 186 339 215 324 220 321 c 0
 225 317 229 316 231 317 c 0
 231 318 232 322 232 328 c 0
 232 357 228 431 228 460 c 0
EndSplineSet
EndChar

StartChar: atmonospace
Encoding: 8567 65312 86
Width: 500
VWidth: 0
Flags: MW
LayerCount: 2
Fore
SplineSet
239 510 m 0
 264 512 279 516 284 516 c 0
 286 516 288 515 291 514 c 0
 296 512 310 511 323 510 c 0
 350 509 404 482 426 459 c 0
 444 440 452 414 452 384 c 0
 452 329 425 263 376 212 c 0
 350 185 343 180 328 180 c 0
 318 180 308 181 306 183 c 0
 300 189 309 201 320 201 c 0
 335 201 381 249 401 286 c 0
 415 311 422 344 422 372 c 0
 422 387 420 400 416 409 c 0
 411 419 405 428 402 428 c 0
 399 428 393 436 389 447 c 0
 383 461 374 469 356 477 c 0
 338 485 327 487 292 487 c 0
 285 487 277 487 267 487 c 0
 210 486 199 484 177 473 c 0
 135 451 91 403 82 367 c 0
 78 353 73 335 70 328 c 0
 62 309 59 267 59 226 c 0
 59 184 62 143 70 128 c 0
 73 122 76 114 76 109 c 0
 76 91 105 58 131 45 c 0
 151 35 177 31 205 31 c 0
 234 31 264 35 291 45 c 0
 313 53 335 59 340 59 c 0
 355 59 376 72 416 106 c 0
 438 125 452 134 459 134 c 0
 463 134 466 131 466 125 c 0
 466 121 449 104 430 86 c 0
 400 59 388 51 355 40 c 0
 333 33 312 28 307 28 c 0
 302 28 291 24 281 19 c 0
 268 12 243 9 217 9 c 0
 187 9 156 13 139 21 c 0
 126 27 113 33 110 33 c 0
 99 33 66 68 63 83 c 0
 61 91 55 109 49 122 c 0
 40 141 34 177 34 215 c 0
 34 239 37 265 41 286 c 0
 59 377 74 416 97 435 c 0
 105 442 113 452 115 458 c 0
 119 472 152 494 179 501 c 0
 190 505 217 508 239 510 c 0
294 228 m 0
 294 221 300 213 300 206 c 0
 300 199 296 195 290 195 c 0
 287 195 284 196 281 198 c 0
 273 203 269 201 257 190 c 0
 239 173 222 166 188 166 c 0
 176 166 169 169 158 178 c 0
 138 194 129 211 129 235 c 0
 129 250 133 267 140 289 c 0
 149 318 156 329 181 355 c 0
 205 379 216 386 229 386 c 0
 251 386 269 375 294 349 c 0
 311 331 315 325 315 306 c 0
 315 293 309 271 303 256 c 0
 297 242 294 234 294 228 c 0
236 366 m 0
 203 366 151 295 151 237 c 0
 151 214 160 198 178 189 c 0
 187 185 191 182 196 182 c 0
 202 182 207 186 219 192 c 0
 253 211 281 261 281 316 c 0
 281 329 278 333 268 344 c 0
 257 355 248 366 236 366 c 0
EndSplineSet
EndChar

StartChar: section
Encoding: 8568 167 87
Width: 500
VWidth: 0
Flags: MW
LayerCount: 2
Fore
SplineSet
181 350 m 0
 181 360 160 375 150 375 c 0
 146 375 136 380 128 386 c 0
 118 393 112 404 112 413 c 0
 112 419 114 424 120 426 c 0
 129 431 123 435 123 443 c 0
 123 461 151 484 199 503 c 0
 216 510 231 514 252 514 c 0
 267 514 286 512 313 509 c 0
 350 504 379 465 379 432 c 0
 379 418 365 392 356 392 c 0
 354 392 353 394 353 398 c 0
 353 409 359 429 359 436 c 0
 359 447 356 454 346 465 c 0
 332 480 327 482 280 487 c 2
 229 492 l 1
 195 477 l 2
 161 461 134 433 134 416 c 0
 134 401 202 370 236 370 c 0
 265 370 312 345 337 338 c 0
 353 334 365 325 380 308 c 0
 392 295 402 282 402 278 c 0
 402 255 379 217 365 217 c 0
 362 217 360 220 360 223 c 0
 360 235 380 255 380 268 c 0
 380 277 376 286 367 296 c 0
 344 321 288 339 237 339 c 0
 236 339 236 339 235 339 c 0
 187 338 169 332 147 307 c 0
 138 296 133 284 133 273 c 0
 133 262 138 252 148 245 c 0
 185 219 233 204 275 204 c 0
 292 204 309 206 323 211 c 0
 335 216 345 218 351 218 c 0
 356 218 359 216 359 213 c 0
 359 207 334 186 351 186 c 0
 355 186 369 178 383 169 c 0
 408 153 418 133 418 101 c 0
 418 84 389 40 369 28 c 0
 353 18 283 3 258 3 c 0
 255 3 252 2 251 3 c 0
 246 5 222 11 198 15 c 0
 141 25 82 56 82 74 c 0
 82 81 89 84 95 84 c 0
 101 84 108 82 114 76 c 0
 131 60 145 55 198 41 c 0
 229 33 253 28 274 28 c 0
 299 28 321 35 350 47 c 0
 372 56 397 91 397 113 c 0
 397 142 343 175 295 175 c 0
 267 175 209 190 173 207 c 0
 131 226 108 253 108 280 c 0
 108 298 118 316 139 331 c 0
 152 340 165 346 171 346 c 0
 173 346 175 345 176 345 c 0
 179 345 181 347 181 350 c 0
EndSplineSet
EndChar

StartChar: whitestar
Encoding: 8569 9734 88
Width: 500
VWidth: 0
Flags: MW
LayerCount: 2
Fore
SplineSet
134 324 m 0
 145 324 154 323 163 323 c 0
 180 323 183 332 199 391 c 0
 207 418 218 450 223 461 c 0
 229 473 234 480 240 480 c 0
 250 480 262 459 286 409 c 0
 305 370 324 334 328 330 c 0
 332 327 338 325 351 325 c 0
 372 325 401 329 424 329 c 0
 445 329 479 326 479 315 c 0
 479 309 472 301 457 290 c 0
 444 280 420 263 404 250 c 2
 375 227 l 1
 394 195 l 2
 415 158 434 110 456 76 c 0
 463 64 470 52 470 49 c 0
 470 45 465 43 459 43 c 0
 449 43 434 48 425 55 c 0
 417 61 404 66 396 67 c 0
 383 68 353 84 280 127 c 1
 259 139 l 1
 240 125 l 1
 210 101 167 57 134 33 c 0
 115 19 99 12 89 12 c 0
 84 12 81 15 81 19 c 0
 81 23 84 28 89 35 c 0
 93 41 96 52 96 60 c 0
 96 67 103 91 110 112 c 0
 117 134 127 164 131 180 c 0
 136 195 140 209 141 212 c 0
 146 219 114 252 92 263 c 0
 64 277 21 315 21 326 c 0
 21 333 35 331 50 326 c 0
 61 323 71 321 82 321 c 0
 99 321 116 324 134 324 c 0
274 385 m 0
 258 417 247 432 241 432 c 0
 239 432 237 431 236 427 c 0
 223 389 211 349 211 328 c 0
 211 322 213 321 221 321 c 0
 256 321 296 328 296 335 c 0
 295 338 286 361 274 385 c 0
345 298 m 0
 345 297 366 250 368 250 c 0
 373 250 420 285 422 291 c 0
 423 294 428 296 434 296 c 0
 439 296 444 298 444 301 c 0
 444 304 437 306 428 306 c 0
 370 306 345 299 345 298 c 0
162 295 m 0
 158 299 135 301 115 301 c 0
 99 301 86 300 86 297 c 0
 86 294 90 289 95 287 c 0
 100 285 114 277 126 269 c 0
 138 261 149 254 151 254 c 0
 155 254 163 282 163 292 c 0
 163 294 163 294 162 295 c 0
328 277 m 0
 316 296 317 300 291 300 c 0
 278 300 259 299 230 298 c 2
 193 296 l 1
 182 260 l 2
 177 244 175 231 175 223 c 0
 175 210 188 204 205 198 c 0
 219 193 239 184 248 179 c 0
 256 174 260 172 264 172 c 0
 269 172 273 175 282 181 c 0
 324 210 344 229 344 240 c 0
 344 246 336 263 328 277 c 0
370 188 m 0
 366 197 359 205 356 205 c 0
 352 205 336 196 319 183 c 0
 300 169 289 159 289 154 c 0
 289 151 293 149 300 149 c 0
 304 149 313 143 320 136 c 0
 338 117 400 86 418 86 c 0
 421 86 423 86 423 88 c 0
 423 90 413 110 401 132 c 0
 388 154 374 180 370 188 c 0
154 160 m 0
 154 147 139 133 139 119 c 0
 139 113 135 104 131 98 c 0
 126 92 123 76 123 65 c 0
 123 59 124 54 126 54 c 0
 127 54 232 144 232 149 c 0
 232 151 228 158 222 163 c 0
 213 171 186 187 170 187 c 0
 161 187 154 169 154 160 c 0
EndSplineSet
EndChar

StartChar: blackstar
Encoding: 8570 9733 89
Width: 500
VWidth: 0
Flags: MW
LayerCount: 2
Fore
SplineSet
134 324 m 0
 145 324 154 323 163 323 c 0
 180 323 183 332 199 391 c 0
 207 418 218 450 223 461 c 0
 229 473 234 480 240 480 c 0
 250 480 262 459 286 409 c 0
 305 370 324 334 328 330 c 0
 332 327 338 325 351 325 c 0
 372 325 401 329 424 329 c 0
 445 329 479 326 479 315 c 0
 479 309 472 301 457 290 c 0
 444 280 420 263 404 250 c 2
 375 227 l 1
 394 195 l 2
 415 158 434 110 456 76 c 0
 463 64 470 52 470 49 c 0
 470 45 465 43 459 43 c 0
 449 43 434 48 425 55 c 0
 417 61 404 66 396 67 c 0
 383 68 353 84 280 127 c 1
 259 139 l 1
 240 125 l 1
 210 101 167 57 134 33 c 0
 115 19 99 12 89 12 c 0
 84 12 81 15 81 19 c 0
 81 23 84 28 89 35 c 0
 93 41 96 52 96 60 c 0
 96 67 103 91 110 112 c 0
 117 134 127 164 131 180 c 0
 136 195 140 209 141 212 c 0
 146 219 114 252 92 263 c 0
 64 277 21 315 21 326 c 0
 21 333 35 331 50 326 c 0
 61 323 71 321 82 321 c 0
 99 321 116 324 134 324 c 0
EndSplineSet
EndChar

StartChar: whitecircle
Encoding: 8571 9675 90
Width: 500
VWidth: 0
Flags: MW
LayerCount: 2
Fore
SplineSet
73 430 m 0
 97 458 186 473 257 473 c 0
 294 473 329 471 349 465 c 0
 403 450 449 397 470 326 c 0
 475 307 478 296 478 281 c 0
 478 270 476 256 474 235 c 0
 467 173 466 169 430 123 c 0
 379 59 317 41 198 41 c 0
 125 41 103 53 64 98 c 0
 37 129 22 180 22 235 c 0
 22 276 36 327 41 359 c 0
 45 384 58 413 73 430 c 0
320 448 m 0
 300 451 272 453 247 453 c 0
 224 453 204 452 194 449 c 0
 167 441 154 444 123 432 c 0
 90 420 71 397 65 363 c 0
 63 352 60 343 58 343 c 0
 54 343 50 294 50 225 c 0
 50 169 51 166 67 138 c 0
 86 104 116 78 142 73 c 0
 156 70 216 66 247 66 c 0
 294 66 329 73 356 89 c 0
 380 103 429 152 440 171 c 0
 448 186 455 244 455 277 c 0
 455 287 455 295 453 299 c 0
 449 306 447 317 447 323 c 0
 447 337 425 379 407 401 c 0
 385 426 358 441 320 448 c 0
EndSplineSet
EndChar

StartChar: blackcircle
Encoding: 8572 9679 91
Width: 500
VWidth: 0
Flags: MW
LayerCount: 2
Fore
SplineSet
73 430 m 0
 97 458 186 473 257 473 c 0
 294 473 329 471 349 465 c 0
 403 450 449 397 470 326 c 0
 475 307 478 296 478 281 c 0
 478 270 476 256 474 235 c 0
 467 173 466 169 430 123 c 0
 379 59 317 41 198 41 c 0
 125 41 103 53 64 98 c 0
 37 129 22 180 22 235 c 0
 22 276 36 327 41 359 c 0
 45 384 58 413 73 430 c 0
EndSplineSet
EndChar

StartChar: bullseye
Encoding: 8573 9678 92
Width: 500
VWidth: 0
Flags: MW
LayerCount: 2
Fore
SplineSet
278 37 m 0
 253 37 220 43 195 43 c 0
 162 44 137 54 128 70 c 0
 124 78 120 77 116 77 c 0
 112 77 99 86 86 100 c 0
 61 126 49 152 49 181 c 0
 49 189 45 205 41 218 c 0
 37 230 35 244 35 263 c 0
 35 309 38 327 56 365 c 0
 67 387 80 408 85 413 c 0
 99 426 191 476 209 480 c 0
 217 482 228 483 239 483 c 0
 279 483 334 473 365 457 c 0
 398 440 443 375 459 322 c 0
 463 307 465 288 465 266 c 0
 465 232 460 194 450 170 c 0
 426 113 385 74 319 47 c 0
 300 39 291 37 278 37 c 0
301 454 m 0
 285 458 267 459 251 459 c 0
 228 459 208 456 196 450 c 0
 186 444 163 432 146 423 c 0
 102 399 100 398 78 357 c 2
 58 320 l 1
 61 262 l 2
 62 230 68 189 73 170 c 0
 94 97 164 59 264 59 c 0
 303 59 329 69 368 95 c 0
 420 129 440 176 441 259 c 0
 441 308 440 318 427 345 c 0
 396 411 361 441 301 454 c 0
178 347 m 0
 195 371 218 385 255 385 c 0
 274 385 288 378 309 358 c 0
 329 339 341 307 341 261 c 0
 341 234 333 214 315 195 c 0
 301 180 292 176 261 170 c 0
 246 167 236 166 226 166 c 0
 204 166 191 174 171 193 c 0
 156 208 148 223 148 234 c 0
 148 239 150 243 154 246 c 0
 158 248 158 252 155 256 c 0
 153 258 152 262 152 268 c 0
 152 289 164 328 178 347 c 0
169 245 m 0
 169 221 196 192 227 192 c 0
 235 192 243 193 259 196 c 0
 289 202 299 206 307 217 c 0
 316 230 321 248 321 265 c 0
 321 273 319 281 317 289 c 0
 303 331 300 339 287 349 c 0
 278 356 265 359 247 359 c 0
 224 359 219 357 204 341 c 0
 187 323 169 273 169 245 c 0
EndSplineSet
EndChar

StartChar: whitediamond
Encoding: 8574 9671 93
Width: 500
VWidth: 0
Flags: MW
LayerCount: 2
Fore
SplineSet
196 482 m 0
 198 493 227 517 239 517 c 0
 242 517 260 502 279 485 c 0
 298 468 322 445 333 436 c 0
 357 413 358 404 384 385 c 0
 410 366 448 329 466 306 c 2
 480 286 l 1
 451 252 l 2
 435 233 421 217 421 215 c 0
 421 213 411 199 399 186 c 0
 364 148 357 131 318 91 c 0
 300 73 284 55 284 51 c 0
 284 46 282 44 279 44 c 0
 271 44 255 55 233 78 c 0
 200 110 159 143 150 143 c 0
 148 143 130 157 111 174 c 0
 92 191 73 207 68 210 c 0
 63 213 51 222 40 232 c 2
 20 250 l 1
 29 267 l 2
 37 281 161 438 168 452 c 0
 172 458 179 465 184 467 c 0
 190 469 195 476 196 482 c 0
306 429 m 0
 273 460 243 486 239 486 c 0
 230 486 190 445 153 397 c 0
 81 303 53 263 53 257 c 0
 53 253 60 245 68 240 c 0
 76 235 97 217 116 201 c 0
 163 161 186 154 231 112 c 0
 249 94 266 80 270 80 c 0
 273 80 284 87 293 95 c 0
 311 111 390 207 412 240 c 0
 420 252 433 268 440 275 c 2
 453 289 l 1
 409 331 l 2
 385 354 339 397 306 429 c 0
EndSplineSet
EndChar

StartChar: blackdiamond
Encoding: 8737 9670 94
Width: 500
VWidth: 0
Flags: MW
LayerCount: 2
Fore
SplineSet
196 482 m 0
 198 493 227 517 239 517 c 0
 242 517 260 502 279 485 c 0
 298 468 322 445 333 436 c 0
 357 413 358 404 384 385 c 0
 410 366 448 329 466 306 c 2
 480 286 l 1
 451 252 l 2
 435 233 421 217 421 215 c 0
 421 213 411 199 399 186 c 0
 364 148 357 131 318 91 c 0
 300 73 284 55 284 51 c 0
 284 46 282 44 279 44 c 0
 271 44 255 55 233 78 c 0
 200 110 159 143 150 143 c 0
 148 143 130 157 111 174 c 0
 92 191 73 207 68 210 c 0
 63 213 51 222 40 232 c 2
 20 250 l 1
 29 267 l 2
 37 281 161 438 168 452 c 0
 172 458 179 465 184 467 c 0
 190 469 195 476 196 482 c 0
EndSplineSet
EndChar

StartChar: box
Encoding: 8738 9633 95
Width: 500
VWidth: 0
Flags: MW
LayerCount: 2
Fore
SplineSet
396 211 m 0
 396 255 402 288 402 335 c 0
 402 345 402 355 402 363 c 2
 398 412 l 1
 382 415 l 2
 377 416 79 420 75 423 c 0
 73 425 75 431 79 436 c 0
 83 441 94 442 146 442 c 0
 168 442 197 442 236 441 c 0
 319 439 394 437 402 434 c 0
 417 430 418 428 422 390 c 0
 423 381 424 370 424 357 c 0
 424 314 417 258 417 214 c 0
 417 180 419 149 424 116 c 0
 426 101 431 94 440 90 c 0
 448 87 452 84 452 80 c 0
 452 77 450 74 446 72 c 0
 443 70 388 68 324 67 c 0
 245 67 200 65 186 60 c 0
 177 57 169 56 159 56 c 0
 138 56 85 63 85 70 c 0
 85 79 96 84 108 84 c 0
 120 84 161 79 162 78 c 0
 163 77 171 78 179 80 c 0
 206 88 248 92 305 92 c 0
 314 92 323 92 333 92 c 2
 406 91 l 1
 403 114 l 2
 398 149 396 181 396 211 c 0
48 389 m 0
 48 416 48 425 60 425 c 0
 62 425 62 424 63 423 c 0
 65 421 83 235 83 138 c 0
 83 91 77 62 68 62 c 0
 63 62 61 69 61 100 c 0
 61 111 61 131 61 145 c 0
 61 178 59 210 57 220 c 0
 54 236 48 350 48 389 c 0
EndSplineSet
EndChar

StartChar: filledbox
Encoding: 8739 9632 96
Width: 500
VWidth: 0
Flags: MW
LayerCount: 2
Fore
SplineSet
61 100 m 0
 61 111 61 131 61 145 c 0
 61 178 59 210 57 220 c 0
 54 236 48 350 48 389 c 0
 48 412 49 421 53 423 c 0
 59 426 63 425 64 420 c 1
 67 421 72 424 75 425 c 1
 74 428 76 432 79 436 c 0
 83 441 94 442 146 442 c 0
 168 442 197 442 236 441 c 0
 319 439 394 437 402 434 c 0
 417 430 418 428 422 390 c 0
 423 381 424 370 424 357 c 0
 424 314 417 258 417 214 c 0
 417 180 419 149 424 116 c 0
 426 101 431 94 440 90 c 0
 448 87 452 84 452 80 c 0
 452 77 450 74 446 72 c 0
 443 70 388 68 324 67 c 0
 245 67 200 65 186 60 c 0
 177 57 169 56 159 56 c 0
 138 56 85 63 85 70 c 0
 85 71 86 72 87 74 c 1
 84 76 81 77 78 79 c 1
 75 68 72 62 68 62 c 0
 63 62 61 69 61 100 c 0
EndSplineSet
EndChar

StartChar: triangle
Encoding: 8740 9651 97
Width: 500
VWidth: 0
Flags: MW
LayerCount: 2
Fore
SplineSet
378 58 m 0
 333 58 260 61 209 61 c 0
 175 61 151 60 130 57 c 0
 105 53 82 51 65 51 c 0
 52 51 37 52 37 55 c 0
 37 60 53 97 75 141 c 0
 131 255 142 286 181 370 c 0
 193 395 205 421 208 429 c 0
 214 443 228 447 244 448 c 0
 252 448 290 395 309 358 c 0
 316 344 330 322 341 310 c 0
 363 284 393 219 409 188 c 1
 428 152 425 152 447 107 c 0
 456 89 463 72 463 66 c 0
 463 59 426 58 378 58 c 0
166 283 m 0
 166 279 67 80 67 79 c 0
 67 77 74 75 83 75 c 0
 96 75 114 77 123 81 c 0
 132 84 161 86 200 86 c 0
 237 86 283 84 328 81 c 0
 353 79 373 79 387 79 c 0
 408 79 422 81 422 88 c 0
 422 97 405 145 393 170 c 0
 372 211 360 234 356 236 c 0
 353 238 350 245 348 253 c 0
 346 261 336 279 324 293 c 0
 299 322 278 367 257 398 c 0
 248 411 244 417 239 417 c 0
 236 417 232 414 228 410 c 0
 219 401 166 293 166 283 c 0
EndSplineSet
EndChar

StartChar: triagup
Encoding: 8741 9650 98
Width: 500
VWidth: 0
Flags: MW
LayerCount: 2
Fore
SplineSet
378 58 m 0
 333 58 260 61 209 61 c 0
 175 61 151 60 130 57 c 0
 105 53 82 51 65 51 c 0
 52 51 37 52 37 55 c 0
 37 60 53 97 75 141 c 0
 131 255 142 286 181 370 c 0
 193 395 205 421 208 429 c 0
 214 443 228 447 244 448 c 0
 252 448 290 395 309 358 c 0
 316 344 330 322 341 310 c 0
 363 284 393 219 409 188 c 1
 428 152 425 152 447 107 c 0
 456 89 463 72 463 66 c 0
 463 59 426 58 378 58 c 0
EndSplineSet
EndChar

StartChar: triangleinv
Encoding: 8742 9661 99
Width: 500
VWidth: 0
Flags: MW
LayerCount: 2
Fore
SplineSet
280 53 m 0
 280 46 275 40 268 40 c 0
 254 40 236 59 219 93 c 0
 199 134 170 173 152 209 c 0
 146 221 133 243 122 257 c 0
 89 301 32 416 32 441 c 0
 32 453 47 450 51 437 c 2
 55 425 l 1
 57 434 60 442 62 451 c 1
 210 451 l 2
 291 452 359 453 361 454 c 0
 362 455 371 456 382 456 c 0
 412 456 463 452 466 449 c 0
 467 448 468 447 468 445 c 0
 468 442 466 439 463 435 c 0
 458 430 452 417 449 407 c 0
 439 375 384 242 375 228 c 0
 370 221 360 202 354 187 c 0
 343 161 295 78 284 67 c 0
 281 64 280 58 280 53 c 0
407 431 m 0
 389 431 378 435 363 435 c 0
 356 435 347 434 340 433 c 0
 328 430 263 429 194 429 c 0
 125 429 67 428 65 426 c 0
 64 425 65 424 65 423 c 0
 65 403 112 310 143 270 c 0
 160 249 182 200 199 180 c 0
 205 172 219 145 232 120 c 0
 245 95 257 75 259 75 c 0
 275 75 360 233 392 320 c 0
 399 341 411 372 419 390 c 0
 426 408 432 425 430 427 c 0
 428 429 418 430 407 431 c 0
EndSplineSet
EndChar

StartChar: triagdn
Encoding: 8743 9660 100
Width: 500
VWidth: 0
Flags: MW
LayerCount: 2
Fore
SplineSet
280 53 m 0
 280 46 275 40 268 40 c 0
 254 40 236 59 219 93 c 0
 199 134 170 173 152 209 c 0
 146 221 133 243 122 257 c 0
 89 301 32 416 32 441 c 0
 32 453 47 450 51 437 c 2
 55 425 l 1
 57 434 60 442 62 451 c 1
 210 451 l 2
 291 452 359 453 361 454 c 0
 362 455 371 456 382 456 c 0
 412 456 463 452 466 449 c 0
 467 448 468 447 468 445 c 0
 468 442 466 439 463 435 c 0
 458 430 452 417 449 407 c 0
 439 375 384 242 375 228 c 0
 370 221 360 202 354 187 c 0
 343 161 295 78 284 67 c 0
 281 64 280 58 280 53 c 0
EndSplineSet
EndChar

StartChar: referencemark
Encoding: 8744 8251 101
Width: 500
VWidth: 0
Flags: MW
LayerCount: 2
Fore
SplineSet
244 412 m 0
 244 408 240 402 232 402 c 0
 221 402 203 422 203 435 c 0
 203 440 203 443 204 443 c 0
 205 443 206 441 209 437 c 0
 213 432 223 427 231 425 c 0
 239 423 244 417 244 412 c 0
77 381 m 0
 77 385 85 393 89 393 c 0
 93 393 97 391 107 385 c 0
 118 379 153 348 187 316 c 2
 248 260 l 1
 261 272 l 2
 268 279 275 284 277 282 c 0
 280 280 282 282 282 285 c 0
 282 288 292 302 305 316 c 0
 318 330 335 349 341 357 c 0
 348 365 356 375 360 378 c 0
 369 385 382 382 382 373 c 0
 382 368 340 322 285 266 c 2
 266 246 l 1
 303 207 l 2
 324 186 357 157 376 141 c 0
 424 103 439 87 439 79 c 0
 439 72 437 68 432 68 c 0
 425 68 415 76 402 89 c 0
 390 102 371 117 361 123 c 0
 352 129 323 154 298 178 c 0
 273 202 251 222 249 222 c 0
 245 222 191 167 177 149 c 0
 155 121 102 70 95 70 c 0
 89 70 86 71 86 74 c 0
 86 80 96 93 117 116 c 0
 136 137 170 172 191 196 c 2
 229 238 l 1
 208 264 l 2
 196 278 176 297 165 305 c 0
 154 313 145 320 145 323 c 0
 145 326 131 337 115 349 c 0
 86 370 77 376 77 381 c 0
68 234 m 0
 68 245 61 247 61 258 c 0
 61 261 62 262 64 262 c 0
 70 262 82 253 87 243 c 0
 104 212 68 223 68 234 c 0
419 239 m 0
 419 234 414 229 408 229 c 0
 401 229 392 236 383 248 c 2
 373 262 l 1
 387 262 l 2
 404 262 419 249 419 239 c 0
268 44 m 0
 268 40 258 38 254 38 c 0
 244 38 235 44 228 58 c 0
 224 64 223 70 223 73 c 0
 223 74 223 75 224 75 c 0
 231 75 233 63 242 66 c 0
 247 68 268 51 268 44 c 0
EndSplineSet
EndChar

StartChar: postalmark
Encoding: 8745 12306 102
Width: 500
VWidth: 0
Flags: MW
LayerCount: 2
Fore
SplineSet
359 456 m 0
 360 457 363 457 368 457 c 0
 381 457 403 454 405 452 c 0
 407 450 408 446 406 441 c 0
 402 433 400 432 239 430 c 0
 200 429 143 428 114 426 c 0
 95 424 83 423 75 423 c 0
 66 423 63 425 63 428 c 0
 63 449 86 449 231 452 c 0
 300 454 358 455 359 456 c 0
216 335 m 0
 242 335 270 335 296 335 c 0
 327 335 354 335 365 337 c 0
 382 339 399 341 411 341 c 0
 426 341 439 340 439 333 c 0
 439 326 418 317 395 317 c 0
 380 316 340 314 307 312 c 2
 247 309 l 1
 248 291 l 2
 249 273 255 79 256 60 c 0
 257 48 255 39 248 39 c 0
 236 39 231 67 230 133 c 0
 229 172 228 228 227 258 c 2
 226 312 l 1
 183 310 l 2
 148 308 107 301 74 301 c 0
 65 301 61 300 61 305 c 0
 61 308 63 313 65 317 c 0
 69 325 76 327 96 327 c 0
 97 327 98 327 99 327 c 0
 113 327 131 330 143 332 c 0
 152 334 182 335 216 335 c 0
EndSplineSet
EndChar

StartChar: arrowright
Encoding: 8746 8594 103
Width: 500
VWidth: 0
Flags: MW
LayerCount: 2
Fore
SplineSet
302 361 m 0
 302 368 306 375 297 375 c 0
 292 375 289 377 289 380 c 0
 289 383 290 386 293 386 c 0
 305 386 378 325 421 279 c 0
 441 258 448 248 448 243 c 0
 448 241 447 240 446 239 c 0
 442 236 430 225 418 217 c 0
 387 194 354 165 328 140 c 0
 314 125 302 117 295 117 c 0
 291 117 289 120 289 125 c 0
 289 129 313 153 342 180 c 0
 377 212 389 225 389 231 c 0
 389 239 370 237 348 237 c 0
 294 237 224 233 173 233 c 0
 131 233 96 235 77 237 c 0
 58 239 52 242 52 249 c 0
 52 261 58 261 72 261 c 0
 108 261 187 256 223 256 c 0
 253 256 283 259 336 259 c 2
 407 260 l 1
 373 292 l 2
 354 310 330 332 319 340 c 0
 307 349 302 355 302 361 c 0
EndSplineSet
EndChar

StartChar: arrowleft
Encoding: 8747 8592 104
Width: 500
VWidth: 0
Flags: MW
LayerCount: 2
Fore
SplineSet
172 150 m 0
 172 146 167 140 160 140 c 0
 155 140 150 143 144 150 c 0
 138 157 126 167 117 171 c 0
 91 185 58 218 38 241 c 0
 32 248 28 254 28 258 c 0
 28 262 31 265 37 265 c 0
 45 265 33 249 44 249 c 0
 48 249 52 254 54 261 c 0
 60 280 83 306 106 321 c 0
 118 329 129 338 131 340 c 0
 134 346 163 364 171 364 c 0
 176 364 181 358 181 351 c 0
 181 344 172 338 138 315 c 0
 124 305 106 291 99 283 c 2
 86 269 l 1
 180 272 l 2
 239 275 301 276 352 276 c 0
 417 276 465 274 469 270 c 0
 471 268 472 266 472 264 c 0
 472 262 471 261 470 260 c 0
 467 257 411 254 346 252 c 0
 140 247 80 246 80 242 c 0
 80 236 113 204 148 177 c 0
 164 165 172 156 172 150 c 0
EndSplineSet
EndChar

StartChar: arrowup
Encoding: 8748 8593 105
Width: 500
VWidth: 0
Flags: MW
LayerCount: 2
Fore
SplineSet
271 61 m 0
 271 48 259 27 251 27 c 0
 240 27 237 66 237 167 c 0
 237 219 235 298 233 341 c 2
 229 420 l 1
 219 393 l 2
 206 357 169 254 155 254 c 0
 150 254 148 261 148 268 c 0
 148 274 150 280 153 283 c 0
 162 292 199 397 208 440 c 0
 213 463 214 440 226 449 c 0
 233 453 233 455 227 459 c 0
 219 464 222 479 231 479 c 0
 236 479 245 475 248 475 c 0
 252 475 252 470 252 465 c 0
 252 459 274 422 302 380 c 0
 337 328 352 299 352 287 c 0
 352 283 351 281 347 281 c 0
 339 281 331 290 325 301 c 0
 320 311 302 337 286 359 c 2
 257 399 l 1
 260 259 l 2
 262 182 265 105 268 87 c 0
 270 75 271 67 271 61 c 0
EndSplineSet
EndChar

StartChar: arrowdown
Encoding: 8749 8595 106
Width: 500
VWidth: 0
Flags: MW
LayerCount: 2
Fore
SplineSet
213 437 m 0
 213 454 214 459 220 459 c 0
 235 459 237 455 238 428 c 0
 240 380 273 122 277 126 c 0
 279 129 283 139 287 151 c 0
 300 191 340 270 348 270 c 0
 353 270 355 267 355 261 c 0
 355 249 345 224 324 178 c 0
 310 148 283 54 267 54 c 0
 259 54 221 91 206 113 c 0
 195 130 145 229 145 234 c 0
 145 236 153 234 162 229 c 0
 174 222 184 208 197 182 c 0
 207 162 223 135 231 122 c 0
 244 101 247 100 250 109 c 0
 252 115 252 128 249 136 c 0
 242 160 213 403 213 437 c 0
EndSplineSet
EndChar

StartChar: getamark
Encoding: 8750 12307 107
Width: 500
VWidth: 0
Flags: MW
LayerCount: 2
Fore
SplineSet
415 390 m 0
 415 375 418 364 418 349 c 0
 418 346 418 343 418 341 c 2
 416 325 l 1
 321 327 l 2
 268 328 196 328 162 328 c 0
 156 328 150 328 145 328 c 0
 92 328 82 331 82 361 c 0
 82 381 88 432 91 436 c 0
 94 439 94 444 92 446 c 0
 90 449 92 449 97 447 c 0
 102 445 110 447 115 451 c 0
 122 456 148 459 181 459 c 0
 241 459 302 449 364 448 c 0
 403 447 421 447 421 436 c 0
 421 423 415 406 415 390 c 0
112 206 m 0
 112 214 158 214 171 214 c 0
 236 214 246 198 310 198 c 0
 336 198 365 201 387 205 c 2
 408 208 l 1
 404 182 l 2
 402 168 400 157 400 144 c 0
 400 130 401 116 404 97 c 2
 407 73 l 1
 389 77 l 2
 378 79 348 80 312 80 c 0
 257 80 189 78 160 75 c 0
 142 73 126 71 118 71 c 0
 109 71 111 75 102 67 c 0
 99 64 96 62 94 62 c 0
 80 62 79 135 79 152 c 0
 79 163 77 208 85 196 c 0
 89 189 91 189 91 197 c 0
 91 210 112 198 112 206 c 0
EndSplineSet
EndChar

StartChar: element
Encoding: 8762 8712 108
Width: 500
VWidth: 0
Flags: MW
LayerCount: 2
Fore
SplineSet
205 241 m 0
 192 241 178 242 165 242 c 0
 138 242 111 240 97 237 c 2
 66 230 l 1
 70 207 l 2
 72 188 76 180 92 166 c 0
 131 131 154 123 237 118 c 0
 273 116 308 114 338 114 c 0
 378 114 409 116 420 121 c 0
 428 124 435 125 441 125 c 0
 450 125 455 122 455 117 c 0
 455 113 450 107 439 101 c 0
 427 95 404 93 344 93 c 0
 186 93 149 100 93 137 c 0
 56 161 45 176 45 218 c 0
 45 283 50 290 108 349 c 0
 128 370 130 371 181 392 c 0
 197 399 213 404 219 404 c 0
 225 404 251 401 283 401 c 0
 324 401 370 403 373 405 c 0
 374 405 376 405 378 405 c 0
 393 405 436 395 436 390 c 0
 436 388 422 386 406 385 c 0
 350 385 344 381 273 378 c 0
 187 375 158 365 109 317 c 0
 81 290 73 278 71 263 c 0
 69 252 70 243 73 243 c 0
 76 243 78 248 78 254 c 0
 78 263 78 265 111 265 c 0
 133 265 211 263 226 263 c 0
 244 263 248 265 257 267 c 0
 293 277 355 283 394 283 c 0
 415 283 430 282 430 275 c 0
 430 268 414 264 363 259 c 0
 300 252 273 241 205 241 c 0
EndSplineSet
EndChar

StartChar: suchthat
Encoding: 8763 8715 109
Width: 500
VWidth: 0
Flags: MW
LayerCount: 2
Fore
SplineSet
394 287 m 0
 406 287 415 284 424 284 c 0
 431 284 434 286 434 291 c 0
 434 295 432 302 427 311 c 0
 415 334 397 348 363 357 c 0
 346 362 327 367 321 369 c 0
 315 371 254 372 186 372 c 0
 117 372 61 374 61 376 c 0
 61 383 79 395 92 397 c 0
 97 397 116 398 139 398 c 0
 180 398 243 396 275 396 c 0
 350 395 429 364 447 328 c 0
 455 313 459 290 459 269 c 0
 459 257 458 246 455 237 c 0
 446 206 421 171 403 162 c 0
 387 154 319 139 298 139 c 0
 291 139 271 136 255 132 c 0
 217 124 165 119 92 119 c 0
 57 119 41 122 41 128 c 0
 41 130 42 132 46 135 c 0
 52 139 65 141 87 141 c 0
 95 141 102 141 110 141 c 0
 155 141 217 147 250 155 c 0
 263 158 289 161 308 162 c 0
 350 164 393 177 408 193 c 0
 414 199 423 217 428 233 c 2
 438 262 l 1
 411 263 l 2
 409 263 406 263 403 263 c 0
 385 263 354 261 327 258 c 0
 280 252 207 249 152 249 c 0
 109 249 77 251 77 255 c 0
 77 271 82 274 127 274 c 0
 141 274 159 274 174 274 c 0
 237 274 310 278 361 285 c 0
 371 286 383 287 394 287 c 0
EndSplineSet
EndChar

StartChar: reflexsubset
Encoding: 8764 8838 110
Width: 500
VWidth: 0
Flags: MW
LayerCount: 2
Fore
SplineSet
326 449 m 0
 345 451 361 452 362 453 c 0
 370 453 380 449 374 438 c 0
 370 431 363 428 349 428 c 0
 319 428 236 406 208 402 c 0
 179 398 116 375 116 368 c 0
 116 365 110 355 103 346 c 0
 91 331 86 314 86 299 c 0
 86 277 98 256 121 241 c 0
 138 230 178 223 216 223 c 0
 237 223 257 224 272 229 c 0
 291 235 350 240 386 240 c 0
 409 240 415 239 415 231 c 0
 415 223 403 220 324 212 c 0
 301 209 267 205 248 201 c 0
 234 198 219 197 205 197 c 0
 145 197 92 221 71 260 c 0
 66 269 64 280 64 292 c 0
 64 324 80 362 106 386 c 0
 125 404 169 422 192 422 c 0
 203 422 229 427 251 433 c 0
 273 439 307 446 326 449 c 0
158 96 m 0
 168 96 177 95 187 95 c 0
 252 95 383 104 388 109 c 0
 390 111 399 112 408 112 c 0
 424 112 436 111 436 101 c 0
 436 86 396 79 308 77 c 0
 251 76 240 68 186 68 c 0
 153 68 102 70 102 78 c 0
 102 91 119 96 158 96 c 0
EndSplineSet
EndChar

StartChar: reflexsuperset
Encoding: 8765 8839 111
Width: 500
VWidth: 0
Flags: MW
LayerCount: 2
Fore
SplineSet
123 410 m 0
 103 410 94 410 94 419 c 0
 94 429 111 433 171 436 c 0
 210 438 243 440 245 442 c 0
 246 442 248 443 250 443 c 0
 268 443 286 436 311 432 c 0
 357 424 406 397 422 368 c 0
 427 360 430 348 430 337 c 0
 430 314 419 287 402 265 c 0
 373 229 336 212 258 201 c 0
 199 193 159 189 134 189 c 0
 108 189 98 193 98 202 c 0
 98 210 113 213 121 207 c 0
 125 204 128 203 130 204 c 0
 132 206 153 209 178 212 c 0
 203 215 243 222 267 228 c 0
 291 234 320 238 329 238 c 0
 344 238 351 243 372 265 c 0
 394 289 407 315 407 336 c 0
 407 340 407 344 406 347 c 0
 401 364 360 394 325 405 c 0
 307 411 282 413 235 413 c 0
 207 413 167 410 123 410 c 0
66 90 m 0
 66 99 84 109 100 109 c 0
 105 109 111 108 116 107 c 0
 124 105 140 105 181 105 c 0
 213 105 301 106 371 106 c 0
 403 106 427 105 429 104 c 0
 432 102 434 98 434 94 c 0
 434 82 424 83 369 82 c 0
 285 82 108 76 104 73 c 0
 103 73 103 73 102 73 c 0
 93 73 66 85 66 90 c 0
EndSplineSet
EndChar

StartChar: propersubset
Encoding: 8766 8834 112
Width: 500
VWidth: 0
Flags: MW
LayerCount: 2
Fore
SplineSet
211 391 m 0
 226 393 279 395 330 396 c 0
 341 396 350 396 359 396 c 0
 412 396 424 394 429 388 c 0
 433 384 434 378 432 376 c 0
 430 374 380 372 322 372 c 0
 188 371 175 368 132 321 c 0
 94 280 74 244 74 218 c 0
 74 215 75 212 75 210 c 0
 80 179 95 166 137 154 c 0
 156 149 168 146 183 146 c 0
 193 146 204 147 221 149 c 0
 283 155 331 158 396 162 c 0
 407 163 416 163 424 163 c 0
 441 163 448 161 448 157 c 0
 448 155 447 152 443 149 c 0
 439 146 398 141 350 138 c 0
 251 132 218 130 191 125 c 0
 188 125 185 124 182 124 c 0
 158 124 118 135 91 150 c 0
 66 164 52 191 52 220 c 0
 52 233 55 247 61 260 c 0
 86 309 132 364 149 365 c 0
 152 365 156 367 156 369 c 0
 156 376 183 387 211 391 c 0
EndSplineSet
EndChar

StartChar: propersuperset
Encoding: 8767 8835 113
Width: 500
VWidth: 0
Flags: MW
LayerCount: 2
Fore
SplineSet
456 239 m 0
 456 223 450 192 450 184 c 0
 449 174 408 133 399 133 c 0
 396 133 379 128 362 123 c 0
 335 115 312 113 197 112 c 0
 151 112 117 111 95 111 c 0
 40 111 44 113 44 122 c 0
 44 130 48 131 80 131 c 0
 147 131 316 137 337 141 c 0
 362 145 407 165 419 177 c 0
 426 184 432 220 432 241 c 0
 432 256 430 268 423 288 c 0
 407 334 385 357 349 364 c 0
 337 366 308 368 273 368 c 0
 217 368 147 365 108 360 c 0
 95 358 84 357 77 357 c 0
 66 357 62 360 62 365 c 0
 62 379 71 380 99 381 c 0
 116 382 139 383 147 385 c 0
 155 386 194 388 239 388 c 0
 246 388 253 388 260 388 c 0
 337 388 362 386 377 379 c 0
 420 360 456 294 456 239 c 0
297 128 m 0
 297 131 295 133 292 133 c 0
 289 133 287 131 287 128 c 0
 287 125 289 122 292 122 c 0
 295 122 297 125 297 128 c 0
EndSplineSet
EndChar

StartChar: union
Encoding: 8768 8746 114
Width: 500
VWidth: 0
Flags: MW
LayerCount: 2
Fore
SplineSet
126 446 m 0
 128 448 129 449 132 449 c 0
 140 449 151 440 151 432 c 0
 151 430 151 429 150 427 c 0
 148 423 147 351 147 266 c 0
 148 89 150 76 184 63 c 0
 199 57 223 50 243 50 c 0
 254 50 262 53 277 64 c 0
 337 103 343 129 350 354 c 0
 352 427 354 436 362 436 c 0
 372 436 376 419 376 369 c 0
 376 345 375 313 373 272 c 0
 367 146 360 113 327 74 c 0
 301 44 271 29 238 29 c 0
 168 29 136 59 129 111 c 0
 126 130 124 290 124 382 c 0
 124 419 125 445 126 446 c 0
EndSplineSet
EndChar

StartChar: intersection
Encoding: 8769 8745 115
Width: 500
VWidth: 0
Flags: MW
LayerCount: 2
Fore
SplineSet
223 430 m 0
 245 435 260 438 269 438 c 0
 276 438 278 436 280 433 c 0
 282 431 291 428 299 426 c 0
 317 422 353 387 369 357 c 0
 380 338 381 327 382 246 c 0
 383 197 384 146 386 133 c 0
 387 127 387 121 387 115 c 0
 387 90 381 67 373 67 c 0
 364 67 363 81 361 230 c 0
 360 282 358 330 355 336 c 0
 345 360 310 398 291 407 c 0
 280 412 274 415 265 415 c 0
 258 415 251 413 239 411 c 0
 200 404 188 398 167 367 c 2
 151 342 l 1
 143 212 l 2
 137 118 133 80 128 71 c 0
 124 64 120 60 118 60 c 0
 115 60 113 69 113 91 c 0
 113 114 114 153 117 212 c 0
 124 345 126 354 159 397 c 0
 176 419 180 421 223 430 c 0
EndSplineSet
EndChar

StartChar: logicaland
Encoding: 8778 8743 116
Width: 500
VWidth: 0
Flags: MW
LayerCount: 2
Fore
SplineSet
460 48 m 0
 460 45 457 40 453 40 c 0
 440 40 412 75 390 121 c 0
 376 149 360 177 355 183 c 0
 350 189 326 236 300 289 c 0
 274 342 252 386 250 386 c 0
 248 386 239 369 228 350 c 0
 197 292 133 177 116 123 c 0
 112 109 58 48 47 45 c 0
 43 44 40 46 40 51 c 0
 40 64 55 47 55 63 c 0
 55 69 62 85 71 98 c 0
 79 111 95 139 104 162 c 0
 126 213 140 240 167 288 c 0
 192 334 200 356 227 397 c 0
 237 412 245 427 245 431 c 0
 245 435 249 438 253 438 c 0
 257 438 261 435 261 430 c 0
 261 418 286 362 354 225 c 0
 359 217 367 203 374 195 c 0
 380 187 394 163 404 142 c 0
 414 121 431 93 442 79 c 0
 455 62 460 54 460 48 c 0
EndSplineSet
EndChar

StartChar: logicalor
Encoding: 8779 8744 117
Width: 500
VWidth: 0
Flags: MW
LayerCount: 2
Fore
SplineSet
166 246 m 0
 166 239 192 187 192 181 c 0
 192 178 198 169 205 161 c 0
 212 153 225 130 234 110 c 0
 243 91 251 76 252 76 c 0
 255 76 285 164 286 167 c 0
 289 173 298 201 306 228 c 0
 314 255 329 295 338 316 c 0
 347 337 355 355 355 357 c 0
 355 359 365 377 377 399 c 0
 391 425 402 438 409 438 c 0
 411 438 416 435 416 430 c 0
 416 419 376 350 376 343 c 0
 376 340 370 326 363 312 c 0
 351 289 332 237 311 167 c 0
 304 144 297 125 270 54 c 0
 264 36 257 28 249 28 c 0
 245 28 234 48 210 104 c 0
 203 121 192 140 187 146 c 0
 178 155 167 181 146 236 c 0
 142 248 134 264 129 272 c 0
 121 287 110 318 96 372 c 0
 93 384 89 399 86 406 c 0
 85 410 84 414 84 416 c 0
 84 422 92 427 97 427 c 0
 106 427 111 412 121 369 c 0
 129 337 142 297 150 281 c 0
 158 265 166 250 166 246 c 0
EndSplineSet
EndChar

StartChar: logicalnot
Encoding: 8780 172 118
Width: 500
VWidth: 0
Flags: MW
LayerCount: 2
Fore
SplineSet
131 348 m 0
 204 348 227 336 303 336 c 0
 334 336 368 337 402 340 c 0
 420 342 431 343 439 343 c 0
 457 343 461 331 454 317 c 0
 452 313 450 298 450 279 c 0
 450 248 454 206 459 178 c 0
 461 165 462 154 462 145 c 0
 462 128 458 118 451 118 c 0
 441 118 439 133 431 193 c 0
 427 226 424 263 424 283 c 0
 424 287 425 290 425 293 c 2
 428 318 l 1
 390 316 l 2
 360 313 337 308 313 308 c 0
 280 308 214 313 187 319 c 0
 176 321 154 323 130 323 c 0
 109 323 87 322 71 320 c 0
 62 319 55 318 49 318 c 0
 42 318 38 319 38 320 c 0
 38 330 47 338 61 342 c 0
 74 345 102 348 131 348 c 0
EndSplineSet
EndChar

StartChar: arrowdblright
Encoding: 8781 8658 119
Width: 500
VWidth: 0
Flags: MW
LayerCount: 2
Fore
SplineSet
299 330 m 0
 325 330 354 332 354 338 c 0
 354 349 311 400 279 425 c 0
 261 439 260 441 268 447 c 0
 273 451 280 454 283 454 c 0
 291 454 381 357 386 343 c 0
 388 338 393 333 397 333 c 0
 404 333 450 285 450 276 c 0
 450 269 437 254 433 254 c 0
 427 254 401 204 401 193 c 0
 401 188 395 183 388 181 c 0
 382 178 356 154 332 128 c 0
 302 95 286 80 279 80 c 0
 276 80 275 83 275 87 c 0
 275 94 285 107 314 138 c 0
 330 155 343 176 343 183 c 0
 343 186 246 180 222 179 c 0
 189 178 146 173 128 170 c 0
 116 168 102 167 90 167 c 0
 69 167 50 168 50 179 c 0
 50 191 54 195 69 195 c 0
 76 195 85 194 94 194 c 0
 141 194 210 207 256 207 c 0
 279 207 314 207 335 208 c 0
 371 210 372 210 390 233 c 0
 400 246 411 256 415 256 c 0
 416 256 l 0
 420 256 422 259 422 263 c 0
 422 277 396 314 379 314 c 0
 374 314 369 313 360 311 c 0
 345 309 278 306 212 304 c 0
 146 302 84 300 73 298 c 0
 55 295 53 297 55 305 c 0
 59 326 70 327 299 330 c 0
EndSplineSet
EndChar

StartChar: arrowdblboth
Encoding: 8782 8660 120
Width: 500
VWidth: 0
Flags: MW
LayerCount: 2
Fore
SplineSet
143 420 m 0
 148 420 153 418 153 425 c 0
 153 429 157 433 163 433 c 0
 170 433 174 429 174 422 c 0
 174 416 171 412 168 412 c 0
 163 412 121 352 121 344 c 0
 121 342 129 341 148 341 c 0
 172 341 291 346 344 348 c 0
 363 348 373 350 373 356 c 0
 373 361 365 371 350 385 c 0
 334 400 327 410 327 416 c 0
 327 419 331 425 337 425 c 0
 348 425 375 397 418 346 c 0
 433 329 450 308 457 301 c 0
 463 294 468 287 468 285 c 0
 468 283 461 274 453 266 c 0
 445 257 432 239 426 225 c 0
 420 211 411 194 406 188 c 0
 401 182 389 164 380 147 c 0
 362 115 343 91 336 91 c 0
 331 91 329 95 329 100 c 0
 329 106 331 114 338 123 c 0
 345 132 359 154 368 171 c 2
 385 201 l 1
 344 201 l 2
 301 201 230 192 195 188 c 1
 169 187 121 180 121 177 c 0
 121 171 141 145 154 134 c 0
 163 126 169 115 169 108 c 0
 169 104 167 101 163 101 c 0
 152 101 32 234 32 245 c 0
 32 248 47 274 65 301 c 0
 83 329 105 363 112 376 c 0
 131 411 137 420 143 420 c 0
68 272 m 0
 68 268 57 258 57 252 c 0
 57 247 63 241 78 226 c 2
 103 201 l 1
 134 207 l 1
 171 213 210 216 247 220 c 0
 261 222 401 229 404 238 c 0
 406 245 433 271 433 283 c 0
 433 291 428 298 414 311 c 0
 404 320 394 325 365 325 c 0
 350 325 331 324 303 322 c 0
 271 320 213 319 176 318 c 2
 107 317 l 1
 88 297 l 2
 77 286 68 275 68 272 c 0
EndSplineSet
EndChar

StartChar: universal
Encoding: 8783 8704 121
Width: 500
VWidth: 0
Flags: MW
LayerCount: 2
Fore
SplineSet
446 441 m 0
 453 444 460 448 463 448 c 0
 465 448 466 446 466 443 c 0
 466 439 463 432 460 430 c 0
 449 424 358 229 347 191 c 0
 345 184 331 159 316 136 c 0
 301 113 280 80 269 63 c 0
 254 39 245 29 236 29 c 0
 232 29 227 31 222 36 c 0
 193 63 161 126 108 262 c 0
 96 293 55 375 39 400 c 0
 36 405 34 408 34 412 c 0
 34 423 55 441 55 426 c 0
 55 419 96 336 110 317 c 0
 117 307 117 307 122 315 c 0
 126 323 140 324 250 325 c 2
 372 325 l 1
 382 341 l 2
 391 357 430 433 446 441 c 0
321 302 m 2
 288 303 266 305 245 305 c 0
 234 305 220 302 183 301 c 0
 151 300 120 301 120 292 c 0
 120 285 130 262 164 180 c 0
 189 119 227 55 237 54 c 0
 240 54 245 62 249 71 c 0
 255 88 322 189 327 207 c 1
 331 227 351 266 358 285 c 2
 365 301 l 1
 321 302 l 2
EndSplineSet
EndChar

StartChar: existential
Encoding: 8784 8707 122
Width: 500
VWidth: 0
Flags: MW
LayerCount: 2
Fore
SplineSet
367 415 m 0
 311 415 193 412 156 412 c 0
 94 412 76 414 71 421 c 0
 61 435 81 435 95 435 c 0
 117 435 146 432 152 427 c 0
 157 423 164 423 173 427 c 0
 181 430 200 433 216 433 c 0
 361 435 394 436 398 440 c 0
 400 442 404 443 409 443 c 0
 423 443 424 438 425 404 c 0
 426 384 428 358 431 346 c 0
 434 334 438 288 440 243 c 0
 442 198 445 142 447 117 c 0
 449 99 449 81 449 71 c 0
 449 49 440 50 372 50 c 0
 309 50 218 50 158 51 c 0
 113 51 71 52 64 53 c 2
 51 54 l 1
 65 61 l 2
 78 68 159 80 186 80 c 0
 190 80 193 80 194 79 c 0
 197 77 227 74 261 72 c 0
 296 70 328 66 331 63 c 0
 336 59 340 60 345 64 c 0
 349 67 360 69 374 69 c 0
 380 69 386 69 392 69 c 0
 405 69 417 69 420 71 c 0
 427 75 430 92 430 109 c 0
 430 117 429 124 427 131 c 0
 424 142 422 174 421 202 c 0
 420 253 419 252 404 259 c 0
 393 264 351 266 305 266 c 0
 261 266 214 264 185 260 c 0
 139 253 108 250 92 250 c 0
 81 250 76 250 76 257 c 0
 76 265 92 272 125 276 c 0
 179 282 214 290 279 290 c 0
 329 290 388 286 405 282 c 0
 408 281 409 281 411 281 c 0
 416 281 416 287 416 307 c 0
 416 322 413 348 408 366 c 0
 404 381 402 396 402 404 c 0
 402 414 405 415 367 415 c 0
EndSplineSet
EndChar

StartChar: angle
Encoding: 8796 8736 123
Width: 500
VWidth: 0
Flags: MW
LayerCount: 2
Fore
SplineSet
269 74 m 0
 293 74 337 79 369 79 c 0
 384 79 398 79 409 78 c 0
 444 75 450 73 450 64 c 0
 450 53 455 54 279 53 c 0
 274 53 270 53 265 53 c 0
 176 53 50 57 50 60 c 0
 50 67 74 105 110 154 c 0
 131 181 153 215 160 228 c 0
 167 241 175 255 179 259 c 0
 183 263 202 291 221 320 c 0
 301 437 296 432 329 466 c 0
 345 483 355 490 361 490 c 0
 364 490 367 488 369 483 c 0
 371 478 365 468 354 458 c 0
 315 420 282 375 211 267 c 0
 177 215 136 155 121 133 c 0
 105 112 92 93 92 91 c 0
 92 85 261 74 269 74 c 0
EndSplineSet
EndChar

StartChar: perpendicular
Encoding: 8797 8869 124
Width: 500
VWidth: 0
Flags: MW
LayerCount: 2
Fore
SplineSet
80 50 m 0
 44 50 24 54 24 69 c 0
 24 71 27 70 32 65 c 0
 40 58 42 59 47 66 c 0
 52 72 66 74 108 77 c 0
 210 83 219 84 223 88 c 0
 225 90 226 145 226 210 c 0
 226 275 225 348 223 389 c 0
 222 411 220 425 220 435 c 0
 220 451 223 455 228 458 c 0
 232 460 235 462 238 462 c 0
 248 462 245 445 247 221 c 2
 248 85 l 1
 298 89 l 2
 309 90 319 90 328 90 c 0
 370 90 388 78 431 78 c 0
 461 78 476 73 476 64 c 0
 476 56 471 55 457 55 c 0
 449 55 436 55 419 57 c 0
 391 59 344 61 313 61 c 0
 308 61 302 61 298 61 c 0
 262 61 254 59 245 51 c 0
 239 46 236 44 234 44 c 0
 232 44 230 46 227 51 c 0
 223 57 219 59 208 59 c 0
 203 59 195 58 186 57 c 0
 139 52 105 50 80 50 c 0
EndSplineSet
EndChar

StartChar: arc
Encoding: 8798 8978 125
Width: 500
VWidth: 0
Flags: MW
LayerCount: 2
Fore
SplineSet
38 362 m 0
 31 362 25 372 25 376 c 0
 25 386 40 399 76 424 c 0
 147 474 170 482 251 482 c 0
 338 482 402 460 429 421 c 0
 438 408 453 390 462 383 c 0
 471 376 475 371 475 367 c 0
 475 364 472 362 468 362 c 0
 456 362 432 379 410 406 c 0
 378 444 340 456 248 456 c 0
 180 456 180 456 142 437 c 0
 121 426 90 404 73 388 c 0
 53 369 44 362 38 362 c 0
EndSplineSet
EndChar

StartChar: partialdiff
Encoding: 8799 8706 126
Width: 500
VWidth: 0
Flags: MW
LayerCount: 2
Fore
SplineSet
168 465 m 0
 183 471 210 474 236 474 c 0
 267 474 297 470 310 462 c 0
 339 443 384 391 391 368 c 0
 411 302 422 233 422 181 c 0
 422 157 419 136 414 123 c 0
 398 81 368 52 319 28 c 0
 296 17 274 8 269 8 c 0
 262 8 245 5 235 5 c 0
 220 5 199 10 188 18 c 0
 185 20 175 23 166 25 c 0
 156 28 140 39 124 56 c 0
 87 95 78 112 78 154 c 0
 78 189 81 198 96 222 c 0
 127 269 164 290 222 290 c 0
 275 290 338 274 372 256 c 0
 381 251 390 247 390 254 c 0
 390 269 376 336 366 361 c 0
 356 388 339 410 308 430 c 0
 285 445 267 448 229 448 c 0
 183 448 152 436 128 409 c 0
 115 394 109 388 104 388 c 0
 96 388 93 400 95 407 c 0
 99 422 138 453 168 465 c 0
372 226 m 0
 335 247 269 262 214 262 c 0
 198 262 184 261 177 258 c 0
 133 241 102 195 102 151 c 0
 102 122 106 112 137 78 c 0
 161 51 199 28 244 28 c 0
 264 28 283 34 308 45 c 0
 366 72 400 117 400 168 c 0
 400 203 396 211 372 226 c 0
EndSplineSet
EndChar

StartChar: gradient
Encoding: 8800 8711 127
Width: 500
VWidth: 0
Flags: MW
LayerCount: 2
Fore
SplineSet
255 23 m 0
 248 23 240 43 240 49 c 0
 240 54 235 71 230 87 c 0
 224 102 214 136 206 162 c 0
 199 188 187 219 182 232 c 0
 176 244 172 256 172 259 c 0
 172 266 107 399 94 416 c 0
 89 423 86 428 86 434 c 0
 86 448 99 462 106 449 c 0
 108 445 111 444 115 448 c 0
 129 458 153 461 182 461 c 0
 213 461 258 458 311 456 c 0
 412 453 414 452 414 432 c 0
 414 424 410 408 405 397 c 0
 392 365 372 306 368 283 c 0
 363 256 332 193 327 165 c 0
 321 129 309 93 295 72 c 0
 288 62 282 52 282 49 c 0
 282 46 260 23 255 23 c 0
351 433 m 0
 334 433 312 433 293 433 c 0
 243 433 205 436 162 436 c 0
 148 436 136 435 131 434 c 2
 113 430 l 1
 137 380 l 2
 198 256 203 245 229 159 c 0
 238 128 248 100 251 95 c 0
 254 90 256 82 256 78 c 0
 256 72 257 69 260 69 c 0
 278 69 302 134 305 163 c 1
 310 195 336 248 344 275 c 0
 366 350 384 405 389 410 c 0
 391 412 391 417 391 420 c 0
 391 434 384 433 351 433 c 0
EndSplineSet
EndChar

StartChar: equivalence
Encoding: 8801 8801 128
Width: 500
VWidth: 0
Flags: MW
LayerCount: 2
Fore
SplineSet
383 396 m 0
 399 399 412 401 421 401 c 0
 433 401 440 398 442 393 c 0
 444 388 442 383 439 380 c 0
 433 376 340 366 312 366 c 0
 230 365 83 359 66 356 c 0
 45 353 44 353 44 363 c 0
 44 380 69 384 223 388 c 0
 300 390 371 394 383 396 c 0
199 267 m 0
 210 267 211 266 218 266 c 0
 227 266 246 268 264 272 c 0
 287 277 321 281 339 283 c 0
 357 285 373 287 375 288 c 0
 377 290 386 291 396 291 c 0
 413 291 434 289 436 286 c 0
 441 279 428 263 421 266 c 0
 420 266 418 267 415 267 c 0
 398 267 344 257 328 257 c 0
 326 257 325 258 324 258 c 0
 321 260 307 256 295 251 c 0
 279 245 253 243 200 241 c 0
 159 240 110 238 91 236 c 0
 82 235 75 234 69 234 c 0
 57 234 51 236 51 241 c 0
 51 243 53 247 56 251 c 0
 61 258 76 261 133 264 c 0
 160 266 184 267 199 267 c 0
37 144 m 0
 37 148 60 148 87 148 c 0
 93 148 99 148 105 148 c 0
 151 148 182 150 223 159 c 0
 283 172 289 177 347 177 c 0
 391 177 446 174 455 170 c 0
 460 167 463 162 463 159 c 0
 463 153 438 152 380 151 c 0
 319 150 287 147 249 139 c 0
 193 127 144 121 108 121 c 0
 78 121 56 124 45 133 c 0
 40 137 37 142 37 144 c 0
EndSplineSet
EndChar

StartChar: approxequalorimage
Encoding: 8802 8786 129
Width: 500
VWidth: 0
Flags: MW
LayerCount: 2
Fore
SplineSet
102 460 m 0
 102 467 104 469 108 469 c 0
 114 469 124 461 132 446 c 0
 140 433 143 424 143 419 c 0
 143 414 140 412 132 412 c 0
 119 412 113 421 113 439 c 0
 113 444 110 449 107 449 c 0
 104 449 102 454 102 460 c 0
52 314 m 0
 86 314 104 312 142 312 c 0
 232 312 435 317 438 320 c 0
 440 322 445 322 451 322 c 0
 461 322 474 321 474 314 c 0
 474 311 472 306 468 302 c 0
 459 293 394 291 152 289 c 2
 26 288 l 1
 26 301 l 2
 26 312 27 314 44 314 c 0
 46 314 49 314 52 314 c 0
128 178 m 0
 220 178 233 188 317 188 c 0
 329 188 342 188 355 188 c 0
 469 185 468 185 468 172 c 0
 468 165 467 163 435 163 c 0
 418 163 374 164 349 164 c 0
 301 164 264 162 229 157 c 0
 196 152 154 149 134 149 c 0
 97 149 44 157 44 163 c 0
 45 175 58 178 128 178 c 0
326 86 m 0
 326 90 335 98 340 98 c 0
 348 98 375 64 375 58 c 0
 375 55 370 50 364 50 c 0
 358 50 351 56 341 67 c 0
 331 78 326 82 326 86 c 0
EndSplineSet
EndChar

StartChar: muchless
Encoding: 8803 8810 130
Width: 500
VWidth: 0
Flags: MW
LayerCount: 2
Fore
SplineSet
403 450 m 0
 412 459 418 464 424 464 c 0
 428 464 432 461 434 456 c 0
 436 450 432 444 423 437 c 0
 415 431 409 425 409 422 c 0
 409 416 348 341 308 297 c 2
 281 269 l 1
 302 247 l 2
 314 235 325 223 328 220 c 0
 334 215 391 144 416 111 c 0
 430 92 457 46 457 41 c 0
 457 39 452 38 446 38 c 0
 440 38 430 48 418 66 c 0
 408 81 386 111 368 132 c 0
 351 153 336 172 336 175 c 0
 336 178 316 199 292 222 c 2
 249 264 l 1
 278 295 l 2
 311 330 308 328 334 359 c 0
 352 381 385 429 403 450 c 0
236 459 m 0
 241 459 245 453 245 447 c 0
 245 437 235 421 215 398 c 0
 165 342 160 326 108 276 c 2
 74 243 l 1
 123 192 l 2
 150 164 172 139 172 136 c 0
 173 133 194 111 220 88 c 0
 252 59 267 44 267 37 c 0
 267 34 264 33 258 33 c 0
 244 33 173 97 133 146 c 0
 121 160 97 187 78 205 c 2
 43 237 l 1
 72 268 l 2
 88 285 103 299 105 300 c 0
 111 303 185 397 193 412 c 0
 198 423 222 459 236 459 c 0
EndSplineSet
EndChar

StartChar: muchgreater
Encoding: 8804 8811 131
Width: 500
VWidth: 0
Flags: MW
LayerCount: 2
Fore
SplineSet
93 435 m 0
 95 440 98 443 100 443 c 0
 104 443 175 366 182 353 c 0
 185 348 203 328 221 307 c 2
 254 270 l 1
 241 246 l 2
 233 233 218 213 207 200 c 0
 184 173 161 142 132 101 c 0
 93 46 82 34 73 33 c 0
 65 33 62 35 62 40 c 0
 62 45 65 52 74 60 c 0
 83 69 100 91 112 109 c 0
 124 126 153 165 177 196 c 0
 200 227 224 254 224 260 c 0
 224 266 217 278 200 296 c 0
 175 324 123 384 99 415 c 0
 94 422 91 430 93 435 c 0
285 438 m 0
 285 441 293 442 295 442 c 0
 304 442 313 431 341 392 c 0
 362 363 390 330 404 317 c 0
 428 295 438 284 438 273 c 0
 438 267 435 262 431 254 c 0
 425 244 412 224 400 209 c 0
 389 194 380 181 380 179 c 0
 380 177 370 162 358 145 c 0
 341 120 285 33 273 33 c 0
 271 33 266 37 266 42 c 0
 266 49 280 73 305 105 c 0
 329 136 353 172 359 184 c 0
 365 196 371 207 374 209 c 0
 377 211 388 226 399 242 c 2
 419 271 l 1
 388 301 l 2
 354 333 350 339 308 398 c 0
 293 419 285 433 285 438 c 0
EndSplineSet
EndChar

StartChar: radical
Encoding: 8805 8730 132
Width: 500
VWidth: 0
Flags: MW
LayerCount: 2
Fore
SplineSet
50 200 m 0
 50 213 71 259 82 259 c 0
 96 259 133 213 165 157 c 0
 181 129 203 97 212 86 c 0
 221 75 229 63 229 60 c 0
 229 52 237 53 243 61 c 0
 246 64 255 90 264 117 c 0
 282 172 330 286 344 307 c 0
 353 320 395 416 405 428 c 0
 409 432 414 443 416 451 c 0
 418 464 425 482 439 482 c 0
 445 482 450 478 450 472 c 0
 450 468 444 456 437 443 c 0
 423 417 423 401 407 381 c 0
 401 374 397 364 397 360 c 0
 397 356 387 336 376 317 c 0
 345 261 340 235 311 170 c 0
 298 140 286 112 286 108 c 0
 286 104 281 84 275 64 c 0
 267 39 262 28 252 28 c 0
 245 28 235 34 220 45 c 0
 197 61 184 80 152 136 c 0
 130 175 95 228 91 228 c 0
 89 228 81 219 75 207 c 0
 68 195 62 188 58 188 c 0
 55 188 50 193 50 200 c 0
EndSplineSet
EndChar

StartChar: revsimilar
Encoding: 8806 8765 133
Width: 500
VWidth: 0
Flags: MW
LayerCount: 2
Fore
SplineSet
40 242 m 0
 40 215 72 178 107 178 c 0
 113 178 120 180 131 183 c 0
 168 194 192 215 233 266 c 0
 276 320 307 343 363 361 c 0
 368 363 373 364 377 364 c 0
 383 364 389 363 401 360 c 0
 437 352 460 326 474 281 c 0
 480 262 482 253 482 245 c 0
 482 238 480 232 475 221 c 0
 460 187 448 180 402 175 c 0
 390 174 380 172 372 172 c 0
 359 172 350 174 350 182 c 0
 350 187 360 190 387 192 c 0
 428 196 445 206 455 230 c 0
 458 236 459 241 459 246 c 0
 459 254 457 263 449 283 c 0
 433 323 419 337 390 337 c 0
 386 337 382 337 377 336 c 0
 337 332 299 306 258 255 c 0
 202 187 161 158 112 158 c 0
 64 158 38 176 23 215 c 0
 19 225 18 231 18 238 c 0
 18 245 19 252 23 265 c 0
 33 300 43 315 54 315 c 0
 59 315 71 310 66 317 c 0
 64 321 65 327 69 331 c 0
 80 344 110 354 129 354 c 0
 138 354 146 352 146 344 c 0
 146 336 135 328 122 328 c 0
 115 328 98 323 86 317 c 0
 64 307 55 294 42 252 c 0
 41 249 40 245 40 242 c 0
EndSplineSet
EndChar

StartChar: proportional
Encoding: 8807 8733 134
Width: 500
VWidth: 0
Flags: MW
LayerCount: 2
Fore
SplineSet
145 341 m 0
 183 341 231 312 231 285 c 0
 231 277 233 273 238 273 c 0
 244 273 253 279 260 290 c 0
 267 301 273 310 273 313 c 0
 273 316 279 326 287 337 c 0
 299 353 330 371 362 382 c 0
 368 384 373 385 375 385 c 0
 380 385 379 381 373 370 c 0
 370 365 361 359 353 357 c 0
 327 351 307 330 282 286 c 0
 268 262 262 247 262 235 c 0
 262 222 270 212 286 196 c 0
 307 175 316 170 345 170 c 0
 368 170 386 179 401 196 c 0
 407 203 418 207 426 207 c 0
 432 207 436 205 436 200 c 0
 436 192 400 161 381 154 c 0
 371 150 359 148 348 148 c 0
 318 148 285 161 261 184 c 2
 242 202 l 1
 233 189 l 2
 216 164 177 144 151 144 c 0
 140 144 126 150 126 159 c 0
 126 162 131 164 142 164 c 0
 145 164 149 163 153 163 c 0
 186 163 229 205 229 239 c 0
 229 247 225 254 215 271 c 0
 197 301 175 317 150 317 c 0
 140 317 129 314 118 309 c 0
 97 299 89 279 89 240 c 0
 89 207 96 189 113 178 c 0
 119 174 122 168 122 163 c 0
 122 158 119 154 113 154 c 0
 101 154 71 192 70 208 c 0
 69 223 64 241 64 257 c 0
 64 301 101 341 145 341 c 0
EndSplineSet
EndChar

StartChar: because
Encoding: 8808 8757 135
Width: 500
VWidth: 0
Flags: MW
LayerCount: 2
Fore
SplineSet
147 373 m 0
 147 371 145 367 141 367 c 0
 131 367 101 393 101 403 c 0
 101 409 103 412 107 412 c 0
 113 412 122 406 132 395 c 0
 143 383 147 377 147 373 c 0
399 395 m 0
 399 389 392 386 387 386 c 0
 376 386 372 408 385 408 c 0
 392 408 399 401 399 395 c 0
242 96 m 0
 253 96 272 91 272 79 c 0
 272 74 268 70 260 70 c 0
 251 70 232 85 232 92 c 0
 232 95 236 96 242 96 c 0
EndSplineSet
EndChar

StartChar: integral
Encoding: 8809 8747 136
Width: 500
VWidth: 0
Flags: MW
LayerCount: 2
Fore
SplineSet
218 386 m 0
 218 441 223 465 256 482 c 0
 264 486 275 489 285 489 c 0
 298 489 310 485 318 479 c 0
 322 476 330 473 336 472 c 0
 344 472 349 467 349 461 c 0
 349 448 332 451 322 457 c 0
 316 461 305 465 297 465 c 0
 290 465 279 468 275 473 c 0
 270 478 266 479 266 475 c 0
 266 471 261 465 255 460 c 0
 244 451 237 419 237 384 c 0
 237 371 238 356 240 343 c 0
 252 267 257 241 264 227 c 0
 271 214 281 142 286 64 c 0
 287 55 287 48 287 43 c 0
 287 30 284 26 276 20 c 0
 269 15 261 12 257 12 c 0
 248 12 249 25 259 33 c 0
 264 37 265 43 265 55 c 0
 265 60 266 67 265 75 c 0
 258 148 250 199 238 243 c 0
 224 291 218 336 218 386 c 0
151 64 m 0
 151 69 156 75 161 75 c 0
 165 75 184 50 188 38 c 0
 190 33 200 28 209 26 c 0
 229 22 247 10 247 3 c 0
 247 -1 242 -3 237 -3 c 0
 221 -3 192 12 173 32 c 0
 157 48 151 57 151 64 c 0
EndSplineSet
EndChar

StartChar: dblintegral
Encoding: 8810 8748 137
Width: 500
VWidth: 0
Flags: MW
LayerCount: 2
Fore
SplineSet
255 70 m 0
 255 73 257 79 261 79 c 0
 270 79 296 54 296 45 c 0
 296 37 307 31 317 31 c 0
 320 31 322 32 325 33 c 0
 341 39 359 96 359 141 c 0
 359 177 352 230 342 267 c 0
 334 299 317 345 311 352 c 0
 300 365 285 415 285 440 c 0
 285 463 288 469 302 484 c 0
 314 496 319 500 330 500 c 0
 371 500 413 475 413 462 c 0
 413 458 409 454 401 452 c 0
 395 450 391 451 391 454 c 0
 391 459 362 472 342 477 c 0
 321 482 307 464 307 442 c 0
 307 424 315 399 330 368 c 0
 341 346 346 334 346 328 c 0
 346 326 346 324 344 323 c 0
 331 314 379 311 365 302 c 0
 360 298 359 294 363 280 c 0
 374 243 387 159 387 115 c 0
 387 76 369 64 356 36 c 0
 351 24 344 13 342 11 c 0
 341 10 338 10 334 10 c 0
 318 10 286 15 284 18 c 0
 263 48 255 62 255 70 c 0
87 66 m 0
 87 72 98 80 101 80 c 0
 105 80 110 74 117 62 c 0
 126 47 131 40 146 40 c 0
 160 40 176 47 178 56 c 0
 185 74 190 80 190 109 c 0
 190 153 181 228 170 249 c 0
 164 262 157 279 156 286 c 0
 154 293 151 301 148 304 c 0
 145 307 143 312 143 317 c 0
 143 321 140 333 135 341 c 0
 123 364 117 382 117 398 c 0
 117 406 118 413 121 420 c 0
 133 456 144 474 153 477 c 0
 161 479 168 480 174 480 c 0
 184 480 192 477 194 472 c 0
 199 462 206 471 220 468 c 0
 229 465 233 460 233 451 c 0
 233 442 229 438 222 438 c 0
 216 438 209 442 201 448 c 0
 194 454 185 456 176 456 c 0
 153 456 151 454 144 425 c 0
 142 416 141 409 141 402 c 0
 141 388 147 373 165 327 c 0
 180 289 194 254 197 251 c 0
 200 246 214 157 214 109 c 0
 214 82 205 53 191 33 c 0
 181 19 176 17 156 17 c 0
 135 17 130 19 108 40 c 0
 93 54 87 61 87 66 c 0
EndSplineSet
EndChar

StartChar: angstrom
Encoding: 8818 8491 138
Width: 500
VWidth: 0
Flags: MW
LayerCount: 2
Fore
SplineSet
181 361 m 0
 165 361 139 385 139 410 c 0
 139 433 160 468 188 487 c 0
 202 497 220 501 237 501 c 0
 273 501 310 482 324 451 c 0
 328 443 330 439 330 434 c 0
 330 429 328 423 323 413 c 0
 310 388 303 383 280 378 c 0
 250 372 243 369 243 363 c 0
 243 360 252 342 263 323 c 0
 290 273 292 258 323 207 c 0
 349 164 356 136 380 99 c 1
 403 66 422 27 422 16 c 0
 422 9 419 7 414 7 c 0
 407 7 398 13 395 23 c 0
 393 31 381 54 368 73 c 0
 355 93 342 116 339 124 c 0
 334 135 329 138 316 139 c 0
 297 139 291 142 273 142 c 0
 260 142 239 141 219 140 c 2
 162 137 l 1
 130 72 l 2
 108 27 95 7 89 7 c 0
 81 7 78 9 78 15 c 0
 78 21 83 32 93 48 c 0
 104 64 112 80 112 83 c 0
 112 86 114 91 118 95 c 0
 126 103 146 154 162 209 c 0
 185 286 195 320 202 337 c 0
 204 343 205 347 205 351 c 0
 205 358 201 362 192 362 c 0
 189 362 185 361 181 361 c 0
164 406 m 0
 164 395 182 382 196 382 c 0
 207 382 263 395 278 399 c 0
 291 402 303 421 303 438 c 0
 303 455 297 458 276 466 c 0
 261 472 248 475 237 475 c 0
 201 475 164 432 164 406 c 0
303 162 m 0
 307 162 314 164 314 169 c 0
 314 174 309 182 299 197 c 0
 289 213 273 244 264 266 c 0
 255 289 245 308 242 310 c 0
 239 312 236 319 233 325 c 0
 232 329 230 330 229 330 c 0
 224 330 206 282 206 280 c 0
 206 276 197 246 182 197 c 0
 178 185 175 173 175 170 c 0
 175 168 197 166 225 166 c 0
 228 166 232 166 235 166 c 0
 268 166 297 165 299 163 c 0
 300 162 301 162 303 162 c 0
EndSplineSet
EndChar

StartChar: perthousand
Encoding: 8819 8240 139
Width: 500
VWidth: 0
Flags: MW
LayerCount: 2
Fore
SplineSet
254 421 m 0
 259 431 292 501 306 501 c 0
 313 500 313 501 305 496 c 0
 295 491 299 483 299 470 c 0
 299 461 295 450 286 435 c 0
 278 421 269 403 267 395 c 0
 265 387 252 361 238 337 c 0
 214 297 174 214 167 188 c 0
 163 176 114 84 84 35 c 0
 74 18 63 7 58 7 c 0
 53 7 48 9 48 12 c 0
 48 18 79 74 88 86 c 0
 99 99 154 208 154 216 c 0
 154 228 250 412 254 421 c 0
22 390 m 0
 22 430 62 496 113 496 c 0
 125 496 136 492 146 485 c 0
 174 463 179 452 180 423 c 0
 180 383 162 357 123 340 c 0
 107 333 94 330 83 330 c 0
 71 330 61 334 50 341 c 0
 37 349 22 376 22 390 c 0
158 430 m 0
 158 450 134 469 114 469 c 0
 86 469 50 434 50 392 c 0
 50 375 59 363 76 356 c 0
 85 352 90 350 95 350 c 0
 100 350 106 352 114 356 c 0
 141 368 158 396 158 430 c 0
303 104 m 0
 303 60 277 25 236 25 c 0
 219 25 200 30 180 41 c 0
 163 50 159 58 159 86 c 0
 159 117 176 145 205 164 c 0
 219 173 231 178 242 178 c 0
 280 178 303 140 303 104 c 0
280 109 m 0
 280 134 262 154 240 154 c 0
 222 154 186 118 182 95 c 0
 181 89 181 84 181 80 c 0
 181 62 191 55 219 51 c 0
 228 50 236 50 242 50 c 0
 262 50 270 56 275 74 c 0
 279 87 280 99 280 109 c 0
354 156 m 0
 368 168 375 170 406 170 c 0
 438 170 443 169 455 156 c 0
 465 144 478 122 478 102 c 0
 478 94 475 86 468 69 c 0
 456 42 452 39 429 31 c 0
 416 27 402 25 389 25 c 0
 371 25 357 28 348 36 c 0
 331 52 322 72 322 92 c 0
 322 115 333 138 354 156 c 0
396 45 m 0
 424 45 451 61 451 92 c 0
 451 107 447 125 440 137 c 0
 434 146 428 149 406 149 c 0
 383 149 377 146 364 133 c 0
 356 125 348 113 348 106 c 0
 348 99 346 91 342 87 c 0
 341 86 340 84 340 82 c 0
 340 68 370 45 396 45 c 0
EndSplineSet
EndChar

StartChar: musicsharpsign
Encoding: 8820 9839 140
Width: 500
VWidth: 0
Flags: MW
LayerCount: 2
Fore
SplineSet
193 396 m 0
 193 384 191 365 191 356 c 0
 191 341 194 335 202 335 c 0
 211 335 226 342 253 353 c 2
 310 377 l 1
 310 410 310 442 310 475 c 1
 324 475 l 2
 333 475 336 475 336 466 c 0
 336 459 334 438 334 427 c 0
 334 404 335 396 359 408 c 0
 368 413 383 418 391 420 c 0
 404 423 405 422 405 410 c 0
 405 401 403 396 397 396 c 0
 386 396 349 375 343 365 c 0
 338 358 336 329 336 306 c 0
 336 290 337 278 340 277 c 0
 344 276 354 281 365 288 c 0
 375 295 384 298 390 298 c 0
 396 298 400 294 400 288 c 0
 400 279 346 247 342 241 c 0
 338 236 335 194 335 162 c 0
 335 147 335 134 337 128 c 0
 339 123 335 120 327 120 c 0
 316 120 314 123 312 141 c 0
 311 153 310 175 310 192 c 0
 310 194 310 196 310 198 c 0
 310 214 308 222 304 222 c 0
 298 222 255 197 212 168 c 2
 196 157 l 1
 199 105 l 2
 200 76 204 48 207 44 c 0
 215 35 199 25 191 25 c 0
 172 25 178 70 177 97 c 0
 177 128 177 148 157 130 c 0
 150 124 129 119 116 119 c 0
 109 119 105 120 105 123 c 0
 105 125 120 136 137 148 c 0
 158 163 168 175 169 182 c 0
 169 186 169 191 169 198 c 0
 169 227 166 278 165 280 c 0
 164 281 156 276 148 270 c 0
 139 264 126 260 115 260 c 0
 105 260 95 263 95 271 c 0
 95 278 121 264 121 277 c 0
 121 281 131 292 144 300 c 2
 168 315 l 1
 168 356 l 2
 168 388 170 401 177 408 c 0
 182 414 186 416 188 416 c 0
 191 416 193 410 193 396 c 0
313 320 m 0
 313 334 312 343 301 343 c 0
 300 343 l 0
 292 343 284 340 223 311 c 2
 192 296 l 1
 194 247 l 2
 195 221 196 196 199 196 c 0
 202 196 211 200 220 206 c 0
 231 212 255 226 274 237 c 2
 309 257 l 1
 312 292 l 2
 313 302 313 312 313 320 c 0
EndSplineSet
EndChar

StartChar: musicflatsign
Encoding: 8821 9837 141
Width: 500
VWidth: 0
Flags: MW
LayerCount: 2
Fore
SplineSet
259 327 m 0
 311 327 341 284 341 240 c 0
 341 212 330 183 308 156 c 0
 279 121 264 85 231 54 c 0
 226 50 220 40 217 33 c 0
 213 24 196 7 184 7 c 0
 181 7 178 9 175 13 c 0
 167 24 161 157 160 339 c 0
 160 368 159 391 159 408 c 0
 159 462 161 465 169 469 c 0
 175 471 180 473 181 473 c 0
 184 473 183 301 187 301 c 0
 188 301 197 306 207 312 c 0
 222 322 241 327 259 327 c 0
301 282 m 0
 290 294 276 300 260 300 c 0
 240 300 218 291 197 273 c 2
 181 259 l 1
 186 192 l 2
 189 155 190 106 190 82 c 0
 190 79 190 76 190 73 c 0
 190 53 191 38 193 38 c 0
 196 38 203 47 209 56 c 0
 234 95 268 143 287 166 c 0
 310 194 313 205 314 241 c 0
 314 262 312 270 301 282 c 0
EndSplineSet
EndChar

StartChar: musicalnote
Encoding: 8822 9834 142
Width: 500
VWidth: 0
Flags: MW
LayerCount: 2
Fore
SplineSet
278 437 m 0
 278 456 278 475 289 475 c 0
 291 475 293 473 293 469 c 0
 293 462 303 472 307 472 c 0
 315 472 328 461 353 433 c 0
 402 379 422 341 428 288 c 0
 429 284 428 279 428 274 c 0
 428 243 417 204 400 180 c 0
 390 166 384 159 380 159 c 0
 378 159 377 161 377 165 c 0
 377 173 381 188 390 209 c 0
 399 231 403 251 403 273 c 0
 403 327 387 360 334 413 c 0
 320 427 313 434 310 434 c 0
 302 434 304 393 304 358 c 0
 304 336 304 308 304 288 c 0
 304 172 299 158 267 111 c 0
 235 64 194 39 153 39 c 0
 139 39 125 42 111 48 c 0
 86 60 79 67 73 91 c 0
 72 95 72 100 72 105 c 0
 72 143 108 193 167 232 c 0
 190 247 203 253 221 253 c 0
 232 253 258 247 271 247 c 0
 284 247 283 270 283 289 c 0
 283 305 278 396 278 437 c 0
EndSplineSet
EndChar

StartChar: dagger
Encoding: 8823 8224 143
Width: 500
VWidth: 0
Flags: MW
LayerCount: 2
Fore
SplineSet
246 493 m 0
 256 493 257 470 257 441 c 2
 257 399 l 1
 272 400 l 2
 284 401 338 406 358 406 c 0
 369 406 370 404 370 397 c 0
 370 388 367 386 348 385 c 0
 335 385 311 382 294 378 c 2
 262 372 l 1
 260 351 l 2
 260 349 260 346 260 342 c 0
 260 328 262 306 265 288 c 0
 272 235 273 106 278 50 c 0
 279 34 280 24 280 18 c 0
 280 9 279 7 275 7 c 0
 273 7 271 8 269 8 c 0
 259 9 257 13 256 28 c 0
 255 47 247 139 247 173 c 0
 247 184 248 193 249 197 c 0
 252 205 252 212 251 213 c 0
 248 217 239 295 237 331 c 0
 236 349 233 367 229 371 c 0
 225 375 206 377 180 378 c 0
 156 379 130 380 130 388 c 0
 130 396 157 402 192 402 c 2
 228 402 l 1
 228 432 l 2
 228 453 231 466 236 470 c 0
 240 474 244 481 244 487 c 0
 244 491 244 493 246 493 c 0
EndSplineSet
EndChar

StartChar: daggerdbl
Encoding: 8824 8225 144
Width: 500
VWidth: 0
Flags: MW
LayerCount: 2
Fore
SplineSet
219 430 m 0
 219 443 210 455 210 467 c 0
 210 476 215 485 225 490 c 0
 232 493 236 495 238 495 c 0
 241 495 237 482 237 476 c 0
 237 460 242 434 247 429 c 0
 249 427 268 424 291 422 c 0
 322 420 332 418 332 412 c 0
 332 406 323 403 288 402 c 2
 244 401 l 1
 246 379 l 1
 257 300 261 249 261 200 c 0
 261 134 265 128 299 128 c 0
 314 128 334 126 334 117 c 0
 334 111 321 107 300 107 c 2
 271 107 l 1
 274 56 l 2
 275 39 276 28 276 21 c 0
 276 10 274 7 270 7 c 0
 257 7 254 11 253 32 c 0
 248 96 246 110 218 110 c 0
 209 110 190 107 180 107 c 0
 171 107 166 108 166 112 c 0
 166 115 169 120 174 125 c 0
 179 131 193 133 212 133 c 2
 241 133 l 1
 238 230 l 2
 236 284 232 333 229 338 c 0
 226 344 223 358 222 371 c 0
 220 399 226 401 195 397 c 0
 174 395 171 397 171 406 c 0
 171 415 182 421 195 421 c 0
 199 421 202 420 206 419 c 0
 217 416 219 418 219 430 c 0
EndSplineSet
EndChar

StartChar: paragraph
Encoding: 8825 182 145
Width: 500
VWidth: 0
Flags: MW
LayerCount: 2
Fore
SplineSet
230 235 m 0
 218 235 201 230 187 230 c 0
 157 230 128 243 113 264 c 0
 105 275 103 285 103 308 c 0
 103 375 120 409 175 453 c 0
 202 474 220 479 268 483 c 0
 320 487 294 491 353 491 c 0
 392 491 397 490 397 481 c 0
 397 470 388 465 366 465 c 0
 342 465 345 446 345 416 c 0
 345 388 346 352 350 338 c 0
 355 316 361 206 361 139 c 0
 361 128 361 120 361 110 c 0
 361 85 363 59 366 51 c 0
 368 45 368 39 368 32 c 0
 368 10 360 -14 350 -14 c 0
 342 -14 341 -8 340 29 c 0
 339 62 339 82 339 96 c 0
 339 114 340 122 342 132 c 0
 344 142 343 155 340 161 c 0
 337 167 334 202 332 238 c 0
 330 296 320 391 320 448 c 0
 320 462 325 464 306 465 c 0
 303 465 301 465 298 465 c 0
 284 465 274 464 272 462 c 0
 270 460 269 441 269 414 c 0
 269 351 273 245 278 217 c 0
 281 199 283 182 283 175 c 0
 283 171 282 170 282 166 c 0
 282 160 284 150 286 140 c 0
 290 120 293 78 293 45 c 0
 293 18 294 -2 283 -2 c 0
 276 -2 272 17 269 59 c 0
 265 128 256 212 252 223 c 0
 249 231 242 235 230 235 c 0
EndSplineSet
EndChar

StartChar: largecircle
Encoding: 8830 9711 146
Width: 500
VWidth: 0
Flags: MW
LayerCount: 2
Fore
SplineSet
305 2 m 0
 292 2 279 -2 262 -2 c 0
 227 -2 161 6 141 15 c 0
 78 42 65 52 48 78 c 0
 39 93 27 107 22 111 c 0
 0 129 -14 174 -14 222 c 0
 -14 232 -13 241 -12 251 c 0
 -5 308 4 341 27 381 c 0
 62 444 114 483 203 510 c 0
 225 517 243 520 258 520 c 0
 261 520 263 520 266 520 c 0
 350 512 348 512 379 488 c 0
 453 431 493 371 508 296 c 0
 512 277 514 263 514 250 c 0
 514 223 505 201 484 156 c 0
 451 89 413 49 354 20 c 0
 333 10 311 2 305 2 c 0
156 33 m 0
 188 33 263 15 288 15 c 0
 294 15 298 15 298 17 c 0
 298 19 307 24 320 27 c 0
 349 34 404 70 423 95 c 0
 458 140 492 218 492 251 c 0
 492 282 480 321 461 357 c 0
 442 393 385 457 352 478 c 0
 334 490 324 492 281 494 c 0
 271 494 262 495 254 495 c 0
 239 495 227 494 224 493 c 0
 142 461 112 446 91 423 c 0
 41 369 23 333 16 270 c 0
 14 251 12 233 12 218 c 0
 12 174 23 145 45 121 c 0
 56 109 68 91 73 82 c 0
 78 71 91 61 106 54 c 0
 119 48 130 41 132 38 c 0
 134 35 144 33 156 33 c 0
EndSplineSet
EndChar

StartChar: zeromonospace
Encoding: 9008 65296 147
Width: 500
VWidth: 0
Flags: MW
LayerCount: 2
Fore
SplineSet
248 509 m 0
 250 511 257 512 265 512 c 0
 283 512 308 508 322 502 c 0
 351 489 396 451 396 438 c 0
 396 432 402 416 409 402 c 0
 420 379 432 337 432 303 c 0
 432 282 427 251 417 168 c 0
 411 120 388 76 350 35 c 0
 311 -6 295 -14 252 -14 c 0
 189 -14 166 -6 133 27 c 0
 110 50 102 63 97 83 c 0
 93 98 86 114 82 120 c 0
 73 135 68 195 68 253 c 0
 68 294 71 334 77 354 c 0
 91 403 110 440 136 466 c 0
 165 493 181 501 219 505 c 0
 234 507 246 508 248 509 c 0
395 191 m 1
 395 206 405 273 405 297 c 0
 405 331 399 360 388 389 c 0
 364 451 361 456 327 471 c 0
 306 481 290 485 272 485 c 0
 230 485 183 477 172 471 c 0
 160 465 128 431 128 425 c 0
 128 423 123 411 117 397 c 0
 97 354 87 303 87 249 c 0
 87 223 91 178 93 177 c 0
 95 175 96 166 96 158 c 0
 96 136 131 59 148 44 c 0
 173 22 183 18 224 12 c 0
 239 10 249 9 257 9 c 0
 268 9 275 11 287 16 c 0
 321 31 378 91 382 115 c 0
 385 125 396 179 395 191 c 1
EndSplineSet
EndChar

StartChar: onemonospace
Encoding: 9009 65297 148
Width: 500
VWidth: 0
Flags: MW
LayerCount: 2
Fore
SplineSet
233 487 m 0
 233 494 238 499 245 499 c 0
 252 499 258 494 261 486 c 0
 262 481 263 414 263 327 c 0
 263 285 262 237 262 196 c 0
 262 114 263 49 265 40 c 0
 266 33 267 29 267 25 c 0
 267 17 258 9 250 9 c 0
 248 9 246 11 244 13 c 0
 242 17 239 121 239 244 c 0
 238 367 236 474 234 480 c 0
 233 483 233 485 233 487 c 0
EndSplineSet
EndChar

StartChar: twomonospace
Encoding: 9010 65298 149
Width: 500
VWidth: 0
Flags: MW
LayerCount: 2
Fore
SplineSet
183 496 m 0
 204 496 209 506 227 506 c 0
 237 506 252 504 278 499 c 0
 324 491 336 484 363 451 c 0
 381 430 391 401 391 374 c 0
 391 362 388 350 384 340 c 0
 373 314 323 265 290 248 c 0
 242 223 222 211 202 195 c 0
 177 176 141 126 132 101 c 0
 127 89 125 70 125 54 c 0
 125 42 126 33 129 31 c 0
 134 27 169 25 206 25 c 0
 240 25 275 27 290 30 c 0
 304 33 322 35 333 35 c 0
 336 35 338 35 340 35 c 0
 402 28 403 27 403 17 c 0
 403 8 401 4 391 4 c 0
 378 4 354 9 337 9 c 0
 326 9 314 9 303 7 c 0
 270 2 220 -2 180 -2 c 0
 164 -2 149 -1 139 -0 c 0
 110 3 109 3 103 21 c 0
 100 29 99 39 99 50 c 0
 99 73 105 100 114 119 c 0
 143 175 183 212 269 259 c 0
 333 295 366 335 366 377 c 0
 366 393 362 410 352 427 c 0
 336 455 324 462 285 472 c 0
 267 477 250 480 234 480 c 0
 214 480 193 476 169 468 c 0
 132 456 132 456 123 430 c 0
 117 411 112 404 105 404 c 0
 99 404 97 406 97 416 c 0
 97 418 97 421 97 425 c 0
 100 453 117 479 134 483 c 0
 142 485 152 488 157 491 c 0
 162 494 174 496 183 496 c 0
EndSplineSet
EndChar

StartChar: threemonospace
Encoding: 9011 65299 150
Width: 500
VWidth: 0
Flags: MW
LayerCount: 2
Fore
SplineSet
378 465 m 0
 378 473 234 470 196 470 c 0
 190 470 183 470 177 470 c 0
 137 470 108 471 108 473 c 0
 108 475 111 482 115 487 c 0
 120 494 128 496 156 496 c 0
 160 496 164 496 168 496 c 0
 193 496 214 496 216 497 c 0
 217 498 226 499 237 499 c 0
 263 499 301 498 348 497 c 0
 403 496 420 496 420 487 c 0
 420 475 394 440 352 396 c 0
 302 343 286 326 286 320 c 0
 286 318 288 317 291 317 c 0
 297 317 315 312 332 306 c 0
 365 293 413 251 413 234 c 0
 413 229 420 209 427 191 c 0
 436 168 439 156 439 132 c 0
 439 126 438 119 438 111 c 0
 437 75 435 63 426 51 c 0
 391 4 333 -16 229 -17 c 0
 172 -17 160 -14 142 -5 c 0
 99 17 61 55 61 74 c 0
 61 78 63 83 68 83 c 0
 75 83 86 74 88 65 c 0
 90 54 150 13 174 7 c 0
 192 3 210 0 229 0 c 0
 262 0 298 7 339 21 c 0
 389 38 395 42 407 66 c 0
 413 77 415 93 415 110 c 0
 415 160 394 228 364 258 c 0
 347 276 309 290 282 290 c 0
 264 290 250 282 237 272 c 0
 225 263 218 260 213 260 c 0
 210 260 204 263 204 269 c 0
 204 275 215 288 236 307 c 0
 264 333 316 389 375 460 c 0
 377 462 378 464 378 465 c 0
EndSplineSet
EndChar

StartChar: fourmonospace
Encoding: 9012 65300 151
Width: 500
VWidth: 0
Flags: MW
LayerCount: 2
Fore
SplineSet
142 473 m 0
 142 491 143 496 158 496 c 0
 164 496 168 490 168 476 c 0
 168 442 141 353 136 320 c 0
 133 303 123 262 114 229 c 0
 105 201 100 178 100 170 c 0
 100 164 105 165 114 165 c 0
 149 165 193 170 230 170 c 0
 268 171 274 172 274 184 c 0
 274 190 270 245 265 313 c 0
 264 323 264 333 264 343 c 0
 264 368 269 432 283 432 c 0
 294 432 296 429 296 410 c 0
 296 368 289 380 289 338 c 0
 289 309 292 265 296 230 c 2
 302 178 l 1
 367 176 l 2
 422 175 436 175 436 161 c 0
 436 151 421 149 371 148 c 0
 332 147 312 145 307 140 c 0
 300 133 295 108 295 83 c 0
 295 64 301 27 301 17 c 0
 301 5 298 2 289 2 c 0
 285 2 280 4 278 7 c 0
 276 10 275 42 274 76 c 0
 274 111 274 140 272 141 c 0
 270 143 255 144 233 144 c 0
 199 144 132 139 91 139 c 0
 71 139 64 142 64 153 c 0
 64 161 68 173 75 192 c 0
 100 264 109 298 117 343 c 0
 122 368 129 403 134 422 c 0
 138 441 141 464 142 473 c 0
EndSplineSet
EndChar

StartChar: fivemonospace
Encoding: 9013 65301 152
Width: 500
VWidth: 0
Flags: MW
LayerCount: 2
Fore
SplineSet
389 455 m 0
 363 455 314 458 281 458 c 0
 251 458 222 457 204 456 c 2
 148 451 l 1
 145 422 l 2
 144 412 143 396 143 377 c 0
 143 365 143 351 144 340 c 2
 147 287 l 1
 198 289 l 2
 211 290 220 290 228 290 c 0
 251 290 263 286 300 272 c 0
 345 255 356 248 388 218 c 2
 424 183 l 1
 427 143 l 2
 428 137 428 132 428 126 c 0
 428 73 405 41 351 16 c 0
 318 1 313 0 254 -1 c 0
 205 -1 187 1 177 7 c 0
 170 12 156 17 146 19 c 0
 125 23 72 72 72 87 c 0
 72 94 74 98 78 98 c 0
 84 98 94 90 110 73 c 0
 148 33 189 17 255 17 c 0
 300 17 305 18 341 37 c 0
 388 61 404 84 404 132 c 0
 404 168 395 182 356 213 c 0
 315 245 257 264 210 264 c 0
 190 264 173 261 159 254 c 0
 146 247 137 244 132 244 c 0
 128 244 125 246 124 250 c 0
 124 250 119 387 119 420 c 0
 119 463 121 465 129 469 c 0
 135 473 140 479 140 483 c 0
 140 488 143 491 146 491 c 0
 148 491 151 489 153 486 c 0
 155 484 211 482 277 482 c 0
 287 482 296 482 305 482 c 0
 403 482 414 479 414 461 c 0
 414 457 410 455 389 455 c 0
EndSplineSet
EndChar

StartChar: sixmonospace
Encoding: 9014 65302 153
Width: 500
VWidth: 0
Flags: MW
LayerCount: 2
Fore
SplineSet
60 131 m 0
 60 147 48 178 48 199 c 0
 48 218 52 242 61 286 c 0
 73 345 82 362 127 413 c 0
 149 438 183 465 192 465 c 0
 195 465 197 467 197 470 c 0
 197 485 305 496 336 496 c 0
 355 496 402 472 402 462 c 0
 402 457 401 454 397 454 c 0
 393 454 386 457 376 462 c 0
 366 467 349 470 334 470 c 0
 299 470 218 459 202 451 c 0
 188 444 125 382 109 360 c 0
 98 344 75 250 75 227 c 0
 75 224 75 222 76 222 c 0
 79 222 135 272 140 272 c 0
 143 272 146 273 149 280 c 0
 154 289 182 298 206 299 c 0
 210 299 216 303 220 309 c 0
 225 316 233 318 271 318 c 0
 276 318 281 318 287 318 c 0
 320 318 349 315 352 312 c 0
 355 309 362 307 367 307 c 0
 380 307 378 291 392 295 c 0
 393 295 395 295 396 295 c 0
 404 295 412 288 437 259 c 0
 452 242 452 240 452 186 c 0
 452 109 444 88 394 40 c 0
 351 -2 332 -9 283 -9 c 0
 242 -9 175 4 150 17 c 0
 109 38 60 100 60 131 c 0
370 285 m 0
 347 291 301 294 266 294 c 0
 246 294 229 293 223 290 c 0
 216 286 197 278 181 271 c 0
 165 264 135 242 114 223 c 2
 75 188 l 1
 79 159 l 2
 81 143 88 117 95 102 c 0
 108 76 114 70 167 36 c 0
 187 23 230 16 269 16 c 0
 297 16 324 19 338 27 c 0
 361 39 396 71 410 92 c 0
 423 111 429 146 429 191 c 0
 429 231 428 236 410 253 c 0
 400 262 392 273 392 275 c 0
 392 278 382 282 370 285 c 0
EndSplineSet
EndChar

StartChar: sevenmonospace
Encoding: 9015 65303 154
Width: 500
VWidth: 0
Flags: MW
LayerCount: 2
Fore
SplineSet
82 344 m 0
 69 344 70 371 70 415 c 0
 70 427 71 439 71 454 c 2
 72 488 l 1
 99 497 l 2
 115 502 133 504 171 504 c 0
 223 504 323 501 358 501 c 0
 361 501 364 501 367 501 c 0
 395 501 409 499 417 493 c 2
 430 485 l 1
 419 470 l 2
 413 462 408 454 408 452 c 0
 408 451 396 427 380 400 c 0
 365 373 347 334 340 314 c 0
 334 294 326 273 322 267 c 0
 308 244 298 201 292 129 c 0
 290 99 288 67 288 48 c 0
 288 35 290 31 290 21 c 0
 290 1 282 -14 271 -14 c 0
 265 -14 263 -11 263 14 c 0
 263 94 270 95 275 165 c 1
 279 235 281 220 298 273 c 0
 304 293 315 322 322 336 c 0
 328 351 335 368 337 375 c 0
 343 396 353 400 361 422 c 0
 363 428 388 475 384 477 c 0
 382 478 346 478 297 478 c 0
 281 478 263 478 244 478 c 0
 141 477 107 476 102 471 c 0
 97 466 95 445 94 408 c 0
 92 363 89 344 82 344 c 0
EndSplineSet
EndChar

StartChar: eightmonospace
Encoding: 9016 65304 155
Width: 500
VWidth: 0
Flags: MW
LayerCount: 2
Fore
SplineSet
225 489 m 0
 231 489 240 488 254 491 c 0
 269 494 279 495 285 495 c 0
 291 495 293 493 293 490 c 0
 293 485 300 488 305 488 c 0
 319 488 356 469 356 460 c 0
 356 453 359 457 363 457 c 0
 371 457 378 436 378 416 c 0
 376 388 350 333 328 315 c 0
 317 307 309 297 309 294 c 0
 309 291 325 280 345 270 c 0
 380 252 380 252 406 199 c 0
 432 148 432 145 432 100 c 2
 432 53 l 1
 414 36 l 2
 389 13 325 -7 264 -12 c 0
 240 -14 223 -14 210 -14 c 0
 189 -14 177 -12 155 -6 c 0
 121 3 84 34 79 58 c 0
 76 74 68 89 68 109 c 0
 68 139 81 181 102 204 c 0
 114 218 149 242 192 265 c 0
 211 275 227 286 228 289 c 0
 229 292 223 296 214 298 c 0
 181 304 109 344 98 361 c 0
 93 370 90 379 90 388 c 0
 90 410 105 434 134 453 c 0
 154 467 211 489 225 489 c 0
357 425 m 0
 357 452 302 469 266 469 c 0
 216 469 157 450 130 419 c 0
 119 407 113 397 113 388 c 0
 113 373 129 360 164 345 c 0
 211 325 262 310 280 310 c 0
 283 310 285 310 286 311 c 0
 302 320 336 368 348 395 c 0
 353 408 357 417 357 425 c 0
199 7 m 0
 224 7 323 19 347 19 c 0
 355 19 361 20 361 22 c 0
 361 24 370 33 382 41 c 0
 403 55 410 64 410 92 c 0
 410 129 395 182 372 215 c 0
 359 234 348 242 316 257 c 0
 288 270 278 274 272 274 c 0
 268 274 265 272 261 270 c 0
 257 267 231 255 203 241 c 0
 143 212 129 202 110 173 c 0
 99 156 96 147 96 122 c 0
 96 75 103 53 131 30 c 0
 151 13 165 7 199 7 c 0
EndSplineSet
EndChar

StartChar: ninemonospace
Encoding: 9017 65305 156
Width: 500
VWidth: 0
Flags: MW
LayerCount: 2
Fore
SplineSet
333 285 m 0
 333 287 332 288 330 288 c 0
 321 288 285 276 269 268 c 0
 250 259 198 255 174 251 c 0
 172 251 169 250 167 250 c 0
 145 250 118 285 109 302 c 0
 102 315 99 332 99 345 c 0
 99 357 101 366 107 368 c 0
 118 372 106 375 106 381 c 0
 106 392 123 414 152 440 c 0
 185 469 195 474 257 488 c 0
 277 493 287 495 296 495 c 0
 304 495 311 493 323 489 c 0
 364 477 388 451 399 407 c 0
 400 402 401 398 401 393 c 0
 401 377 394 357 377 322 c 0
 369 306 362 290 362 286 c 0
 362 274 346 259 346 247 c 0
 346 241 343 229 338 218 c 0
 324 186 321 178 315 159 c 0
 274 27 260 -9 248 -9 c 0
 241 -9 234 1 240 8 c 0
 248 18 257 66 262 78 c 0
 274 103 294 163 294 170 c 0
 294 175 300 193 307 210 c 0
 321 242 333 275 333 285 c 0
339 455 m 0
 322 463 306 467 290 467 c 0
 283 467 276 467 270 465 c 0
 262 462 241 457 224 454 c 0
 198 449 189 444 167 421 c 0
 152 406 141 391 141 387 c 0
 141 383 137 379 133 377 c 0
 127 375 125 366 125 347 c 0
 125 312 139 283 157 281 c 0
 167 280 187 277 201 277 c 0
 220 277 245 283 297 301 c 0
 336 315 364 342 373 375 c 0
 375 384 376 390 376 395 c 0
 376 403 374 410 368 422 c 0
 361 439 352 449 339 455 c 0
EndSplineSet
EndChar

StartChar: Amonospace
Encoding: 9025 65313 157
Width: 500
VWidth: 0
Flags: MW
LayerCount: 2
Fore
SplineSet
43 -18 m 0
 38 -18 34 -13 34 -8 c 0
 34 -1 46 26 47 28 c 0
 50 43 58 65 70 91 c 0
 78 108 86 124 86 127 c 0
 86 130 91 143 96 157 c 0
 152 301 150 305 194 430 c 0
 207 468 217 499 217 500 c 0
 217 501 219 501 222 501 c 0
 229 501 244 486 244 478 c 0
 244 474 251 457 261 440 c 0
 271 423 282 402 284 393 c 0
 286 385 293 368 300 355 c 0
 306 342 312 328 312 323 c 0
 312 318 318 303 325 288 c 0
 340 256 356 207 374 178 c 0
 397 141 397 132 423 91 c 0
 447 54 466 15 466 3 c 0
 466 -1 461 -3 458 -3 c 0
 450 -3 441 7 436 23 c 0
 433 33 424 50 416 59 c 0
 408 68 393 92 385 109 c 0
 359 164 356 166 311 167 c 0
 289 167 239 167 198 166 c 2
 123 165 l 1
 113 137 l 2
 101 105 73 40 65 27 c 0
 62 22 59 12 59 5 c 0
 59 -7 51 -18 43 -18 c 0
241 426 m 0
 237 433 231 438 228 438 c 0
 214 438 168 289 151 243 c 0
 143 221 137 203 137 197 c 0
 137 192 162 192 191 192 c 0
 195 192 200 192 204 192 c 2
 300 192 l 2
 304 192 309 192 312 192 c 0
 326 192 332 194 332 202 c 0
 332 210 326 225 315 251 c 0
 291 308 271 356 259 387 c 0
 253 401 246 419 241 426 c 0
EndSplineSet
EndChar

StartChar: Bmonospace
Encoding: 9026 65314 158
Width: 500
VWidth: 0
Flags: MW
LayerCount: 2
Fore
SplineSet
86 237 m 0
 86 264 89 262 89 277 c 0
 89 285 88 297 86 310 c 0
 82 333 80 363 80 391 c 0
 80 427 83 459 89 465 c 0
 99 476 99 480 88 480 c 0
 84 480 82 482 82 485 c 0
 82 489 85 492 87 492 c 0
 90 492 103 496 118 499 c 0
 134 503 164 505 195 505 c 0
 231 505 266 502 281 497 c 0
 309 487 338 484 360 465 c 0
 375 452 378 449 378 429 c 0
 378 380 365 347 335 319 c 0
 321 307 315 301 315 298 c 0
 315 296 317 294 321 293 c 0
 344 286 374 269 382 261 c 0
 386 256 396 241 404 227 c 0
 414 209 420 183 420 158 c 0
 420 65 348 8 268 4 c 0
 221 2 174 -9 127 -9 c 0
 109 -9 96 -8 96 -5 c 0
 96 -3 95 3 93 9 c 0
 91 17 91 22 91 36 c 0
 91 43 91 58 91 69 c 0
 91 102 86 194 86 237 c 0
322 459 m 0
 283 469 249 480 193 480 c 0
 167 480 142 478 128 474 c 0
 110 469 108 468 105 442 c 0
 103 426 103 410 103 393 c 0
 103 367 105 340 109 315 c 2
 115 278 l 1
 157 278 l 2
 192 279 204 280 228 292 c 0
 244 300 262 307 268 307 c 0
 284 307 326 336 338 355 c 0
 347 369 358 395 358 417 c 0
 358 439 346 453 322 459 c 0
165 259 m 0
 161 259 156 259 152 259 c 0
 131 259 117 256 115 253 c 0
 113 249 112 214 112 171 c 0
 112 105 114 23 118 17 c 0
 120 14 124 12 133 12 c 0
 142 12 156 14 179 17 c 0
 210 20 254 24 276 27 c 0
 334 33 357 47 381 93 c 0
 394 118 397 130 397 159 c 0
 397 190 394 197 378 223 c 0
 361 250 356 255 324 267 c 0
 302 275 287 279 273 279 c 0
 260 279 247 276 228 269 c 0
 209 262 191 259 165 259 c 0
EndSplineSet
EndChar

StartChar: Cmonospace
Encoding: 9027 65315 159
Width: 500
VWidth: 0
Flags: MW
LayerCount: 2
Fore
SplineSet
425 138 m 0
 429 138 434 133 434 126 c 0
 434 102 389 45 346 19 c 0
 320 3 285 -6 250 -6 c 0
 213 -6 174 3 142 21 c 0
 102 43 72 102 69 164 c 0
 67 197 66 223 66 245 c 0
 66 291 71 317 83 350 c 0
 97 387 105 401 132 430 c 0
 169 469 183 479 225 488 c 0
 246 493 262 495 276 495 c 0
 296 495 312 491 332 481 c 0
 358 469 369 459 390 431 c 0
 408 405 415 392 415 378 c 0
 415 363 412 359 405 359 c 0
 399 359 393 369 384 392 c 0
 368 432 356 446 325 461 c 0
 311 468 293 471 274 471 c 0
 242 471 206 462 178 445 c 0
 128 414 87 321 87 238 c 0
 86 164 101 102 128 67 c 0
 150 38 200 20 249 20 c 0
 268 20 288 23 305 29 c 0
 343 42 384 77 402 112 c 0
 410 129 418 138 425 138 c 0
EndSplineSet
EndChar

StartChar: Dmonospace
Encoding: 9028 65316 160
Width: 500
VWidth: 0
Flags: MW
LayerCount: 2
Fore
SplineSet
101 463 m 0
 101 472 59 474 59 480 c 0
 59 484 81 490 125 496 c 0
 137 498 148 498 152 498 c 0
 156 498 185 496 224 494 c 0
 306 490 340 478 375 440 c 0
 402 410 430 350 437 306 c 0
 439 291 441 273 441 255 c 0
 441 223 438 190 432 172 c 0
 407 97 338 32 269 17 c 0
 259 15 238 8 222 3 c 0
 200 -4 134 -9 94 -9 c 0
 79 -9 61 -9 61 -2 c 0
 61 3 72 11 75 9 c 0
 77 8 86 9 97 12 c 2
 117 18 l 1
 114 63 l 2
 112 88 110 110 108 113 c 0
 106 116 105 156 105 203 c 0
 105 208 105 213 105 218 c 0
 105 315 93 338 93 425 c 0
 93 443 94 456 96 457 c 0
 99 459 101 461 101 463 c 0
300 457 m 0
 281 464 204 469 158 469 c 0
 140 469 126 468 123 466 c 0
 120 463 118 439 118 411 c 0
 118 375 121 334 125 327 c 0
 128 323 129 276 130 222 c 0
 130 168 132 108 135 86 c 0
 138 64 140 38 139 29 c 0
 139 13 140 12 154 12 c 0
 162 12 174 14 181 17 c 0
 218 31 259 41 276 41 c 0
 280 41 293 37 289 41 c 0
 289 42 289 42 289 43 c 0
 289 47 299 54 319 64 c 0
 341 74 380 117 396 151 c 0
 410 179 416 210 416 244 c 0
 416 264 414 284 409 306 c 0
 392 385 355 438 300 457 c 0
EndSplineSet
EndChar

StartChar: Emonospace
Encoding: 9029 65317 161
Width: 500
VWidth: 0
Flags: MW
LayerCount: 2
Fore
SplineSet
51 480 m 0
 51 496 78 496 113 496 c 0
 137 496 167 495 195 491 c 0
 209 489 221 488 234 488 c 0
 250 488 267 489 289 492 c 0
 326 497 361 501 385 501 c 0
 406 501 417 500 417 491 c 0
 417 483 403 475 386 475 c 0
 365 475 269 461 239 461 c 0
 215 461 141 473 119 473 c 0
 103 473 98 468 98 457 c 0
 98 450 99 442 102 429 c 0
 105 415 108 375 109 340 c 2
 110 278 l 1
 158 280 l 2
 184 281 209 283 213 286 c 0
 217 288 302 292 328 292 c 0
 353 292 358 291 362 285 c 0
 364 282 365 279 365 276 c 0
 365 270 361 266 356 266 c 0
 349 266 341 275 333 272 c 0
 322 268 202 258 155 257 c 0
 124 256 117 255 117 249 c 0
 117 240 121 193 123 133 c 2
 126 30 l 1
 244 30 l 2
 376 29 436 25 445 14 c 0
 448 11 449 8 449 6 c 0
 449 1 443 -2 431 -2 c 0
 427 -2 422 -2 416 -1 c 0
 393 2 329 4 274 4 c 0
 234 4 200 3 189 1 c 0
 184 0 177 0 169 0 c 0
 143 0 108 4 103 9 c 0
 101 11 99 55 99 106 c 0
 98 157 95 213 92 230 c 0
 88 247 85 294 84 333 c 0
 81 405 71 454 56 471 c 0
 52 475 51 477 51 480 c 0
EndSplineSet
EndChar

StartChar: Fmonospace
Encoding: 9030 65318 162
Width: 500
VWidth: 0
Flags: MW
LayerCount: 2
Fore
SplineSet
114 59 m 0
 114 76 118 103 118 112 c 0
 118 120 117 127 115 136 c 0
 110 159 107 204 104 293 c 0
 103 337 100 382 97 393 c 0
 94 405 92 416 94 418 c 0
 97 423 88 443 88 452 c 0
 88 466 93 480 100 480 c 0
 112 480 140 495 151 497 c 0
 163 499 211 501 262 501 c 0
 324 501 390 499 398 496 c 0
 407 493 412 485 412 479 c 0
 412 473 408 469 401 469 c 0
 400 469 400 469 399 469 c 0
 364 475 317 478 271 478 c 0
 224 478 178 475 147 469 c 2
 116 463 l 1
 120 426 l 2
 124 393 126 349 127 298 c 2
 128 281 l 1
 163 283 l 2
 256 288 309 290 339 290 c 0
 370 290 378 290 378 279 c 0
 378 271 367 269 334 267 c 0
 295 265 189 262 155 256 c 1
 132 253 l 1
 136 199 l 2
 138 170 139 122 139 92 c 0
 139 85 139 79 139 74 c 0
 139 46 141 32 146 22 c 0
 150 15 152 9 152 5 c 0
 152 -1 148 -4 139 -4 c 0
 125 -4 114 27 114 59 c 0
EndSplineSet
EndChar

StartChar: Gmonospace
Encoding: 9031 65319 163
Width: 500
VWidth: 0
Flags: MW
LayerCount: 2
Fore
SplineSet
258 -14 m 0
 250 -14 200 -28 187 -28 c 0
 177 -28 168 -25 146 -17 c 0
 106 -3 68 28 58 54 c 0
 52 69 50 153 46 170 c 0
 44 177 43 192 43 209 c 0
 43 244 46 290 50 307 c 0
 69 389 81 414 116 451 c 0
 129 465 153 482 167 489 c 0
 189 500 201 501 246 501 c 0
 312 501 335 495 358 470 c 0
 375 452 389 427 389 416 c 0
 389 411 383 407 380 407 c 0
 374 407 365 416 354 433 c 0
 327 474 319 478 251 478 c 0
 197 478 191 476 169 463 c 0
 156 455 134 436 121 420 c 0
 101 396 95 384 86 348 c 0
 72 293 67 270 67 232 c 0
 67 207 69 174 73 122 c 0
 77 76 80 63 91 49 c 0
 107 28 162 0 188 -0 c 0
 242 0 307 34 329 68 c 0
 336 79 343 85 347 85 c 0
 351 85 353 80 353 70 c 0
 353 36 269 -14 258 -14 c 0
281 236 m 2
 219 236 186 234 186 247 c 0
 186 253 203 254 206 249 c 0
 209 244 211 245 216 251 c 0
 221 257 237 259 287 259 c 0
 322 259 357 260 364 263 c 0
 370 265 377 267 384 267 c 0
 395 267 457 261 457 252 c 0
 457 245 438 238 417 238 c 2
 396 238 l 1
 396 210 l 2
 396 194 393 180 390 178 c 0
 387 176 387 171 389 168 c 0
 391 165 392 146 393 125 c 0
 395 96 399 42 399 10 c 0
 399 -6 398 -12 390 -12 c 0
 386 -12 381 -10 378 -7 c 0
 372 -1 370 20 369 89 c 0
 368 138 368 191 367 207 c 2
 367 236 l 1
 281 236 l 2
EndSplineSet
EndChar

StartChar: Hmonospace
Encoding: 9032 65320 164
Width: 500
VWidth: 0
Flags: MW
LayerCount: 2
Fore
SplineSet
380 453 m 0
 380 467 389 491 398 491 c 0
 402 491 405 487 407 479 c 0
 410 465 416 396 418 353 c 0
 419 337 420 319 422 314 c 0
 425 303 430 222 433 128 c 0
 434 95 438 66 441 63 c 0
 445 59 447 49 447 39 c 0
 447 26 444 12 438 10 c 0
 433 8 426 9 422 13 c 0
 414 21 407 110 405 214 c 2
 404 253 l 1
 359 251 l 2
 333 250 272 248 223 246 c 0
 174 244 127 241 118 239 c 0
 107 236 103 242 103 205 c 0
 103 186 106 89 106 42 c 0
 106 14 105 -4 104 -4 c 0
 101 -5 98 -6 96 -6 c 0
 85 -6 85 11 81 127 c 0
 77 257 65 278 61 407 c 0
 60 434 58 459 55 463 c 0
 54 465 53 467 53 469 c 0
 53 475 58 480 66 480 c 0
 85 480 88 458 88 394 c 0
 88 387 88 381 88 374 c 0
 88 342 91 308 93 296 c 0
 96 283 99 266 101 258 c 2
 104 244 l 1
 118 257 l 2
 129 268 132 270 164 270 c 0
 180 270 202 270 221 270 c 0
 255 270 297 270 328 272 c 2
 401 275 l 1
 400 302 l 2
 398 340 391 393 384 426 c 0
 381 437 380 446 380 453 c 0
EndSplineSet
EndChar

StartChar: Imonospace
Encoding: 9033 65321 165
Width: 500
VWidth: 0
Flags: MW
LayerCount: 2
Fore
SplineSet
137 470 m 0
 137 475 155 488 162 488 c 0
 167 488 309 478 313 475 c 0
 315 473 316 472 316 470 c 0
 316 456 254 463 249 452 c 0
 248 450 248 442 248 429 c 0
 248 368 259 206 268 157 c 0
 270 143 272 109 272 83 c 0
 271 43 269 36 262 34 c 0
 255 33 253 38 250 56 c 0
 249 64 248 73 248 80 c 0
 248 95 252 102 248 121 c 0
 245 132 241 172 238 209 c 0
 235 247 228 311 224 352 c 0
 221 385 219 409 219 424 c 0
 219 442 222 449 227 449 c 0
 230 449 232 450 232 453 c 0
 232 459 137 465 137 470 c 0
213 18 m 0
 245 18 258 25 286 25 c 0
 302 25 320 21 337 20 c 0
 353 18 368 16 368 6 c 0
 368 -1 348 -3 301 -3 c 0
 251 -3 204 -8 164 -8 c 0
 142 -8 132 -5 132 2 c 0
 132 5 137 7 143 7 c 0
 149 7 158 9 164 12 c 0
 170 15 190 18 208 18 c 0
 210 18 211 18 213 18 c 0
EndSplineSet
EndChar

StartChar: Jmonospace
Encoding: 9034 65322 166
Width: 500
VWidth: 0
Flags: MW
LayerCount: 2
Fore
SplineSet
254 489 m 0
 254 506 330 504 354 504 c 0
 396 504 430 504 430 490 c 0
 430 483 416 480 388 480 c 2
 352 480 l 1
 355 445 l 1
 359 378 367 258 375 188 c 0
 379 147 381 112 381 87 c 0
 381 62 379 48 374 48 c 0
 366 48 371 45 371 40 c 0
 371 31 354 17 330 9 c 0
 316 4 304 -1 302 -4 c 0
 300 -7 291 -9 282 -9 c 0
 266 -9 245 -18 229 -18 c 0
 220 -18 208 -15 188 -9 c 0
 140 5 108 23 92 45 c 0
 80 61 70 97 70 115 c 0
 70 123 74 128 80 128 c 0
 96 128 99 76 105 63 c 0
 116 42 181 4 226 4 c 0
 251 4 289 17 304 25 c 0
 314 31 329 36 336 38 c 0
 350 41 355 55 355 92 c 0
 355 114 353 143 349 184 c 0
 338 286 327 428 325 471 c 0
 325 473 312 475 297 475 c 0
 271 475 254 481 254 489 c 0
EndSplineSet
EndChar

StartChar: Kmonospace
Encoding: 9035 65323 167
Width: 500
VWidth: 0
Flags: MW
LayerCount: 2
Fore
SplineSet
72 479 m 0
 72 489 74 502 83 502 c 0
 92 502 103 481 103 461 c 0
 103 449 107 414 111 382 c 0
 115 350 119 307 120 286 c 0
 121 266 122 245 126 245 c 0
 130 245 144 257 158 273 c 0
 173 290 196 313 209 325 c 0
 249 361 283 400 319 446 c 0
 338 471 354 491 356 491 c 0
 358 491 362 489 366 486 c 0
 372 482 370 477 359 460 c 0
 344 436 288 368 271 353 c 0
 266 348 263 343 263 337 c 0
 263 321 297 282 302 265 c 0
 304 258 315 229 328 202 c 0
 340 175 351 151 351 149 c 0
 351 139 392 57 395 49 c 0
 398 42 408 27 416 16 c 0
 424 5 428 -1 428 -5 c 0
 428 -10 418 -19 414 -19 c 0
 411 -19 408 -17 403 -12 c 0
 390 0 336 109 330 135 c 0
 323 162 265 283 250 302 c 2
 236 320 l 1
 196 280 l 2
 174 258 150 233 144 224 c 0
 138 215 129 207 125 207 c 0
 121 207 120 205 120 197 c 0
 120 192 121 184 122 174 c 0
 124 156 127 109 127 70 c 0
 127 60 127 51 127 43 c 0
 127 7 127 -3 115 -3 c 0
 104 -3 101 16 100 81 c 0
 95 302 91 375 77 441 c 0
 74 457 72 470 72 479 c 0
EndSplineSet
EndChar

StartChar: Lmonospace
Encoding: 9036 65324 168
Width: 500
VWidth: 0
Flags: MW
LayerCount: 2
Fore
SplineSet
76 64 m 0
 76 75 76 82 76 92 c 0
 76 125 68 190 62 200 c 0
 56 209 52 307 52 405 c 0
 52 428 52 451 53 473 c 0
 54 480 58 485 66 487 c 0
 72 488 78 489 78 490 c 1
 78 490 78 462 78 421 c 0
 78 404 78 384 78 363 c 0
 78 262 80 228 87 201 c 0
 99 150 102 125 103 72 c 0
 104 46 105 23 107 20 c 0
 108 18 115 16 125 16 c 0
 131 16 139 17 149 18 c 0
 176 21 213 22 249 22 c 0
 288 22 326 20 347 17 c 0
 366 14 396 11 413 10 c 0
 440 8 448 7 448 -0 c 0
 448 -10 444 -14 430 -14 c 0
 422 -14 411 -13 394 -11 c 0
 368 -8 287 -7 214 -7 c 2
 82 -7 l 1
 78 22 l 2
 76 33 76 49 76 64 c 0
EndSplineSet
EndChar

StartChar: Mmonospace
Encoding: 9037 65325 169
Width: 500
VWidth: 0
Flags: MW
LayerCount: 2
Fore
SplineSet
55 57 m 0
 55 119 56 216 56 299 c 0
 56 372 56 438 57 446 c 0
 58 458 56 485 65 485 c 0
 70 485 79 477 86 462 c 0
 92 449 101 436 105 432 c 0
 109 429 112 425 112 422 c 0
 112 416 144 368 144 361 c 0
 144 353 200 238 207 231 c 0
 208 230 209 229 211 229 c 0
 218 229 229 242 243 270 c 0
 262 307 307 374 335 403 c 0
 346 415 360 434 365 445 c 0
 374 465 383 476 392 476 c 0
 414 476 400 449 400 434 c 0
 400 428 402 421 406 411 c 0
 416 381 413 311 422 279 c 0
 425 265 428 237 428 218 c 0
 429 182 435 115 443 54 c 0
 444 41 445 29 445 22 c 0
 445 18 446 16 445 15 c 0
 442 11 443 -2 443 -11 c 0
 443 -22 440 -29 434 -29 c 0
 421 -29 419 -17 419 6 c 0
 419 15 420 26 420 35 c 0
 420 52 418 67 416 71 c 0
 412 79 407 147 406 201 c 0
 406 211 403 237 400 257 c 0
 395 294 389 412 376 412 c 0
 373 412 361 398 348 382 c 0
 335 366 317 343 307 331 c 0
 298 319 287 302 283 293 c 0
 266 252 252 230 229 198 c 0
 220 186 216 184 209 188 c 0
 198 195 168 249 118 354 c 0
 102 388 89 407 84 407 c 0
 79 407 79 254 79 127 c 0
 79 83 79 44 79 11 c 0
 79 -8 75 -19 67 -19 c 0
 65 -19 62 -19 59 -17 c 0
 56 -16 55 14 55 57 c 0
EndSplineSet
EndChar

StartChar: Nmonospace
Encoding: 9038 65326 170
Width: 500
VWidth: 0
Flags: MW
LayerCount: 2
Fore
SplineSet
66 435 m 0
 66 469 66 485 82 485 c 0
 86 485 89 481 93 472 c 0
 96 464 109 444 124 426 c 0
 139 409 152 391 154 386 c 0
 156 382 160 374 163 370 c 0
 167 366 178 344 187 322 c 0
 206 275 221 267 244 231 c 0
 259 206 277 183 337 116 c 0
 358 93 379 67 386 58 c 0
 395 46 400 40 404 40 c 0
 407 40 408 44 408 52 c 0
 408 60 409 72 411 78 c 0
 413 87 413 115 413 150 c 0
 413 204 411 271 408 295 c 0
 404 327 399 406 399 448 c 0
 399 468 401 470 408 472 c 0
 414 474 420 475 421 474 c 0
 422 473 424 434 426 388 c 0
 428 342 431 276 434 243 c 0
 436 220 437 195 437 175 c 0
 437 140 434 110 432 60 c 0
 431 26 430 -3 429 -5 c 0
 429 -8 423 -9 416 -9 c 0
 407 -9 399 -2 384 21 c 0
 373 37 352 64 338 78 c 0
 305 112 257 170 234 204 c 0
 224 219 209 238 201 247 c 0
 194 256 173 294 156 330 c 0
 130 382 106 416 96 416 c 0
 86 416 85 368 85 307 c 0
 85 244 92 69 92 36 c 0
 92 4 90 -1 86 -4 c 0
 82 -7 78 -7 76 -5 c 0
 72 -1 63 262 63 348 c 0
 63 381 66 386 66 423 c 0
 66 427 66 431 66 435 c 0
EndSplineSet
EndChar

StartChar: Omonospace
Encoding: 9039 65327 171
Width: 500
VWidth: 0
Flags: MW
LayerCount: 2
Fore
SplineSet
96 471 m 0
 120 490 161 509 203 509 c 0
 219 509 233 506 242 501 c 0
 247 498 259 496 267 496 c 0
 275 496 300 493 321 488 c 0
 355 480 363 475 381 456 c 0
 417 418 430 399 461 340 c 0
 483 297 489 286 489 268 c 0
 489 238 481 202 473 178 c 0
 467 161 461 142 459 136 c 0
 451 109 403 55 365 30 c 0
 330 7 271 -17 242 -21 c 0
 238 -22 234 -22 229 -22 c 0
 215 -22 196 -20 175 -15 c 0
 141 -7 127 -1 104 17 c 0
 70 43 32 96 25 128 c 0
 16 172 11 194 11 262 c 0
 11 290 13 317 15 328 c 0
 21 357 66 454 73 454 c 0
 75 454 85 462 96 471 c 0
294 467 m 0
 248 472 245 483 192 483 c 0
 171 483 178 480 158 477 c 0
 140 475 107 456 91 438 c 0
 75 420 43 355 36 326 c 0
 33 315 32 299 32 279 c 0
 32 222 42 143 56 111 c 0
 68 86 120 29 142 19 c 0
 154 14 200 3 224 3 c 0
 254 3 282 15 351 51 c 0
 374 63 418 113 433 143 c 0
 451 179 461 221 461 256 c 0
 461 279 457 298 448 310 c 0
 443 318 432 338 425 354 c 0
 404 398 368 443 342 456 c 0
 335 460 313 465 294 467 c 0
EndSplineSet
EndChar

StartChar: Pmonospace
Encoding: 9040 65328 172
Width: 500
VWidth: 0
Flags: MW
LayerCount: 2
Fore
SplineSet
77 369 m 0
 77 387 72 403 72 422 c 0
 72 447 76 472 82 472 c 0
 87 472 92 473 98 482 c 0
 105 493 112 496 137 497 c 0
 172 499 196 500 217 500 c 0
 245 500 266 499 294 495 c 0
 340 489 350 485 375 468 c 0
 408 446 412 441 425 399 c 0
 431 379 433 358 433 339 c 0
 433 314 428 290 419 272 c 0
 405 245 364 208 337 197 c 0
 325 193 203 184 125 183 c 2
 98 183 l 1
 98 109 l 2
 97 52 95 31 89 16 c 0
 84 5 79 -4 76 -4 c 0
 70 -4 67 2 67 11 c 0
 67 16 68 22 70 27 c 0
 73 34 75 57 75 82 c 0
 75 108 74 141 74 184 c 0
 74 208 74 231 74 254 c 0
 74 291 73 320 72 322 c 0
 68 328 77 357 77 369 c 0
283 469 m 0
 257 472 231 474 204 474 c 0
 179 474 153 473 127 470 c 0
 105 467 103 466 100 450 c 0
 99 443 98 394 98 342 c 0
 98 290 99 234 100 213 c 0
 101 208 115 207 151 207 c 0
 185 207 201 205 201 201 c 0
 201 199 202 198 203 198 c 0
 204 198 206 199 208 201 c 0
 213 205 252 208 273 208 c 0
 291 208 298 206 301 201 c 0
 303 198 304 197 305 197 c 0
 306 197 306 198 306 200 c 0
 306 204 315 210 325 214 c 0
 380 237 411 284 411 338 c 0
 411 353 409 369 404 385 c 0
 387 440 359 460 283 469 c 0
EndSplineSet
EndChar

StartChar: Qmonospace
Encoding: 9041 65329 173
Width: 500
VWidth: 0
Flags: MW
LayerCount: 2
Fore
SplineSet
487 15 m 0
 487 11 479 3 475 3 c 0
 471 3 466 8 455 18 c 0
 444 29 428 41 420 46 c 0
 406 54 404 54 392 46 c 0
 385 42 379 36 379 33 c 0
 379 30 361 20 338 8 c 0
 299 -13 257 -22 206 -22 c 0
 139 -22 117 -16 75 25 c 0
 29 69 13 110 13 198 c 0
 13 208 13 218 13 229 c 0
 15 309 25 341 60 393 c 0
 99 452 128 476 174 491 c 0
 181 493 191 495 203 495 c 0
 230 495 264 489 281 481 c 0
 293 475 316 467 332 462 c 0
 348 457 364 450 369 446 c 0
 373 442 379 438 382 438 c 0
 394 438 454 404 461 393 c 0
 475 373 485 332 485 293 c 0
 485 226 465 138 438 102 c 0
 431 93 428 88 428 83 c 0
 428 74 440 59 446 59 c 0
 452 59 487 23 487 15 c 0
261 465 m 0
 259 468 244 469 226 469 c 0
 204 469 176 467 163 463 c 0
 140 457 132 451 93 399 c 0
 49 342 36 309 36 235 c 0
 36 221 36 206 37 188 c 0
 41 111 50 85 93 42 c 0
 127 7 142 4 199 4 c 0
 271 4 328 22 368 60 c 2
 385 76 l 1
 366 99 l 2
 356 112 345 122 343 123 c 0
 336 126 290 186 290 192 c 0
 290 196 293 194 297 188 c 0
 308 175 306 190 315 190 c 0
 320 190 326 183 338 168 c 0
 348 156 366 135 380 123 c 2
 405 101 l 1
 418 121 l 2
 440 153 458 223 458 290 c 0
 458 357 439 396 402 403 c 0
 396 404 382 412 371 419 c 0
 360 427 332 440 308 447 c 0
 284 454 263 462 261 465 c 0
EndSplineSet
EndChar

StartChar: Rmonospace
Encoding: 9042 65330 174
Width: 500
VWidth: 0
Flags: MW
LayerCount: 2
Fore
SplineSet
56 22 m 0
 56 61 63 149 63 194 c 0
 63 238 61 291 56 382 c 0
 55 405 55 421 55 433 c 0
 55 452 56 459 59 459 c 0
 62 459 67 465 70 472 c 0
 77 490 94 496 156 497 c 0
 185 498 222 499 236 501 c 0
 254 504 265 505 276 505 c 0
 289 505 302 503 324 498 c 0
 369 488 380 480 398 447 c 0
 407 431 412 415 412 396 c 0
 412 384 410 371 406 357 c 0
 399 332 335 266 301 249 c 0
 290 243 280 236 280 234 c 0
 280 231 287 224 294 217 c 0
 314 198 324 171 342 148 c 0
 377 103 391 82 391 77 c 0
 391 75 403 61 417 46 c 0
 436 27 445 14 445 1 c 0
 445 -9 441 -14 436 -14 c 0
 431 -14 426 -9 421 -0 c 0
 416 8 406 22 397 30 c 0
 388 39 376 53 372 61 c 0
 360 82 296 173 274 198 c 0
 265 209 257 220 257 223 c 0
 257 228 255 230 249 230 c 0
 244 230 237 228 226 225 c 0
 207 219 149 214 118 214 c 0
 103 214 102 216 102 222 c 0
 102 231 105 233 140 233 c 0
 180 233 266 251 295 266 c 0
 324 281 366 324 378 351 c 0
 386 368 390 382 390 395 c 0
 390 409 386 421 377 436 c 0
 360 466 330 477 280 477 c 0
 224 477 94 469 90 465 c 0
 84 459 80 424 80 380 c 0
 80 327 84 294 84 231 c 0
 84 173 80 79 80 35 c 0
 80 28 80 26 80 21 c 0
 80 2 76 -8 70 -8 c 0
 67 -8 65 -6 61 -2 c 0
 57 2 56 6 56 22 c 0
EndSplineSet
EndChar

StartChar: Smonospace
Encoding: 9043 65331 175
Width: 500
VWidth: 0
Flags: MW
LayerCount: 2
Fore
SplineSet
64 65 m 0
 64 69 72 78 77 78 c 0
 81 78 86 73 98 62 c 0
 140 21 149 19 252 16 c 0
 275 15 293 14 308 14 c 0
 360 14 368 21 390 46 c 0
 404 62 410 82 410 105 c 0
 410 121 407 137 401 155 c 0
 387 194 375 209 333 237 c 0
 301 258 295 260 261 262 c 0
 240 263 204 270 180 278 c 0
 145 289 135 294 129 306 c 0
 121 322 118 340 118 359 c 0
 118 385 125 412 140 430 c 0
 156 451 199 480 213 480 c 0
 217 480 225 484 230 489 c 0
 235 494 248 496 263 496 c 0
 287 496 317 491 333 481 c 0
 350 470 368 443 368 427 c 0
 368 426 367 425 366 425 c 0
 360 425 340 438 331 450 c 0
 321 462 287 475 263 475 c 0
 239 475 193 451 166 425 c 0
 149 408 140 391 140 370 c 0
 140 359 142 347 147 333 c 2
 155 309 l 1
 200 298 l 2
 225 292 259 286 276 286 c 0
 302 285 311 282 338 266 c 0
 388 235 411 208 425 166 c 0
 432 143 436 124 436 106 c 0
 436 72 423 44 397 19 c 0
 376 -1 355 -7 296 -7 c 0
 280 -7 263 -7 241 -6 c 2
 150 -2 l 1
 120 16 l 2
 104 26 84 41 76 49 c 0
 68 57 64 61 64 65 c 0
EndSplineSet
EndChar

StartChar: Tmonospace
Encoding: 9044 65332 176
Width: 500
VWidth: 0
Flags: MW
LayerCount: 2
Fore
SplineSet
155 491 m 2
 187 492 221 492 255 492 c 0
 343 492 426 489 431 485 c 0
 433 483 435 481 435 479 c 0
 435 460 255 473 240 462 c 0
 235 459 234 451 237 433 c 0
 239 420 241 385 242 354 c 0
 243 323 246 276 251 249 c 0
 257 211 264 81 264 22 c 0
 264 -7 262 -9 256 -9 c 0
 244 -9 240 20 236 133 c 0
 233 237 218 277 217 384 c 2
 216 463 l 1
 185 466 l 2
 179 466 171 466 162 466 c 0
 146 466 125 466 109 465 c 2
 65 462 l 1
 66 471 67 479 68 488 c 1
 155 491 l 2
EndSplineSet
EndChar

StartChar: Umonospace
Encoding: 9045 65333 177
Width: 500
VWidth: 0
Flags: MW
LayerCount: 2
Fore
SplineSet
88 249 m 0
 88 217 82 203 82 172 c 0
 82 92 100 59 164 30 c 0
 188 19 198 15 212 15 c 0
 218 15 225 16 235 17 c 0
 308 26 376 71 404 127 c 0
 415 150 416 158 416 246 c 0
 416 298 413 366 410 398 c 0
 408 419 406 436 406 447 c 0
 406 455 407 460 408 462 c 0
 415 471 400 477 405 486 c 0
 407 489 409 490 411 490 c 0
 430 490 440 324 442 289 c 0
 444 252 446 220 447 218 c 0
 448 217 448 214 448 211 c 0
 448 190 435 134 425 113 c 0
 406 72 356 29 308 10 c 0
 278 -2 264 -5 232 -5 c 0
 229 -5 226 -5 223 -5 c 0
 181 -5 173 -3 142 12 c 0
 96 35 76 61 65 109 c 0
 61 126 59 143 59 158 c 0
 59 163 59 168 60 172 c 0
 62 188 62 216 62 248 c 0
 62 300 60 361 56 395 c 0
 54 415 52 427 52 435 c 0
 52 447 55 450 62 459 c 0
 69 467 74 475 76 475 c 0
 79 475 88 268 88 249 c 0
EndSplineSet
EndChar

StartChar: Vmonospace
Encoding: 9046 65334 178
Width: 500
VWidth: 0
Flags: MW
LayerCount: 2
Fore
SplineSet
30 452 m 0
 30 458 41 470 45 470 c 0
 53 470 93 365 104 336 c 0
 109 322 118 300 122 287 c 0
 126 274 131 262 134 258 c 0
 137 254 147 232 158 207 c 0
 187 136 192 126 235 73 c 0
 242 64 250 53 252 48 c 0
 254 43 258 38 261 38 c 0
 269 38 312 132 326 181 c 0
 333 206 349 245 361 269 c 0
 373 292 388 328 395 347 c 0
 414 399 414 391 435 445 c 0
 447 472 455 486 462 486 c 0
 465 486 470 482 470 477 c 0
 470 465 458 428 450 420 c 0
 448 417 445 410 445 404 c 0
 445 398 442 389 438 383 c 0
 434 377 428 363 424 351 c 0
 420 340 406 306 392 275 c 0
 358 203 338 128 303 57 c 0
 289 28 277 0 275 -5 c 0
 273 -11 268 -14 263 -14 c 0
 257 -14 250 -10 248 -3 c 0
 243 14 194 94 182 105 c 0
 177 110 172 115 172 118 c 0
 172 121 167 131 160 142 c 0
 154 153 145 171 141 183 c 0
 131 214 96 279 85 312 c 0
 76 341 47 412 35 439 c 0
 32 445 30 449 30 452 c 0
EndSplineSet
EndChar

StartChar: Wmonospace
Encoding: 9047 65335 179
Width: 500
VWidth: 0
Flags: MW
LayerCount: 2
Fore
SplineSet
41 456 m 0
 41 467 48 477 54 477 c 0
 58 477 62 473 63 465 c 0
 64 458 71 429 78 402 c 0
 85 375 90 348 90 342 c 0
 90 320 99 298 105 275 c 0
 121 209 132 173 151 107 c 0
 155 94 161 57 168 57 c 0
 172 57 174 64 174 77 c 0
 174 86 178 109 182 128 c 0
 192 171 209 252 222 291 c 0
 227 307 233 328 235 337 c 0
 238 350 246 360 252 360 c 0
 260 360 261 347 264 332 c 0
 272 285 285 231 290 226 c 0
 293 223 295 216 295 211 c 0
 295 206 301 190 308 176 c 0
 315 162 329 135 339 115 c 0
 349 95 355 86 358 86 c 0
 365 86 375 176 380 217 c 0
 386 271 407 377 420 422 c 0
 424 438 429 458 431 465 c 0
 433 475 437 488 447 488 c 0
 453 488 459 483 459 476 c 0
 459 472 453 448 446 423 c 0
 426 354 409 261 395 146 c 0
 392 120 389 90 387 80 c 0
 385 70 384 58 384 54 c 0
 384 47 373 35 376 29 c 0
 377 27 377 25 377 22 c 0
 377 9 370 -12 364 -12 c 0
 357 -12 344 27 332 75 c 0
 329 88 318 111 308 126 c 0
 289 154 254 247 253 269 c 0
 253 275 252 280 249 280 c 0
 246 280 243 275 241 269 c 0
 236 248 218 178 214 154 c 0
 210 122 202 108 198 75 c 0
 195 47 177 -8 169 -8 c 0
 158 -8 134 56 122 122 c 0
 119 135 113 155 109 166 c 0
 104 177 101 191 101 198 c 0
 101 204 96 224 90 241 c 0
 84 258 76 294 72 320 c 0
 68 346 58 385 51 408 c 0
 45 429 41 446 41 456 c 0
EndSplineSet
EndChar

StartChar: Xmonospace
Encoding: 9048 65336 180
Width: 500
VWidth: 0
Flags: MW
LayerCount: 2
Fore
SplineSet
60 486 m 0
 58 486 54 490 54 494 c 0
 54 496 55 496 57 496 c 0
 60 496 62 494 62 491 c 0
 62 488 61 486 60 486 c 0
60 468 m 0
 60 474 64 479 67 479 c 0
 72 479 79 472 87 458 c 0
 93 447 116 417 139 391 c 0
 208 313 223 295 231 282 c 0
 235 275 238 272 242 272 c 0
 247 272 253 280 263 297 c 0
 277 319 281 326 294 356 c 0
 299 367 333 416 359 450 c 0
 365 458 376 469 384 473 c 0
 390 476 394 478 396 478 c 0
 399 478 399 475 399 470 c 0
 399 464 396 458 392 456 c 0
 388 454 375 435 362 416 c 0
 349 396 337 380 335 380 c 0
 332 380 323 363 312 342 c 0
 301 321 289 297 283 288 c 0
 266 261 260 250 260 243 c 0
 260 239 261 237 264 234 c 0
 313 177 415 46 415 41 c 0
 415 39 423 29 431 19 c 0
 441 7 446 -4 446 -12 c 0
 446 -18 443 -24 437 -24 c 0
 429 -24 419 -11 397 22 c 0
 345 99 277 185 253 203 c 0
 248 207 244 210 241 210 c 0
 235 210 231 201 219 176 c 0
 210 157 166 87 133 43 c 0
 119 24 88 -25 74 -25 c 0
 70 -25 68 -22 68 -18 c 0
 68 -11 73 0 83 12 c 0
 92 22 99 32 99 35 c 0
 99 38 108 51 119 64 c 0
 152 103 184 154 206 199 c 0
 218 224 223 235 223 243 c 0
 223 248 222 251 219 257 c 0
 213 271 184 305 139 354 c 0
 112 385 72 435 65 449 c 0
 62 456 60 463 60 468 c 0
EndSplineSet
EndChar

StartChar: Ymonospace
Encoding: 9049 65337 181
Width: 500
VWidth: 0
Flags: MW
LayerCount: 2
Fore
SplineSet
390 469 m 0
 390 475 421 500 429 500 c 0
 434 500 436 494 436 490 c 0
 436 483 431 475 423 467 c 0
 403 447 329 342 310 320 c 0
 301 308 292 291 291 283 c 0
 289 261 288 232 288 204 c 0
 288 133 297 95 297 21 c 0
 297 -3 295 -4 286 -4 c 0
 274 -4 275 -1 274 35 c 0
 272 102 269 102 267 189 c 2
 265 269 l 1
 229 309 l 2
 209 331 190 354 185 361 c 0
 166 390 80 475 69 475 c 0
 66 475 64 480 64 486 c 0
 64 499 72 499 79 487 c 0
 82 481 85 481 85 485 c 0
 85 490 87 490 96 485 c 0
 113 476 186 401 227 350 c 0
 246 326 263 308 266 307 c 0
 275 307 311 351 365 429 c 0
 379 448 390 466 390 469 c 0
EndSplineSet
EndChar

StartChar: Zmonospace
Encoding: 9050 65338 182
Width: 500
VWidth: 0
Flags: MW
LayerCount: 2
Fore
SplineSet
392 7 m 0
 419 7 438 6 438 -7 c 0
 438 -14 428 -17 390 -19 c 0
 333 -21 345 -31 289 -31 c 0
 253 -31 208 -27 185 -21 c 0
 169 -17 156 -14 147 -14 c 0
 133 -14 103 -24 79 -24 c 0
 68 -24 62 -21 62 -15 c 0
 62 -7 70 5 84 26 c 0
 98 45 110 63 112 65 c 0
 118 69 195 183 213 213 c 0
 222 228 225 235 225 239 c 0
 225 243 222 245 218 248 c 0
 183 275 154 304 154 310 c 0
 154 315 157 317 161 317 c 0
 170 317 188 308 207 291 c 0
 224 277 240 265 243 265 c 0
 246 265 256 282 267 304 c 0
 278 326 296 354 305 367 c 0
 315 380 323 391 323 393 c 0
 323 395 328 404 335 413 c 0
 342 422 353 440 359 452 c 2
 370 475 l 1
 264 473 l 2
 234 472 208 472 186 472 c 0
 108 472 76 475 76 484 c 0
 76 492 88 494 138 495 c 0
 213 497 186 500 252 500 c 0
 309 500 396 498 401 495 c 0
 409 490 408 483 399 474 c 0
 395 470 391 461 389 455 c 0
 387 449 377 434 368 421 c 0
 335 378 308 335 284 289 c 2
 259 242 l 1
 271 228 l 2
 278 221 291 207 301 198 c 0
 314 187 319 179 316 173 c 0
 313 165 311 165 298 172 c 0
 290 176 274 187 265 198 c 0
 255 209 245 217 243 217 c 0
 240 217 235 209 231 200 c 0
 225 185 194 140 176 119 c 0
 173 116 169 108 165 101 c 0
 161 94 145 71 130 50 c 0
 114 29 102 11 102 9 c 0
 102 6 139 10 148 10 c 0
 161 10 173 8 187 4 c 0
 210 -3 244 -7 274 -7 c 0
 322 -7 344 7 392 7 c 0
EndSplineSet
EndChar

StartChar: amonospace
Encoding: 9057 65345 183
Width: 500
VWidth: 0
Flags: MW
LayerCount: 2
Fore
SplineSet
145 265 m 0
 142 265 138 272 138 278 c 0
 138 295 170 318 209 328 c 0
 227 333 245 335 262 335 c 0
 302 335 336 322 352 300 c 0
 362 285 363 276 365 170 c 0
 366 107 368 48 370 38 c 0
 374 16 368 9 380 -4 c 0
 384 -8 386 -12 386 -16 c 0
 386 -21 382 -25 376 -25 c 0
 367 -25 351 -8 351 1 c 0
 351 6 349 18 346 29 c 2
 340 49 l 1
 319 33 l 2
 293 14 239 1 185 1 c 0
 138 1 128 5 120 28 c 0
 116 39 114 50 114 61 c 0
 114 96 132 132 163 160 c 0
 199 193 261 217 307 217 c 2
 334 217 l 1
 337 247 l 2
 338 253 338 258 338 263 c 0
 338 290 326 303 295 311 c 0
 286 314 275 315 264 315 c 0
 227 315 186 301 165 280 c 0
 155 270 149 265 145 265 c 0
137 58 m 0
 137 29 155 20 189 20 c 0
 202 20 217 22 234 25 c 0
 282 33 304 44 323 67 c 0
 337 85 344 109 344 142 c 0
 344 152 344 161 343 172 c 0
 340 192 339 201 326 201 c 0
 319 201 307 198 289 193 c 0
 225 177 189 157 160 119 c 0
 145 98 137 76 137 58 c 0
EndSplineSet
EndChar

StartChar: bmonospace
Encoding: 9058 65346 184
Width: 500
VWidth: 0
Flags: MW
LayerCount: 2
Fore
SplineSet
176 310 m 0
 187 310 214 315 229 315 c 0
 259 315 287 304 312 283 c 0
 340 259 356 214 356 167 c 0
 356 143 352 118 343 96 c 0
 330 63 297 17 286 17 c 0
 283 17 275 13 269 7 c 0
 259 -2 234 -8 212 -8 c 0
 199 -8 187 -7 180 -2 c 0
 173 3 163 7 159 7 c 0
 155 7 149 9 147 13 c 0
 145 16 144 92 144 191 c 0
 144 206 144 221 144 237 c 0
 145 410 147 457 152 460 c 0
 156 463 160 465 162 465 c 0
 167 465 170 451 170 435 c 0
 170 413 166 401 166 373 c 0
 166 345 169 313 172 310 c 0
 172 310 174 310 176 310 c 0
268 286 m 0
 259 289 246 291 234 291 c 0
 214 291 194 287 183 279 c 2
 166 267 l 1
 167 183 l 2
 167 137 166 84 164 66 c 2
 160 33 l 1
 177 23 l 2
 189 16 202 12 214 12 c 0
 227 12 239 17 249 25 c 0
 257 32 269 38 276 40 c 0
 303 49 335 113 335 160 c 0
 335 216 305 272 268 286 c 0
EndSplineSet
EndChar

StartChar: cmonospace
Encoding: 9059 65347 185
Width: 500
VWidth: 0
Flags: MW
LayerCount: 2
Fore
SplineSet
342 247 m 0
 342 236 340 225 332 225 c 0
 324 225 316 239 316 254 c 0
 316 270 307 286 298 286 c 0
 294 286 290 288 290 291 c 0
 290 295 279 296 266 296 c 0
 252 296 234 294 224 290 c 0
 211 285 204 276 187 242 c 0
 171 209 163 179 163 146 c 0
 163 131 165 114 168 96 c 0
 175 57 184 41 210 19 c 0
 226 6 233 4 259 4 c 0
 289 5 290 5 321 35 c 0
 339 53 351 62 358 62 c 0
 362 62 363 58 363 52 c 0
 363 48 349 33 333 17 c 0
 305 -10 281 -23 256 -23 c 0
 236 -23 216 -15 194 2 c 0
 162 28 156 39 145 78 c 0
 139 99 137 121 137 143 c 0
 137 199 156 253 191 292 c 0
 200 303 214 313 221 315 c 0
 236 317 230 320 246 320 c 0
 299 320 342 298 342 247 c 0
EndSplineSet
EndChar

StartChar: dmonospace
Encoding: 9060 65348 186
Width: 500
VWidth: 0
Flags: MW
LayerCount: 2
Fore
SplineSet
330 283 m 0
 340 283 335 341 335 354 c 0
 335 409 339 454 345 464 c 0
 349 470 353 473 355 473 c 0
 361 473 363 457 363 421 c 0
 363 390 357 299 357 260 c 0
 357 239 367 147 367 128 c 0
 368 123 374 41 374 22 c 0
 374 8 373 2 369 -2 c 0
 366 -5 362 -7 360 -7 c 0
 352 -7 348 8 348 37 c 0
 347 68 344 126 339 170 c 0
 331 251 330 257 319 266 c 0
 313 271 304 274 300 275 c 0
 296 275 284 281 273 287 c 2
 253 298 l 1
 229 286 l 2
 198 270 172 234 161 191 c 0
 154 162 150 142 150 125 c 0
 150 108 154 93 161 74 c 0
 176 35 189 23 232 11 c 0
 241 9 247 8 252 8 c 0
 273 8 297 32 307 46 c 0
 316 58 325 64 331 64 c 0
 334 64 336 62 336 57 c 0
 336 32 287 -18 251 -18 c 0
 225 -18 189 -3 166 18 c 0
 147 36 141 47 134 73 c 0
 129 94 126 112 126 130 c 0
 126 205 171 279 213 302 c 0
 227 310 238 315 250 315 c 0
 264 315 278 309 299 297 c 0
 312 289 325 283 330 283 c 0
EndSplineSet
EndChar

StartChar: emonospace
Encoding: 9061 65349 187
Width: 500
VWidth: 0
Flags: MW
LayerCount: 2
Fore
SplineSet
203 316 m 0
 213 320 226 321 239 321 c 0
 270 321 305 312 323 297 c 0
 344 279 359 243 359 219 c 0
 359 211 357 204 354 200 c 0
 349 195 327 192 277 189 c 0
 239 186 202 184 195 184 c 0
 185 183 182 185 182 193 c 0
 182 202 187 204 219 208 c 0
 240 210 273 212 295 213 c 2
 334 215 l 1
 333 229 l 2
 332 237 325 254 317 266 c 0
 304 284 297 289 271 297 c 0
 256 302 248 304 240 304 c 0
 234 304 228 303 220 300 c 0
 188 289 166 256 165 218 c 0
 164 182 156 179 156 146 c 0
 156 111 164 63 175 50 c 0
 185 37 238 15 272 15 c 0
 301 15 322 30 352 67 c 0
 357 73 360 75 363 75 c 0
 367 75 368 71 368 65 c 0
 368 34 332 0 311 -8 c 0
 305 -10 297 -11 287 -11 c 0
 241 -11 178 10 154 34 c 1
 142 48 132 99 132 138 c 0
 132 162 137 198 139 215 c 0
 142 257 173 305 203 316 c 0
EndSplineSet
EndChar

StartChar: fmonospace
Encoding: 9062 65350 188
Width: 500
VWidth: 0
Flags: MW
LayerCount: 2
Fore
SplineSet
231 7 m 0
 231 20 233 39 233 52 c 0
 233 64 232 75 230 81 c 0
 222 109 219 197 215 230 c 0
 212 258 211 261 200 261 c 0
 199 261 197 261 195 261 c 0
 187 261 171 259 160 257 c 0
 144 253 140 255 140 261 c 0
 140 273 154 281 184 288 c 0
 204 293 210 296 210 303 c 0
 210 331 205 354 205 371 c 0
 205 409 214 427 236 451 c 0
 258 474 261 475 287 475 c 0
 324 475 360 458 360 444 c 0
 360 442 359 439 357 437 c 0
 353 433 346 435 332 443 c 0
 320 450 305 454 292 454 c 0
 263 454 250 439 239 416 c 0
 232 403 230 395 230 377 c 0
 230 359 236 293 237 291 c 0
 239 290 244 289 249 288 c 0
 254 287 276 286 299 283 c 0
 330 280 345 278 345 265 c 0
 345 260 341 258 327 258 c 0
 315 258 275 263 257 263 c 0
 242 263 236 259 236 246 c 0
 236 239 238 229 241 215 c 0
 247 182 248 176 253 64 c 0
 254 46 254 32 254 22 c 0
 254 1 252 -5 248 -9 c 0
 244 -12 241 -14 239 -14 c 0
 234 -14 231 -7 231 7 c 0
EndSplineSet
EndChar

StartChar: gmonospace
Encoding: 9063 65351 189
Width: 500
VWidth: 0
Flags: MW
LayerCount: 2
Fore
SplineSet
320 312 m 0
 320 319 358 354 366 354 c 0
 375 354 382 337 374 334 c 0
 367 331 341 294 341 286 c 0
 341 283 351 270 363 258 c 0
 378 243 382 237 382 227 c 0
 382 224 382 221 381 217 c 0
 377 196 363 175 344 160 c 0
 328 147 270 134 231 134 c 0
 224 134 213 134 207 134 c 0
 193 134 189 133 189 128 c 0
 189 124 188 113 186 105 c 2
 182 89 l 1
 238 93 l 2
 254 94 266 95 276 95 c 0
 295 95 308 93 324 88 c 0
 373 74 377 71 394 45 c 0
 405 27 409 20 409 4 c 0
 409 -2 409 -9 408 -18 c 0
 407 -39 402 -62 397 -71 c 0
 388 -88 354 -120 344 -120 c 0
 341 -120 315 -127 288 -136 c 2
 238 -152 l 1
 207 -137 l 2
 190 -129 166 -118 155 -114 c 0
 125 -103 91 -62 91 -23 c 0
 91 6 107 37 132 53 c 0
 147 63 152 69 152 81 c 0
 152 89 156 106 162 117 c 2
 173 138 l 1
 153 148 l 2
 125 162 118 172 118 199 c 0
 118 256 194 309 273 309 c 0
 281 309 289 308 297 308 c 0
 311 308 320 310 320 312 c 0
306 278 m 0
 282 282 265 284 252 284 c 0
 233 284 221 279 202 269 c 0
 165 248 142 218 142 195 c 0
 142 187 145 179 151 173 c 0
 161 164 211 153 236 153 c 0
 247 153 260 155 277 158 c 0
 313 164 320 168 337 185 c 0
 350 198 360 211 360 226 c 0
 360 234 355 241 339 256 c 0
 326 268 311 277 306 278 c 0
335 62 m 0
 311 69 283 73 261 73 c 0
 250 73 241 72 235 70 c 0
 220 65 214 70 202 70 c 0
 187 70 168 63 168 57 c 0
 168 53 160 46 152 41 c 0
 128 29 116 9 116 -14 c 0
 116 -27 119 -41 127 -56 c 0
 136 -75 144 -81 170 -92 c 0
 187 -99 210 -109 221 -115 c 2
 241 -125 l 1
 292 -109 l 2
 329 -97 349 -87 362 -74 c 0
 378 -58 380 -55 382 -19 c 0
 382 -13 382 -8 382 -3 c 0
 382 36 371 51 335 62 c 0
EndSplineSet
EndChar

StartChar: hmonospace
Encoding: 9064 65352 190
Width: 500
VWidth: 0
Flags: MW
LayerCount: 2
Fore
SplineSet
128 420 m 0
 128 465 126 496 136 496 c 0
 141 496 146 488 149 475 c 0
 151 465 153 424 153 385 c 0
 153 380 153 375 153 371 c 0
 153 302 157 278 166 278 c 0
 170 278 206 287 206 291 c 0
 206 299 240 308 292 315 c 0
 294 315 295 315 297 315 c 0
 313 315 331 306 345 291 c 0
 354 281 357 268 360 202 c 0
 367 57 369 19 372 12 c 0
 372 11 372 10 372 9 c 0
 372 1 364 -9 355 -9 c 0
 345 -9 343 4 340 80 c 0
 332 272 333 266 321 279 c 0
 311 290 303 294 288 294 c 0
 278 294 265 292 246 288 c 0
 211 280 200 275 184 259 c 0
 166 241 161 230 161 188 c 0
 161 150 164 87 164 54 c 0
 164 12 165 -15 152 -15 c 0
 133 -15 136 90 135 120 c 0
 131 216 128 342 128 420 c 0
EndSplineSet
EndChar

StartChar: imonospace
Encoding: 9065 65353 191
Width: 500
VWidth: 0
Flags: MW
LayerCount: 2
Fore
SplineSet
227 428 m 2
 225 448 l 1
 240 440 l 2
 252 434 258 424 258 414 c 0
 258 409 256 405 253 401 c 0
 238 387 229 414 227 428 c 2
237 282 m 0
 236 292 235 300 235 304 c 0
 235 312 237 312 244 312 c 0
 251 312 257 307 260 300 c 0
 262 293 266 233 268 165 c 0
 270 97 272 40 274 37 c 0
 275 36 275 34 275 29 c 0
 275 23 275 13 274 4 c 0
 271 -19 268 -25 261 -25 c 0
 254 -25 251 -21 251 -8 c 0
 251 1 250 35 248 67 c 0
 245 128 244 228 237 282 c 0
EndSplineSet
EndChar

StartChar: jmonospace
Encoding: 9066 65354 192
Width: 500
VWidth: 0
Flags: MW
LayerCount: 2
Fore
SplineSet
248 444 m 0
 248 454 253 459 262 459 c 0
 268 459 274 456 276 450 c 0
 281 433 283 422 283 415 c 0
 283 402 270 399 261 407 c 0
 254 413 248 431 248 444 c 0
207 -173 m 0
 201 -173 196 -167 196 -163 c 0
 196 -158 203 -155 221 -147 c 0
 244 -137 249 -131 263 -102 c 0
 278 -70 278 -66 279 5 c 0
 279 45 277 121 274 174 c 0
 272 209 271 233 271 250 c 0
 271 279 275 286 284 297 c 0
 288 302 292 306 293 305 c 0
 294 304 295 269 297 227 c 0
 299 167 304 50 304 -17 c 0
 304 -51 302 -62 294 -85 c 0
 287 -104 275 -129 266 -139 c 0
 250 -157 221 -173 207 -173 c 0
EndSplineSet
EndChar

StartChar: kmonospace
Encoding: 9067 65355 193
Width: 500
VWidth: 0
Flags: MW
LayerCount: 2
Fore
SplineSet
134 434 m 0
 134 418 131 391 131 372 c 0
 131 353 132 336 135 325 c 0
 145 286 152 78 155 32 c 0
 155 24 156 17 156 11 c 0
 156 -10 153 -20 148 -20 c 0
 146 -20 144 -19 141 -16 c 0
 135 -10 125 85 122 170 c 0
 119 271 117 302 111 324 c 0
 108 336 106 359 106 383 c 0
 106 418 109 454 114 461 c 0
 118 466 122 469 125 469 c 0
 131 469 134 458 134 434 c 0
331 353 m 0
 334 353 344 350 344 345 c 0
 344 340 336 331 317 311 c 0
 300 293 280 271 274 264 c 2
 262 250 l 1
 275 230 l 2
 282 219 289 207 289 203 c 0
 289 187 330 110 343 84 c 1
 351 70 370 45 375 29 c 0
 377 23 382 15 386 12 c 0
 392 7 394 2 394 -3 c 0
 394 -9 390 -14 382 -14 c 0
 373 -14 366 -9 355 13 c 0
 340 40 312 87 299 112 c 0
 292 128 269 173 265 191 c 0
 263 198 257 211 251 219 c 2
 239 233 l 1
 207 191 l 2
 186 162 173 149 166 149 c 0
 164 149 159 152 159 157 c 0
 159 168 201 224 241 265 c 0
 257 281 282 308 296 324 c 0
 315 345 324 353 331 353 c 0
EndSplineSet
EndChar

StartChar: lmonospace
Encoding: 9068 65356 194
Width: 500
VWidth: 0
Flags: MW
LayerCount: 2
Fore
SplineSet
233 477 m 0
 233 482 235 486 238 486 c 0
 241 486 244 470 244 450 c 0
 244 430 247 391 252 362 c 0
 257 333 261 284 262 253 c 0
 263 222 266 194 268 190 c 0
 275 181 282 11 282 -2 c 0
 282 -10 279 -12 272 -12 c 0
 257 -12 250 22 250 94 c 0
 250 96 250 98 250 101 c 0
 250 137 247 178 244 192 c 0
 241 206 239 234 239 253 c 0
 239 255 239 257 239 259 c 0
 239 278 237 305 234 322 c 0
 226 365 218 442 218 469 c 0
 218 481 222 484 228 475 c 0
 232 468 233 469 233 477 c 0
EndSplineSet
EndChar

StartChar: mmonospace
Encoding: 9069 65357 195
Width: 500
VWidth: 0
Flags: MW
LayerCount: 2
Fore
SplineSet
81 3 m 0
 81 -13 82 -24 74 -24 c 0
 71 -24 68 -24 65 -22 c 0
 55 -16 52 12 45 163 c 2
 41 248 l 1
 49 255 58 262 67 269 c 1
 69 246 70 222 72 199 c 1
 111 240 l 2
 142 273 150 279 162 279 c 0
 164 279 167 279 170 279 c 0
 213 273 238 253 246 216 c 0
 249 202 264 195 264 207 c 0
 264 216 314 260 337 270 c 0
 352 277 364 280 373 280 c 0
 385 280 395 274 405 261 c 0
 413 251 427 231 434 216 c 0
 447 191 448 181 450 115 c 0
 452 74 455 30 457 16 c 0
 458 8 459 2 459 -2 c 0
 459 -7 458 -9 454 -9 c 0
 452 -9 450 -8 448 -8 c 0
 432 -6 429 8 424 109 c 0
 421 187 420 188 401 221 c 0
 390 240 380 257 373 257 c 0
 360 257 326 240 311 226 c 0
 277 195 262 156 262 94 c 0
 262 73 266 30 266 12 c 0
 266 -3 264 -13 254 -13 c 0
 241 -13 233 32 232 122 c 0
 232 175 220 226 205 241 c 0
 200 247 180 253 166 253 c 0
 154 253 148 246 118 211 c 0
 83 171 71 151 71 122 c 0
 71 113 72 103 74 91 c 0
 78 64 81 27 81 3 c 0
EndSplineSet
EndChar

StartChar: nmonospace
Encoding: 9070 65358 196
Width: 500
VWidth: 0
Flags: MW
LayerCount: 2
Fore
SplineSet
163 87 m 0
 162 -1 163 -14 152 -14 c 0
 142 -14 139 4 138 86 c 0
 137 140 136 178 136 206 c 0
 136 266 140 276 150 280 c 0
 155 282 160 283 163 283 c 0
 169 283 171 280 171 270 c 0
 171 261 170 243 174 243 c 0
 177 243 191 248 207 254 c 0
 226 261 244 264 261 264 c 0
 298 264 328 248 337 220 c 0
 345 195 352 88 359 63 c 0
 362 54 364 37 364 21 c 0
 364 18 364 13 364 10 c 0
 362 -18 360 -22 351 -22 c 0
 344 -22 342 -20 342 -9 c 0
 342 -5 343 1 343 7 c 0
 343 41 328 78 328 111 c 0
 328 140 315 206 307 222 c 0
 302 232 275 243 258 243 c 0
 252 243 240 240 229 235 c 0
 163 207 163 207 163 87 c 0
EndSplineSet
EndChar

StartChar: omonospace
Encoding: 9071 65359 197
Width: 500
VWidth: 0
Flags: MW
LayerCount: 2
Fore
SplineSet
160 256 m 2
 196 292 l 1
 234 289 l 2
 262 287 280 282 309 267 c 0
 366 238 393 207 393 165 c 0
 393 152 390 138 385 122 c 0
 359 42 316 1 259 1 c 0
 242 1 223 4 204 12 c 0
 164 27 134 57 118 98 c 0
 110 118 107 135 107 152 c 0
 107 187 123 219 160 256 c 2
305 246 m 0
 275 261 249 268 229 268 c 0
 217 268 208 266 201 261 c 0
 156 231 132 188 132 147 c 0
 132 133 134 120 140 107 c 0
 162 58 182 41 237 28 c 0
 247 26 254 24 260 24 c 0
 268 24 275 27 287 32 c 0
 333 53 367 109 367 166 c 0
 367 209 360 219 305 246 c 0
EndSplineSet
EndChar

StartChar: pmonospace
Encoding: 9072 65360 198
Width: 500
VWidth: 0
Flags: MW
LayerCount: 2
Fore
SplineSet
144 11 m 0
 144 140 144 271 152 271 c 0
 156 271 161 274 164 279 c 0
 165 282 166 284 167 284 c 0
 168 284 169 281 170 274 c 0
 172 258 177 257 186 266 c 0
 192 272 244 281 271 281 c 0
 272 281 272 281 273 281 c 0
 284 281 296 274 310 261 c 0
 345 227 356 195 356 132 c 0
 356 87 351 68 326 35 c 0
 304 6 245 -19 204 -19 c 0
 199 -19 195 -19 190 -18 c 2
 173 -14 l 1
 170 -52 l 2
 169 -64 168 -77 168 -89 c 0
 168 -112 176 -140 157 -140 c 0
 146 -140 144 -116 144 11 c 0
212 5 m 0
 289 5 332 56 332 138 c 0
 332 186 315 229 287 248 c 0
 276 255 269 258 258 258 c 0
 250 258 241 256 228 253 c 0
 175 240 171 231 171 108 c 0
 171 54 171 9 173 8 c 0
 175 6 191 5 209 5 c 0
 210 5 211 5 212 5 c 0
EndSplineSet
EndChar

StartChar: qmonospace
Encoding: 9073 65361 199
Width: 500
VWidth: 0
Flags: MW
LayerCount: 2
Fore
SplineSet
366 -101 m 0
 366 -136 366 -153 354 -153 c 0
 344 -153 340 -132 340 -84 c 0
 340 -82 340 -79 340 -76 c 0
 340 -17 336 22 330 22 c 0
 328 22 323 19 318 15 c 0
 306 4 253 -14 234 -14 c 0
 210 -14 192 -6 169 16 c 0
 144 40 134 61 134 92 c 0
 134 144 169 229 205 263 c 0
 223 280 257 293 306 301 c 0
 320 303 332 305 335 306 c 0
 337 306 339 304 339 301 c 0
 339 298 342 296 346 296 c 0
 352 296 356 291 356 282 c 0
 356 276 354 268 351 259 c 0
 349 253 348 245 348 229 c 0
 348 206 350 168 355 103 c 0
 362 6 366 -60 366 -101 c 0
326 256 m 0
 334 273 335 279 315 279 c 0
 294 279 259 272 240 262 c 0
 219 252 194 218 176 176 c 0
 166 153 163 137 163 104 c 0
 163 100 163 96 163 92 c 0
 163 64 166 58 179 42 c 0
 195 22 215 12 238 12 c 0
 258 12 281 20 304 35 c 2
 333 55 l 1
 331 87 l 2
 329 113 321 191 321 226 c 0
 321 241 322 249 326 256 c 0
EndSplineSet
EndChar

StartChar: rmonospace
Encoding: 9074 65362 200
Width: 500
VWidth: 0
Flags: MW
LayerCount: 2
Fore
SplineSet
145 297 m 0
 145 309 146 315 155 315 c 0
 162 315 167 307 169 290 c 0
 171 272 175 263 181 263 c 0
 185 263 191 267 200 276 c 0
 214 290 226 295 258 302 c 0
 275 306 289 308 301 308 c 0
 318 308 331 305 346 297 c 0
 352 294 355 291 355 289 c 0
 355 287 354 285 351 282 c 0
 344 275 340 275 323 282 c 0
 314 286 309 288 302 288 c 0
 294 288 285 286 266 280 c 0
 225 267 204 252 187 220 c 0
 176 201 176 188 173 96 c 0
 170 -1 170 -7 160 -7 c 0
 151 -7 150 -1 149 128 c 0
 148 202 147 273 145 286 c 0
 145 290 145 293 145 297 c 0
EndSplineSet
EndChar

StartChar: smonospace
Encoding: 9075 65363 201
Width: 500
VWidth: 0
Flags: MW
LayerCount: 2
Fore
SplineSet
273 14 m 0
 312 14 346 49 346 80 c 0
 346 117 313 155 292 163 c 0
 284 166 255 173 228 177 c 0
 192 183 175 189 166 197 c 0
 158 205 153 216 153 225 c 0
 153 233 157 239 163 239 c 0
 168 239 170 240 166 242 c 0
 161 244 159 247 159 252 c 0
 159 270 190 304 218 309 c 0
 230 311 244 315 248 318 c 0
 251 320 256 321 262 321 c 0
 289 321 338 302 338 288 c 0
 338 281 335 277 329 277 c 0
 325 277 318 279 310 283 c 0
 299 289 281 292 261 292 c 0
 217 292 196 284 183 251 c 0
 178 239 176 234 176 229 c 0
 176 213 203 208 229 203 c 0
 299 191 309 187 334 160 c 0
 357 134 369 108 369 82 c 0
 369 71 366 59 362 48 c 0
 353 26 342 17 312 2 c 0
 299 -4 284 -8 265 -8 c 0
 245 -8 221 -4 196 3 c 0
 172 10 163 17 147 37 c 0
 136 51 131 60 131 67 c 0
 131 72 134 75 140 75 c 0
 144 75 152 67 158 57 c 0
 175 30 191 23 240 17 c 0
 255 15 265 14 273 14 c 0
EndSplineSet
EndChar

StartChar: tmonospace
Encoding: 9076 65364 202
Width: 500
VWidth: 0
Flags: MW
LayerCount: 2
Fore
SplineSet
162 280 m 2
 148 280 140 282 140 291 c 0
 140 299 148 307 161 308 c 0
 180 310 185 320 186 371 c 0
 187 397 187 401 198 403 c 0
 204 404 210 405 211 406 c 0
 212 406 211 386 210 360 c 2
 208 313 l 1
 244 312 l 2
 300 311 360 293 360 281 c 0
 360 278 354 273 346 273 c 0
 337 273 318 277 301 281 c 0
 276 287 258 291 243 291 c 0
 232 291 224 289 218 286 c 0
 211 282 209 279 209 255 c 0
 209 245 209 231 210 213 c 0
 215 72 219 18 242 18 c 0
 254 18 272 33 297 59 c 0
 320 82 341 101 344 101 c 0
 349 101 351 99 351 95 c 0
 351 79 287 -9 237 -9 c 0
 217 -9 214 -7 206 11 c 0
 194 37 191 63 189 143 c 0
 188 179 185 225 183 245 c 2
 180 280 l 1
 162 280 l 2
EndSplineSet
EndChar

StartChar: umonospace
Encoding: 9077 65365 203
Width: 500
VWidth: 0
Flags: MW
LayerCount: 2
Fore
SplineSet
324 277 m 0
 324 291 322 301 331 301 c 0
 343 301 348 286 348 253 c 0
 348 247 348 243 348 237 c 0
 348 187 353 97 357 83 c 0
 359 77 360 66 361 57 c 0
 362 45 369 10 369 -6 c 0
 369 -13 366 -14 360 -14 c 0
 345 -14 338 1 338 34 c 0
 338 65 333 86 327 86 c 0
 325 86 317 75 308 61 c 0
 296 40 249 -9 221 -9 c 0
 181 -9 157 4 142 33 c 0
 134 49 132 67 131 164 c 0
 131 184 131 200 131 214 c 0
 131 268 133 278 139 284 c 0
 144 289 149 292 150 290 c 0
 156 284 150 75 166 45 c 0
 176 25 192 16 209 16 c 0
 236 16 268 39 291 80 c 0
 300 96 312 114 318 121 c 0
 324 128 328 138 328 148 c 0
 328 206 324 254 324 277 c 0
EndSplineSet
EndChar

StartChar: vmonospace
Encoding: 9078 65366 204
Width: 500
VWidth: 0
Flags: MW
LayerCount: 2
Fore
SplineSet
114 266 m 0
 114 268 122 271 127 271 c 0
 138 271 148 250 166 186 c 0
 182 130 230 28 240 28 c 0
 243 28 246 33 248 40 c 0
 250 46 260 64 269 78 c 0
 292 113 333 195 349 238 c 0
 356 257 364 275 367 279 c 0
 370 283 374 285 377 285 c 0
 383 285 386 279 386 272 c 0
 386 268 385 263 382 259 c 0
 379 253 371 234 364 216 c 0
 350 181 313 105 295 75 c 0
 289 65 279 46 274 33 c 0
 263 6 249 -9 236 -9 c 0
 219 -9 207 25 200 38 c 0
 185 64 150 142 150 150 c 0
 150 155 147 167 143 176 c 0
 132 202 114 259 114 266 c 0
EndSplineSet
EndChar

StartChar: wmonospace
Encoding: 9079 65367 205
Width: 500
VWidth: 0
Flags: MW
LayerCount: 2
Fore
SplineSet
147 -23 m 0
 147 -27 138 -34 130 -34 c 0
 119 -34 109 -21 90 14 c 0
 59 75 34 181 34 237 c 0
 34 252 35 263 39 269 c 0
 43 275 46 277 49 277 c 0
 55 277 57 265 57 240 c 0
 57 199 75 115 93 70 c 0
 112 21 122 1 127 1 c 0
 132 1 174 73 188 106 c 0
 194 122 202 148 205 164 c 0
 213 212 227 259 241 259 c 0
 249 259 252 251 254 227 c 0
 259 184 267 141 275 120 c 0
 293 71 326 17 339 17 c 0
 355 17 408 129 420 188 c 0
 427 225 439 277 449 277 c 0
 456 277 466 270 466 265 c 0
 466 262 464 258 461 251 c 0
 457 243 450 220 445 199 c 0
 440 179 433 153 430 141 c 0
 418 95 370 -4 354 -11 c 0
 351 -12 348 -13 345 -13 c 0
 325 -13 299 13 278 54 c 0
 255 100 237 150 236 169 c 0
 236 173 235 175 234 175 c 0
 232 175 227 158 213 111 c 0
 208 95 192 59 176 32 c 0
 160 5 147 -19 147 -23 c 0
EndSplineSet
EndChar

StartChar: xmonospace
Encoding: 9080 65368 206
Width: 500
VWidth: 0
Flags: MW
LayerCount: 2
Fore
SplineSet
143 267 m 0
 143 273 145 284 149 284 c 0
 151 284 154 282 158 278 c 0
 164 273 169 262 171 255 c 0
 175 238 222 176 230 175 c 0
 237 175 252 193 278 231 c 0
 290 249 304 264 309 266 c 0
 314 268 323 272 328 276 c 0
 331 278 334 280 337 280 c 0
 340 280 343 278 343 275 c 0
 343 267 326 244 273 181 c 0
 258 163 252 154 252 147 c 0
 252 145 252 144 253 143 c 0
 256 137 384 4 384 -5 c 0
 384 -11 383 -14 379 -14 c 0
 371 -14 354 0 327 27 c 0
 304 49 282 71 277 75 c 0
 272 79 260 92 250 104 c 0
 239 116 235 121 231 121 c 0
 229 121 227 119 225 115 c 0
 211 94 146 14 135 6 c 0
 127 -1 121 -4 118 -4 c 0
 116 -4 116 -3 116 -1 c 0
 116 8 131 34 158 68 c 0
 178 93 198 121 203 131 c 2
 213 148 l 1
 193 171 l 2
 182 184 174 197 174 199 c 0
 174 201 168 210 161 218 c 0
 150 231 143 252 143 267 c 0
EndSplineSet
EndChar

StartChar: ymonospace
Encoding: 9081 65369 207
Width: 500
VWidth: 0
Flags: MW
LayerCount: 2
Fore
SplineSet
120 276 m 0
 120 280 127 288 130 288 c 0
 132 288 136 286 141 282 c 0
 158 266 197 202 222 149 c 0
 253 81 268 50 276 50 c 0
 288 50 316 114 362 239 c 0
 372 267 383 282 392 282 c 0
 398 282 402 278 402 273 c 0
 402 268 400 261 395 248 c 0
 379 202 364 173 344 122 c 0
 335 97 321 66 313 51 c 0
 305 37 296 19 294 12 c 0
 285 -19 175 -137 150 -144 c 0
 140 -147 130 -148 121 -148 c 0
 109 -148 98 -146 98 -141 c 0
 98 -134 118 -124 131 -124 c 0
 139 -124 147 -121 158 -113 c 0
 181 -96 243 -26 252 -5 c 0
 256 3 258 8 258 12 c 0
 258 16 256 21 253 27 c 0
 227 75 172 203 145 238 c 0
 126 263 120 271 120 276 c 0
EndSplineSet
EndChar

StartChar: zmonospace
Encoding: 9082 65370 208
Width: 500
VWidth: 0
Flags: MW
LayerCount: 2
Fore
SplineSet
178 198 m 0
 184 198 229 172 238 172 c 0
 249 172 257 183 275 209 c 0
 284 224 301 247 311 261 c 0
 321 275 329 289 329 292 c 0
 329 294 325 295 317 295 c 0
 312 295 306 295 299 294 c 0
 282 292 244 291 198 291 c 0
 177 291 154 291 131 292 c 0
 123 292 118 295 118 302 c 0
 118 310 124 312 157 313 c 0
 211 315 256 316 291 316 c 0
 331 316 356 315 358 312 c 0
 359 311 359 310 359 308 c 0
 359 290 326 235 271 163 c 0
 266 156 263 152 263 148 c 0
 263 141 270 137 287 127 c 0
 300 120 307 112 306 107 c 0
 305 103 301 100 296 100 c 0
 288 100 276 105 262 115 c 2
 242 128 l 1
 229 113 l 2
 222 105 203 83 186 65 c 0
 169 47 155 30 155 27 c 0
 155 25 164 23 177 23 c 0
 181 23 186 24 190 24 c 0
 209 24 228 20 249 13 c 0
 271 5 298 1 322 1 c 0
 342 1 359 4 368 10 c 0
 374 14 380 16 385 16 c 0
 392 16 397 12 397 5 c 0
 397 -12 359 -22 316 -22 c 0
 289 -22 259 -18 236 -10 c 0
 219 -4 209 -1 197 -1 c 0
 178 -1 131 -9 119 -9 c 0
 107 -9 103 -7 103 -2 c 0
 103 2 107 8 112 12 c 0
 117 16 124 27 129 35 c 0
 142 58 187 100 204 121 c 2
 219 141 l 1
 194 162 l 2
 178 176 172 184 172 190 c 0
 172 194 175 198 178 198 c 0
EndSplineSet
EndChar

StartChar: asmallhiragana
Encoding: 9249 12353 209
Width: 500
VWidth: 0
Flags: MW
LayerCount: 2
Fore
SplineSet
118 292 m 0
 118 316 120 337 134 337 c 0
 146 337 143 304 144 288 c 2
 145 266 l 1
 184 275 l 2
 201 279 213 281 220 281 c 0
 233 281 241 273 235 261 c 0
 230 253 222 250 188 247 c 0
 166 245 146 242 144 239 c 0
 142 237 139 223 138 207 c 2
 137 178 l 1
 161 179 l 2
 174 180 195 183 209 186 c 0
 230 191 235 195 242 211 c 0
 246 222 249 227 249 224 c 0
 250 212 261 217 261 228 c 0
 261 234 262 238 265 238 c 0
 270 238 264 207 264 202 c 0
 264 193 270 192 294 187 c 0
 321 181 336 160 336 131 c 0
 336 68 263 -18 230 -18 c 0
 219 -18 215 -9 226 -2 c 0
 269 23 305 75 311 120 c 0
 312 128 312 134 312 138 c 0
 312 157 288 165 267 165 c 0
 248 165 244 162 231 145 c 0
 223 134 200 109 181 89 c 0
 162 70 147 52 147 49 c 0
 147 32 111 33 87 28 c 0
 76 26 69 24 64 24 c 0
 47 24 34 51 34 67 c 0
 34 93 54 125 89 149 c 0
 113 165 113 165 113 196 c 0
 113 223 112 230 94 230 c 0
 86 230 67 228 58 228 c 0
 49 228 45 229 45 233 c 0
 45 236 48 240 52 246 c 0
 58 254 75 258 112 259 c 0
 116 260 118 269 118 292 c 0
203 150 m 0
 205 153 206 155 206 157 c 0
 206 158 205 159 204 159 c 0
 192 156 172 154 156 151 c 2
 138 148 l 1
 141 122 l 2
 143 108 145 92 148 92 c 0
 155 92 194 134 203 150 c 0
118 77 m 0
 118 90 116 109 114 119 c 2
 111 135 l 1
 87 113 l 2
 68 95 64 88 64 71 c 0
 64 54 68 45 79 45 c 0
 84 45 91 47 99 51 c 0
 115 59 118 61 118 77 c 0
EndSplineSet
EndChar

StartChar: ahiragana
Encoding: 9250 12354 210
Width: 500
VWidth: 0
Flags: MW
LayerCount: 2
Fore
SplineSet
168 451 m 0
 159 457 169 465 176 465 c 0
 180 465 184 463 184 460 c 0
 184 453 174 447 168 451 c 0
194 366 m 0
 211 366 337 383 359 383 c 0
 373 383 378 381 378 376 c 0
 378 374 377 372 376 370 c 0
 370 360 348 354 303 351 c 0
 279 349 245 346 228 343 c 0
 211 340 194 338 192 338 c 0
 190 338 189 327 189 313 c 0
 189 309 190 304 190 300 c 2
 191 262 l 1
 207 263 l 2
 226 264 280 272 303 277 c 0
 317 280 321 284 328 307 c 0
 333 321 339 333 342 333 c 0
 345 333 352 338 358 345 c 0
 362 349 364 352 366 352 c 0
 367 352 367 351 367 349 c 0
 367 345 365 337 361 326 c 0
 353 308 349 298 349 291 c 0
 349 282 356 279 369 275 c 0
 407 264 441 243 452 225 c 0
 458 215 461 209 461 200 c 0
 461 181 451 143 449 128 c 0
 446 107 401 28 379 5 c 0
 365 -10 342 -25 331 -25 c 0
 328 -25 326 -20 326 -14 c 0
 326 -8 328 -4 332 -4 c 0
 344 -4 371 27 398 73 c 0
 426 119 430 136 430 193 c 0
 430 201 430 207 429 210 c 0
 423 227 371 250 347 250 c 0
 342 250 338 249 336 247 c 0
 333 243 314 213 294 179 c 0
 252 108 230 75 213 58 c 0
 206 51 200 43 199 40 c 0
 198 37 183 25 167 13 c 0
 147 -2 132 -9 117 -9 c 0
 98 -9 75 5 67 18 c 0
 63 25 62 40 62 59 c 0
 62 148 80 179 144 223 c 0
 157 232 164 236 164 246 c 0
 164 254 163 271 162 288 c 2
 160 329 l 1
 104 329 l 2
 55 329 39 331 39 338 c 0
 39 350 57 350 87 352 c 0
 110 353 137 355 146 357 c 2
 163 360 l 1
 162 393 l 2
 162 395 162 398 162 400 c 0
 162 418 164 431 168 436 c 0
 172 440 174 442 177 442 c 0
 191 442 183 372 191 366 c 0
 191 366 192 366 194 366 c 0
305 247 m 0
 305 248 303 248 299 248 c 0
 284 248 242 240 218 231 c 2
 197 224 l 1
 198 182 l 2
 200 128 204 96 210 96 c 0
 217 96 305 236 305 247 c 0
178 87 m 0
 178 100 175 204 167 204 c 0
 157 204 109 157 100 138 c 0
 94 125 91 104 91 76 c 0
 91 35 92 30 105 21 c 0
 112 16 116 14 120 14 c 0
 124 14 128 16 134 19 c 0
 142 23 156 34 164 42 c 0
 174 53 178 60 178 87 c 0
EndSplineSet
EndChar

StartChar: ismallhiragana
Encoding: 9251 12355 211
Width: 500
VWidth: 0
Flags: MW
LayerCount: 2
Fore
SplineSet
305 45 m 0
 305 33 303 28 295 28 c 0
 288 28 282 36 282 47 c 0
 282 71 265 150 257 166 c 0
 253 174 245 185 239 191 c 0
 230 200 226 218 241 218 c 0
 256 218 279 191 288 159 c 0
 297 125 305 71 305 45 c 0
68 176 m 0
 68 188 72 207 79 207 c 0
 89 207 92 200 86 192 c 0
 82 187 82 183 86 179 c 0
 89 175 92 162 94 149 c 0
 98 117 108 65 114 49 c 2
 119 36 l 1
 127 48 l 2
 133 57 138 60 141 60 c 0
 143 60 144 58 144 53 c 0
 144 39 131 1 117 1 c 0
 111 1 105 7 100 17 c 0
 85 46 68 135 68 176 c 0
EndSplineSet
EndChar

StartChar: ihiragana
Encoding: 9252 12356 212
Width: 500
VWidth: 0
Flags: MW
LayerCount: 2
Fore
SplineSet
294 346 m 0
 294 355 305 365 315 365 c 0
 337 365 389 286 410 222 c 0
 428 167 440 115 444 85 c 0
 445 75 446 69 446 64 c 0
 446 55 444 54 437 54 c 0
 424 54 417 66 415 91 c 0
 413 131 377 244 355 282 c 0
 339 309 317 338 311 338 c 0
 309 338 308 337 306 337 c 0
 298 337 294 341 294 346 c 0
54 312 m 0
 54 340 54 348 68 348 c 0
 77 348 78 335 80 287 c 0
 84 194 102 111 125 80 c 2
 135 67 l 1
 148 79 l 2
 154 85 158 87 161 87 c 0
 164 87 165 85 165 81 c 0
 165 77 163 71 160 63 c 0
 154 47 149 41 141 41 c 0
 137 41 130 42 123 46 c 0
 84 65 54 184 54 312 c 0
EndSplineSet
EndChar

StartChar: usmallhiragana
Encoding: 9253 12357 213
Width: 500
VWidth: 0
Flags: MW
LayerCount: 2
Fore
SplineSet
103 243 m 0
 103 249 108 253 116 253 c 0
 138 253 181 237 181 218 c 0
 181 212 177 208 170 208 c 0
 165 208 160 210 154 213 c 0
 142 219 103 230 103 243 c 0
126 178 m 0
 141 182 154 185 156 185 c 0
 159 185 170 180 185 174 c 0
 214 162 231 139 231 116 c 0
 231 112 230 107 229 103 c 0
 211 42 152 -35 131 -35 c 0
 126 -35 124 -31 124 -22 c 0
 124 -15 126 -9 129 -9 c 0
 152 -9 204 88 204 122 c 0
 204 126 204 129 202 131 c 0
 191 144 167 154 148 154 c 0
 131 154 87 128 87 117 c 0
 87 107 65 113 65 124 c 0
 65 139 98 170 126 178 c 0
EndSplineSet
EndChar

StartChar: uhiragana
Encoding: 9254 12358 214
Width: 500
VWidth: 0
Flags: MW
LayerCount: 2
Fore
SplineSet
158 446 m 0
 158 452 166 456 174 456 c 0
 179 456 185 454 190 453 c 0
 223 443 283 419 295 411 c 0
 307 403 307 402 299 393 c 0
 292 386 289 385 283 390 c 0
 279 393 259 402 239 409 c 0
 178 430 158 439 158 446 c 0
240 -24 m 0
 234 -24 227 -21 227 -17 c 0
 227 -12 235 -6 250 5 c 0
 280 26 343 110 359 151 c 0
 367 171 371 195 371 216 c 0
 371 260 357 271 324 288 c 0
 306 298 297 301 281 301 c 0
 230 301 164 271 134 237 c 0
 124 226 112 217 107 217 c 0
 103 217 102 218 102 219 c 0
 102 220 105 223 110 227 c 0
 119 234 120 237 115 242 c 0
 96 261 193 309 219 318 c 0
 234 324 251 326 268 326 c 0
 291 326 316 321 338 311 c 0
 379 292 398 257 398 214 c 0
 398 172 379 123 342 73 c 0
 292 7 259 -24 240 -24 c 0
EndSplineSet
EndChar

StartChar: esmallhiragana
Encoding: 9255 12359 215
Width: 500
VWidth: 0
Flags: MW
LayerCount: 2
Fore
SplineSet
87 273 m 0
 87 281 90 291 96 291 c 0
 98 291 101 289 107 286 c 0
 112 283 130 278 146 275 c 0
 174 269 191 260 191 250 c 0
 191 244 187 239 195 236 c 0
 200 234 203 226 203 218 c 0
 203 212 201 206 197 204 c 0
 194 202 192 197 192 193 c 0
 192 185 177 154 150 105 c 0
 140 87 136 79 136 72 c 0
 136 68 137 66 139 62 c 0
 151 39 171 22 186 22 c 0
 221 23 272 59 279 90 c 0
 283 107 291 116 298 116 c 0
 303 116 306 112 306 103 c 0
 306 100 306 98 305 95 c 0
 296 47 263 15 209 2 c 0
 198 -1 189 -2 181 -2 c 0
 164 -2 151 4 137 20 c 2
 121 38 l 1
 103 15 l 2
 93 2 82 -9 78 -9 c 0
 71 -9 68 -5 68 -0 c 0
 68 5 70 11 75 17 c 0
 81 25 90 40 96 51 c 0
 107 74 163 178 163 194 c 0
 163 195 163 196 162 196 c 0
 160 196 143 187 123 175 c 0
 103 163 88 156 80 156 c 0
 74 156 71 160 71 165 c 0
 71 172 110 199 147 218 c 0
 166 228 173 232 173 235 c 0
 173 242 146 248 138 249 c 0
 130 249 119 253 113 259 c 0
 107 265 100 269 95 267 c 0
 90 265 87 266 87 273 c 0
63 142 m 0
 63 146 69 149 72 149 c 0
 75 149 76 146 76 143 c 0
 76 140 73 138 68 138 c 0
 65 138 63 140 63 142 c 0
EndSplineSet
EndChar

